<svg height="480pt" viewBox="-40 0 480 480.01571" width="480pt" xmlns="http://www.w3.org/2000/svg"><path d="m344.007812 320h16c17.671876 0 32-17.910156 32-40s-14.328124-40-32-40h-16zm0 0" fill="#ccac9b"/><path d="m56.007812 320h-16c-17.671874 0-32-17.910156-32-40s14.328126-40 32-40h16zm0 0" fill="#ccac9b"/><path d="m40.007812 184h320v128c0 88.367188-71.632812 160-160 160-88.367187 0-160-71.632812-160-160zm0 0" fill="#f5d7ca"/><path d="m360.007812 184c0-17.671875-71.632812-32-160-32-88.367187 0-160 14.328125-160 32s71.632813 32 160 32c88.367188 0 160-14.328125 160-32zm0 0" fill="#b9a095"/><g fill="#a8887a"><path d="m184.007812 368c-2.460937 0-4.785156-1.136719-6.300781-3.074219-1.515625-1.941406-2.054687-4.472656-1.460937-6.863281l16-64c.640625-2.828125 2.757812-5.09375 5.542968-5.914062 2.785157-.824219 5.792969-.070313 7.867188 1.960937 2.070312 2.03125 2.878906 5.027344 2.113281 7.828125l-12.761719 51.070312 19.054688-4.800781c4.273438-1.035156 8.582031 1.566407 9.648438 5.832031 1.070312 4.261719-1.503907 8.589844-5.757813 9.6875l-32 8c-.636719.171876-1.289063.261719-1.945313.273438zm0 0"/><path d="m128.007812 320c-29.902343 0-39.367187-36.503906-39.761718-38.0625-1.074219-4.289062 1.527344-8.632812 5.8125-9.710938 4.285156-1.074218 8.632812 1.527344 9.710937 5.8125.0625.257813 6.832031 25.960938 24.238281 25.960938s24.175782-25.703125 24.238282-25.960938c1.078125-4.285156 5.425781-6.886718 9.710937-5.8125 4.285157 1.078126 6.886719 5.421876 5.8125 9.710938-.394531 1.558594-9.859375 38.0625-39.761719 38.0625zm0 0"/><path d="m272.007812 320c-29.902343 0-39.367187-36.503906-39.761718-38.0625-1.074219-4.289062 1.527344-8.632812 5.8125-9.710938 4.285156-1.074218 8.632812 1.527344 9.710937 5.8125.0625.257813 6.832031 25.960938 24.238281 25.960938s24.175782-25.703125 24.238282-25.960938c1.078125-4.285156 5.425781-6.886718 9.710937-5.8125 4.285157 1.078126 6.886719 5.421876 5.8125 9.710938-.394531 1.558594-9.859375 38.0625-39.761719 38.0625zm0 0"/></g><path d="m128.007812 360c0 13.253906-10.746093 24-24 24-13.253906 0-24-10.746094-24-24s10.746094-24 24-24c13.253907 0 24 10.746094 24 24zm0 0" fill="#fdb5a6"/><path d="m320.007812 360c0 13.253906-10.746093 24-24 24-13.253906 0-24-10.746094-24-24s10.746094-24 24-24c13.253907 0 24 10.746094 24 24zm0 0" fill="#fdb5a6"/><path d="m264.007812 176h-16v-40c-.019531-20.324219-12.839843-38.433594-32-45.207031v-5.601563c19.15625-6.773437 31.972657-24.871094 32-45.191406v-24h16c4.417969 0 8-3.582031 8-8s-3.582031-8-8-8h-128c-4.417968 0-8 3.582031-8 8s3.582032 8 8 8h16v24c.019532 20.324219 12.839844 38.433594 32 45.207031v5.601563c-19.15625 6.773437-31.972656 24.871094-32 45.191406v40h-16c-4.417968 0-8 3.582031-8 8s3.582032 8 8 8h128c4.417969 0 8-3.582031 8-8s-3.582031-8-8-8zm0 0" fill="#d0dad9"/><path d="m248.007812 136c-.015624-2.683594-.257812-5.359375-.71875-8h-94.5625c-.460937 2.640625-.703124 5.316406-.71875 8v40h96zm0 0" fill="#fda4c6"/><path d="m192.246094 294.054688-16 64c-.679688 2.726562.117187 5.609374 2.101562 7.597656 1.988282 1.988281 4.871094 2.789062 7.597656 2.109375l32-8c2.828126-.640625 5.09375-2.757813 5.914063-5.542969.824219-2.785156.070313-5.792969-1.960937-7.867188-2.03125-2.070312-5.027344-2.878906-7.828126-2.113281l-19.070312 4.761719 12.800781-51.054688c1.035157-4.273437-1.566406-8.582031-5.832031-9.648437-4.261719-1.070313-8.589844 1.503906-9.6875 5.757813zm0 0"/><path d="m161.96875 272.257812c-4.28125-1.085937-8.632812 1.5-9.722656 5.78125-.0625.265626-6.832032 25.960938-24.238282 25.960938s-24.175781-25.695312-24.238281-25.960938c-1.078125-4.285156-5.429687-6.886718-9.714843-5.808593-4.285157 1.078125-6.886719 5.429687-5.808594 9.714843.386718 1.550782 9.859375 38.054688 39.761718 38.054688 29.902344 0 39.375-36.503906 39.761719-38.054688 1.0625-4.277343-1.53125-8.609374-5.800781-9.6875zm0 0"/><path d="m272.007812 320c29.902344 0 39.375-36.503906 39.761719-38.054688 1.078125-4.285156-1.523437-8.636718-5.808593-9.714843-4.285157-1.078125-8.636719 1.523437-9.714844 5.808593-.0625.265626-6.832032 25.960938-24.238282 25.960938s-24.175781-25.695312-24.238281-25.960938c-1.078125-4.285156-5.429687-6.886718-9.714843-5.808593-4.285157 1.078125-6.886719 5.429687-5.808594 9.714843.386718 1.550782 9.859375 38.054688 39.761718 38.054688zm0 0"/><path d="m368.007812 232.96875v-48.96875c0-25.527344-66.976562-34.710938-112-38v-10c-.03125-19.6875-10.398437-37.910156-27.304687-48 16.90625-10.089844 27.273437-28.3125 27.304687-48v-24h8c4.417969 0 8-3.582031 8-8s-3.582031-8-8-8h-128c-4.417968 0-8 3.582031-8 8s3.582032 8 8 8h8v24c.03125 19.6875 10.398438 37.910156 27.304688 48-16.90625 10.089844-27.273438 28.3125-27.304688 48v10c-45.023437 3.289062-112 12.472656-112 38v48.96875c-18.230468 4.464844-31.9999995 23.832031-31.9999995 47.03125 0 23.503906 14.1601565 43.070312 32.8007815 47.199219 7.8125 86.535156 80.347656 152.816406 167.230468 152.816406 86.886719 0 159.421876-66.28125 167.234376-152.816406 18.574218-4.128907 32.734374-23.695313 32.734374-47.199219 0-23.199219-13.769531-42.566406-32-47.03125zm-336 77.0625c-10.535156-6.226562-16.710937-17.816406-16-30.03125-.710937-12.214844 5.464844-23.804688 16-30.03125zm128-270.03125v-24h80v24c0 22.089844-17.910156 40-40 40-22.089843 0-40-17.910156-40-40zm40 56c19 .023438 35.371094 13.386719 39.199219 32h-78.398437c3.828125-18.613281 20.199218-31.976562 39.199218-32zm-40 48h80v32h-80zm192 168c0 83.949219-68.050781 152-152 152-83.945312 0-152-68.050781-152-152v-109.105469c40.871094 20.792969 146.472657 21.105469 152 21.105469 5.527344 0 111.128907-.3125 152-21.105469zm-152-104c-94.398437 0-148.207031-15.542969-152-23.542969v-.152343c2.273438-5.097657 29.480469-17.226563 96-22.242188v13.9375h-8c-4.417968 0-8 3.582031-8 8s3.582032 8 8 8h128c4.417969 0 8-3.582031 8-8s-3.582031-8-8-8h-8v-13.9375c66.847657 5.042969 94.023438 17.242188 96.054688 21.554688-3.535156 8.75-57.359375 24.382812-152.054688 24.382812zm168 102.03125v-60.0625c10.535157 6.226562 16.710938 17.816406 16 30.03125.710938 12.214844-5.464843 23.804688-16 30.03125zm0 0"/></svg>