<svg height="480pt" viewBox="-40 0 480 480.01165" width="480pt" xmlns="http://www.w3.org/2000/svg"><path d="m344.003906 319.996094h16c17.675782 0 32-17.914063 32-40 0-22.089844-14.324218-40-32-40h-16zm0 0" fill="#ccac9b"/><path d="m56.003906 319.996094h-16c-17.671875 0-32-17.914063-32-40 0-22.089844 14.328125-40 32-40h16zm0 0" fill="#ccac9b"/><path d="m40.003906 183.996094h320v128c0 88.367187-71.632812 160-160 160-88.363281 0-160-71.632813-160-160zm0 0" fill="#f5d7ca"/><path d="m360.003906 183.996094c0-17.671875-71.632812-32-160-32-88.363281 0-160 14.328125-160 32s71.636719 32 160 32c88.367188 0 160-14.328125 160-32zm0 0" fill="#b9a095"/><g fill="#a8887a"><path d="m184.003906 367.996094c-2.460937 0-4.785156-1.136719-6.300781-3.074219-1.515625-1.941406-2.054687-4.472656-1.457031-6.863281l16-64c.636718-2.832032 2.757812-5.09375 5.542968-5.914063 2.78125-.824219 5.792969-.070312 7.863282 1.960938 2.074218 2.03125 2.882812 5.027343 2.113281 7.828125l-12.761719 51.070312 19.058594-4.800781c4.269531-1.035156 8.578125 1.566406 9.648438 5.832031 1.066406 4.261719-1.503907 8.589844-5.761719 9.6875l-32 8c-.632813.171875-1.285157.261719-1.945313.273438zm0 0"/><path d="m128.003906 319.996094c-29.902344 0-39.367187-36.503906-39.757812-38.0625-1.074219-4.289063 1.527344-8.632813 5.8125-9.710938 4.285156-1.074218 8.632812 1.527344 9.707031 5.8125.0625.257813 6.832031 25.960938 24.238281 25.960938 17.410156 0 24.179688-25.703125 24.242188-25.960938 1.074218-4.285156 5.421875-6.886718 9.707031-5.8125 4.285156 1.078125 6.886719 5.421875 5.8125 9.710938-.390625 1.558594-9.855469 38.0625-39.761719 38.0625zm0 0"/><path d="m272.003906 319.996094c-29.902344 0-39.367187-36.503906-39.757812-38.0625-1.074219-4.289063 1.527344-8.632813 5.8125-9.710938 4.285156-1.074218 8.632812 1.527344 9.707031 5.8125.0625.257813 6.832031 25.960938 24.238281 25.960938 17.410156 0 24.179688-25.703125 24.242188-25.960938 1.074218-4.285156 5.421875-6.886718 9.707031-5.8125 4.285156 1.078125 6.886719 5.421875 5.8125 9.710938-.390625 1.558594-9.855469 38.0625-39.761719 38.0625zm0 0"/></g><path d="m128.003906 359.996094c0 13.253906-10.742187 24-24 24-13.253906 0-24-10.746094-24-24s10.746094-24 24-24c13.257813 0 24 10.746094 24 24zm0 0" fill="#fdb5a6"/><path d="m320.003906 359.996094c0 13.253906-10.742187 24-24 24-13.253906 0-24-10.746094-24-24s10.746094-24 24-24c13.257813 0 24 10.746094 24 24zm0 0" fill="#fdb5a6"/><path d="m168.003906 95.996094-32 80 80-32zm0 0" fill="#a6383c"/><path d="m128.003906 87.996094 176-80-80 176-32-64zm0 0" fill="#dc2027"/><path d="m192.003906 119.996094 32 64 80-176zm0 0" fill="#e34d52"/><path d="m192.246094 294.058594-16 64c-.597656 2.390625-.058594 4.921875 1.457031 6.863281 1.515625 1.9375 3.839844 3.074219 6.300781 3.074219.65625 0 1.308594-.082032 1.945313-.238282l32-8c4.257812-1.101562 6.828125-5.429687 5.761719-9.691406-1.070313-4.265625-5.378907-6.867187-9.648438-5.832031l-19.058594 4.800781 12.761719-51.070312c.769531-2.800782-.039063-5.796875-2.113281-7.828125-2.070313-2.03125-5.082032-2.78125-7.863282-1.960938-2.785156.820313-4.90625 3.085938-5.542968 5.917969zm0 0"/><path d="m161.964844 272.25c-4.28125-1.082031-8.632813 1.503906-9.71875 5.785156-.0625.257813-6.832032 25.960938-24.242188 25.960938-17.40625 0-24.175781-25.703125-24.238281-25.960938-1.074219-4.285156-5.421875-6.886718-9.707031-5.8125-4.285156 1.078125-6.886719 5.421875-5.8125 9.710938.390625 1.558594 9.855468 38.0625 39.757812 38.0625 29.90625 0 39.371094-36.503906 39.761719-38.0625 1.058594-4.273438-1.53125-8.601563-5.800781-9.683594zm0 0"/><path d="m272.003906 319.996094c29.90625 0 39.371094-36.503906 39.761719-38.0625 1.074219-4.289063-1.527344-8.632813-5.8125-9.710938-4.285156-1.074218-8.632813 1.527344-9.707031 5.8125-.0625.257813-6.832032 25.960938-24.242188 25.960938-17.40625 0-24.175781-25.703125-24.238281-25.960938-1.074219-4.285156-5.421875-6.886718-9.707031-5.8125-4.285156 1.078125-6.886719 5.421875-5.8125 9.710938.390625 1.558594 9.855468 38.0625 39.757812 38.0625zm0 0"/><path d="m368.003906 232.964844v-48.96875c0-26.976563-75.863281-35.664063-117.75-38.398438l61.03125-134.289062c1.378906-3.035156.730469-6.609375-1.625-8.964844-2.359375-2.359375-5.929687-3.007812-8.964844-1.628906l-176 80c-2.785156 1.285156-4.59375 4.050781-4.648437 7.117187-.054687 3.066407 1.648437 5.898438 4.382813 7.285157l28.082031 14.03125-13.960938 37.246093c-41.953125 3.472657-106.546875 12.800781-106.546875 37.601563v48.96875c-18.230468 4.464844-31.99999975 23.832031-31.99999975 47.03125 0 23.503906 14.16015575 43.070312 32.80078175 47.199218 7.8125 86.535157 80.347656 152.816407 167.234374 152.816407 86.882813 0 159.417969-66.28125 167.230469-152.816407 18.578125-4.128906 32.734375-23.695312 32.734375-47.199218 0-23.199219-13.765625-42.566406-32-47.03125zm-336 77.0625c-10.535156-6.226563-16.707031-17.816406-16-30.03125-.707031-12.21875 5.464844-23.808594 16-30.03125zm191.65625-144.605469-21.917968-43.824219 76.726562-76.730468zm-77.078125-77.082031 120.574219-54.808594-76.75 76.730469zm20.320313 28.046875 19.144531 9.601562 9.597656 19.144531-45.933593 17.222657zm185.101562 195.609375c0 83.945312-68.050781 152-152 152-83.945312 0-152-68.054688-152-152v-109.105469c40.875 20.792969 146.472656 21.105469 152 21.105469 5.53125 0 111.128906-.3125 152-21.105469zm-152-104c-94.398437 0-148.183594-15.535156-152-23.542969v-.160156c2.167969-4.800781 25.488282-15.746094 84.320313-21.273438l-3.8125 10.160157c-.925781 2.457031-.585938 5.214843.910156 7.375 1.496094 2.15625 3.957031 3.445312 6.582031 3.441406.960938 0 1.910156-.171875 2.808594-.503906l64-24 14.042969 28.078124c1.351562 2.710938 4.121093 4.425782 7.148437 4.425782h.152344c3.082031-.058594 5.855469-1.882813 7.128906-4.6875l11.863282-26.097656c76.050781 4.289062 106.679687 17.601562 108.914062 22.402343-3.535156 8.75-57.367188 24.382813-152.058594 24.382813zm168 102.03125v-60.0625c10.539063 6.222656 16.710938 17.8125 16 30.03125.710938 12.214844-5.460937 23.804687-16 30.03125zm0 0"/></svg>