<svg height="480pt" viewBox="-40 0 480 480.09796" width="480pt" xmlns="http://www.w3.org/2000/svg"><path d="m344.050781 320.082031h16c17.671875 0 32-17.910156 32-40 0-22.085937-14.328125-40-32-40h-16zm0 0" fill="#ccac9b"/><path d="m56.050781 320.082031h-16c-17.671875 0-32-17.910156-32-40 0-22.085937 14.328125-40 32-40h16zm0 0" fill="#ccac9b"/><path d="m40.050781 184.082031h320v128c0 88.367188-71.636719 160-160 160-88.367187 0-160-71.632812-160-160zm0 0" fill="#f5d7ca"/><path d="m360.050781 184.082031c0-17.671875-71.636719-32-160-32-88.367187 0-160 14.328125-160 32s71.632813 32 160 32c88.363281 0 160-14.328125 160-32zm0 0" fill="#b9a095"/><g fill="#a8887a"><path d="m184.050781 368.082031c-2.464843 0-4.789062-1.136719-6.304687-3.074219-1.515625-1.941406-2.054688-4.472656-1.457032-6.863281l16-64c.636719-2.828125 2.757813-5.09375 5.542969-5.914062 2.78125-.820313 5.792969-.070313 7.863281 1.960937 2.074219 2.03125 2.882813 5.027344 2.113282 7.828125l-12.757813 51.070313 19.054688-4.800782c4.269531-1.035156 8.578125 1.566407 9.648437 5.832032 1.066406 4.261718-1.503906 8.589844-5.761718 9.6875l-32 8c-.632813.171875-1.285157.261718-1.941407.273437zm0 0"/><path d="m128.050781 320.082031c-29.90625 0-39.371093-36.503906-39.761719-38.0625-1.074218-4.285156 1.527344-8.632812 5.8125-9.710937 4.285157-1.074219 8.632813 1.527344 9.707032 5.8125.0625.257812 6.832031 25.960937 24.242187 25.960937 17.40625 0 24.175781-25.703125 24.238281-25.960937 1.074219-4.285156 5.421876-6.886719 9.707032-5.8125 4.285156 1.078125 6.890625 5.425781 5.8125 9.710937-.390625 1.558594-9.855469 38.0625-39.757813 38.0625zm0 0"/><path d="m272.050781 320.082031c-29.90625 0-39.371093-36.503906-39.761719-38.0625-1.074218-4.285156 1.527344-8.632812 5.8125-9.710937 4.285157-1.074219 8.632813 1.527344 9.707032 5.8125.0625.257812 6.832031 25.960937 24.242187 25.960937 17.40625 0 24.175781-25.703125 24.238281-25.960937 1.074219-4.285156 5.421876-6.886719 9.707032-5.8125 4.285156 1.078125 6.890625 5.425781 5.8125 9.710937-.390625 1.558594-9.855469 38.0625-39.757813 38.0625zm0 0"/></g><path d="m128.050781 360.082031c0 13.253907-10.746093 24-24 24-13.257812 0-24-10.746093-24-24 0-13.253906 10.742188-24 24-24 13.253907 0 24 10.746094 24 24zm0 0" fill="#fdb5a6"/><path d="m320.050781 360.082031c0 13.253907-10.746093 24-24 24-13.257812 0-24-10.746093-24-24 0-13.253906 10.742188-24 24-24 13.253907 0 24 10.746094 24 24zm0 0" fill="#fdb5a6"/><path d="m184.050781 120.082031h32v64h-32zm0 0" fill="#2d87a1"/><path d="m264.050781 72.082031c0 35.347657-28.65625 64-64 64-35.347656 0-64-28.652343-64-64 0-35.347656 28.652344-64 64-64 35.34375 0 64 28.652344 64 64zm0 0" fill="#3cb4d7"/><path d="m232.050781 80.082031c-4.421875 0-8-3.582031-8-8 0-13.253906-10.746093-24-24-24-4.421875 0-8-3.582031-8-8s3.578125-8 8-8c22.078125.027344 39.972657 17.917969 40 40 0 4.417969-3.582031 8-8 8zm0 0" fill="#d0dad9"/><path d="m232.050781 80.082031c-4.421875 0-8-3.582031-8-8 0-13.253906-10.746093-24-24-24-4.421875 0-8-3.582031-8-8s3.578125-8 8-8c22.078125.027344 39.972657 17.917969 40 40 0 4.417969-3.582031 8-8 8zm0 0"/><path d="m192.289062 294.136719-16 64c-.597656 2.390625-.0625 4.925781 1.453126 6.867187 1.515624 1.941406 3.84375 3.078125 6.308593 3.078125.652344 0 1.304688-.082031 1.941407-.238281l32-8c2.792968-.679688 5.003906-2.800781 5.800781-5.5625.792969-2.757812.046875-5.730469-1.953125-7.789062-2.003906-2.058594-4.953125-2.886719-7.734375-2.171876l-19.054688 4.761719 12.757813-51.054687c.71875-2.78125-.109375-5.734375-2.167969-7.734375-2.058594-2.003907-5.03125-2.75-7.792969-1.953125-2.757812.792968-4.878906 3.007812-5.558594 5.796875zm0 0"/><path d="m162.007812 272.339844c-4.28125-1.085938-8.632812 1.5-9.71875 5.78125-.0625.265625-6.832031 25.960937-24.238281 25.960937-17.410156 0-24.179687-25.695312-24.242187-25.960937-1.078125-4.285156-5.425782-6.886719-9.710938-5.808594s-6.886718 5.429688-5.808594 9.714844c.390626 1.550781 9.855469 38.054687 39.761719 38.054687 29.902344 0 39.367188-36.503906 39.757813-38.054687 1.066406-4.277344-1.527344-8.609375-5.800782-9.6875zm0 0"/><path d="m272.050781 320.082031c29.902344 0 39.367188-36.503906 39.757813-38.054687 1.078125-4.285156-1.523438-8.636719-5.808594-9.714844s-8.632812 1.523438-9.710938 5.808594c-.0625.265625-6.832031 25.960937-24.238281 25.960937-17.410156 0-24.179687-25.695312-24.242187-25.960937-1.078125-4.285156-5.425782-6.886719-9.710938-5.808594s-6.886718 5.429688-5.808594 9.714844c.390626 1.550781 9.855469 38.054687 39.761719 38.054687zm0 0"/><path d="m368.050781 233.050781v-48.96875c0-32.289062-107.25-38.464843-144-39.640625v-4.558594c33.058594-11.6875 52.890625-45.496093 46.960938-80.058593-5.929688-34.5625-35.894531-59.824219-70.960938-59.824219-35.070312 0-65.035156 25.261719-70.964843 59.824219-5.929688 34.5625 13.902343 68.371093 46.964843 80.058593v4.558594c-36.753906 1.175782-144 7.351563-144 39.640625v48.96875c-18.234375 4.464844-31.9999998 23.832031-31.9999998 47.03125 0 23.503907 14.1562498 43.070313 32.7968748 47.199219 7.8125 86.535156 80.347656 152.816406 167.234375 152.816406 86.882813 0 159.417969-66.28125 167.230469-152.816406 18.578125-4.128906 32.738281-23.695312 32.738281-47.199219 0-23.199219-13.769531-42.566406-32-47.03125zm-336 77.0625c-10.539062-6.222656-16.710937-17.8125-16-30.03125-.710937-12.214843 5.460938-23.804687 16-30.03125zm112-238.03125c0-30.925781 25.070313-56 56-56 30.925781 0 56 25.074219 56 56 0 30.929688-25.074219 56-56 56-30.914062-.035156-55.964843-25.085937-56-56zm64 72v32h-16v-32zm144 168c0 83.949219-68.054687 152-152 152-83.949219 0-152-68.050781-152-152v-109.105469c40.871094 20.792969 146.46875 21.105469 152 21.105469 5.527344 0 111.125-.3125 152-21.105469zm-152-104c-94.402343 0-148.1875-15.535156-152-23.542969v-.152343c3.132813-7.128907 44.863281-21.410157 128-23.90625v23.601562c0 4.417969 3.578125 8 8 8h32c4.417969 0 8-3.582031 8-8v-23.601562c83.429688 2.503906 125.191407 16.867187 128.054688 23.203125-3.535157 8.765625-57.367188 24.398437-152.054688 24.398437zm168 102.03125v-60.0625c10.535157 6.226563 16.707031 17.816407 16 30.03125.707031 12.21875-5.464843 23.808594-16 30.03125zm0 0"/></svg>