<svg height="480pt" viewBox="-40 0 480 480.02141" width="480pt" xmlns="http://www.w3.org/2000/svg"><path d="m344.011719 320.003906h16c17.671875 0 32-17.910156 32-40 0-22.085937-14.328125-40-32-40h-16zm0 0" fill="#ccac9b"/><path d="m56.011719 320.003906h-16c-17.671875 0-32-17.910156-32-40 0-22.085937 14.328125-40 32-40h16zm0 0" fill="#ccac9b"/><path d="m40.011719 184.003906h320v128c0 88.367188-71.636719 160-160 160-88.367188 0-160-71.632812-160-160zm0 0" fill="#f5d7ca"/><path d="m360.011719 184.003906c0-17.671875-71.636719-32-160-32-88.367188 0-160 14.328125-160 32 0 17.675782 71.632812 32 160 32 88.363281 0 160-14.324218 160-32zm0 0" fill="#b9a095"/><g fill="#a8887a"><path d="m184.011719 368.003906c-2.464844 0-4.789063-1.132812-6.304688-3.074218-1.515625-1.941407-2.050781-4.472657-1.457031-6.859376l16-64c.636719-2.832031 2.757812-5.097656 5.542969-5.917968 2.78125-.820313 5.792969-.070313 7.863281 1.960937 2.074219 2.035157 2.882812 5.03125 2.113281 7.828125l-12.757812 51.074219 19.054687-4.800781c4.273438-1.039063 8.582032 1.566406 9.648438 5.828125 1.070312 4.265625-1.503906 8.59375-5.761719 9.691406l-32 8c-.632813.167969-1.285156.261719-1.941406.269531zm0 0"/><path d="m128.011719 320.003906c-29.90625 0-39.367188-36.503906-39.761719-38.0625-1.074219-4.285156 1.527344-8.632812 5.8125-9.707031 4.285156-1.078125 8.632812 1.527344 9.707031 5.8125.066407.253906 6.832031 25.957031 24.242188 25.957031 17.40625 0 24.175781-25.703125 24.238281-25.957031 1.078125-4.285156 5.421875-6.890625 9.707031-5.8125 4.289063 1.074219 6.890625 5.421875 5.8125 9.707031-.390625 1.558594-9.855469 38.0625-39.757812 38.0625zm0 0"/><path d="m272.011719 320.003906c-29.90625 0-39.367188-36.503906-39.761719-38.0625-1.074219-4.285156 1.527344-8.632812 5.8125-9.707031 4.285156-1.078125 8.632812 1.527344 9.707031 5.8125.066407.253906 6.832031 25.957031 24.242188 25.957031 17.40625 0 24.175781-25.703125 24.238281-25.957031 1.078125-4.285156 5.421875-6.890625 9.707031-5.8125 4.289063 1.074219 6.890625 5.421875 5.8125 9.707031-.390625 1.558594-9.855469 38.0625-39.757812 38.0625zm0 0"/></g><path d="m128.011719 360.003906c0 13.257813-10.746094 24-24 24-13.253907 0-24-10.742187-24-24 0-13.253906 10.746093-24 24-24 13.253906 0 24 10.746094 24 24zm0 0" fill="#fdb5a6"/><path d="m320.011719 360.003906c0 13.257813-10.746094 24-24 24-13.253907 0-24-10.742187-24-24 0-13.253906 10.746093-24 24-24 13.253906 0 24 10.746094 24 24zm0 0" fill="#fdb5a6"/><path d="m168.011719 88.003906h48v96h-48zm0 0" fill="#3cb4d7"/><path d="m216.011719 56.003906h48v128h-48zm0 0" fill="#f286a5"/><path d="m120.011719 120.003906h48v64h-48zm0 0" fill="#ffd946"/><path d="m192.25 294.070312-16 64c-.59375 2.386719-.058594 4.917969 1.457031 6.859376 1.515625 1.941406 3.839844 3.074218 6.304688 3.074218.65625 0 1.308593-.078125 1.941406-.238281l32-8c4.257813-1.097656 6.832031-5.425781 5.761719-9.691406-1.066406-4.261719-5.375-6.867188-9.648438-5.828125l-19.054687 4.800781 12.757812-51.074219c.769531-2.796875-.039062-5.792968-2.113281-7.824218-2.070312-2.035157-5.082031-2.785157-7.863281-1.964844-2.785157.824218-4.90625 3.085937-5.542969 5.917968zm0 0"/><path d="m161.972656 272.261719c-4.28125-1.085938-8.632812 1.503906-9.722656 5.785156-.0625.253906-6.832031 25.957031-24.238281 25.957031-17.410157 0-24.175781-25.703125-24.242188-25.957031-1.074219-4.285156-5.421875-6.890625-9.707031-5.8125-4.285156 1.074219-6.886719 5.421875-5.8125 9.707031.394531 1.558594 9.855469 38.0625 39.761719 38.0625 29.902343 0 39.367187-36.503906 39.757812-38.0625 1.058594-4.273437-1.53125-8.597656-5.796875-9.679687zm0 0"/><path d="m272.011719 320.003906c29.902343 0 39.367187-36.503906 39.757812-38.0625 1.078125-4.285156-1.523437-8.632812-5.8125-9.707031-4.285156-1.078125-8.628906 1.527344-9.707031 5.8125-.0625.253906-6.832031 25.957031-24.238281 25.957031-17.410157 0-24.175781-25.703125-24.242188-25.957031-1.074219-4.285156-5.421875-6.890625-9.707031-5.8125-4.285156 1.074219-6.886719 5.421875-5.8125 9.707031.394531 1.558594 9.855469 38.0625 39.761719 38.0625zm0 0"/><path d="m136.011719 96.003906c2.515625 0 4.886719-1.183594 6.398437-3.199218l21.601563-28.800782h20c2.515625 0 4.886719-1.183594 6.398437-3.199218l21.601563-28.800782h28c1.019531 0 2.027343-.191406 2.976562-.566406l40-16c4.101563-1.644531 6.097657-6.304688 4.453125-10.40625-1.640625-4.105469-6.300781-6.101562-10.40625-4.457031l-38.558594 15.429687h-30.464843c-2.519531 0-4.890625 1.1875-6.402344 3.203125l-21.597656 28.796875h-20c-2.519531 0-4.890625 1.1875-6.402344 3.203125l-21.597656 28.796875h-28c-4.417969 0-8 3.582032-8 8 0 4.421875 3.582031 8 8 8zm0 0"/><path d="m368.011719 232.972656v-48.96875c0-22.175781-50.570313-32.132812-96-36.613281v-91.386719c0-4.417968-3.582031-8-8-8h-48c-4.417969 0-8 3.582032-8 8v24h-40c-4.417969 0-8 3.582032-8 8v24h-40c-4.417969 0-8 3.582032-8 8v29.226563c-53.050781 6.824219-80 18.503906-80 34.773437v48.96875c-18.234375 4.464844-32.0000002 23.832032-32.0000002 47.03125 0 23.503906 14.1601562 43.074219 32.8007812 47.203125 7.808594 86.53125 80.34375 152.8125 167.230469 152.8125s159.421875-66.28125 167.230469-152.8125c18.578124-4.128906 32.738281-23.699219 32.738281-47.203125 0-23.199218-13.769531-42.566406-32-47.03125zm-336 77.066406c-10.535157-6.226562-16.710938-17.816406-16-30.035156-.710938-12.214844 5.464843-23.804687 16-30.03125zm192-222.035156v-24h32v112h-32zm-48 32v-24h32v80h-32zm-48 8h32v48h-32zm224 184c0 83.949219-68.054688 152-152 152-83.949219 0-152-68.050781-152-152v-109.101562c40.871093 20.792968 146.472656 21.101562 152 21.101562 5.527343 0 111.128906-.308594 152-21.101562zm-152-104c-94.402344 0-148.183594-15.535156-152-23.542968v-.167969c1.445312-3.101563 16.117187-12.535157 64-18.941407v18.652344c0 4.421875 3.582031 8 8 8h144c4.417969 0 8-3.578125 8-8v-20.527344c56.144531 5.746094 78.238281 16.367188 80.054687 20.144532-3.535156 8.753906-57.367187 24.382812-152.054687 24.382812zm168 102.035156v-60.066406c10.535156 6.226563 16.710937 17.816406 16 30.03125.710937 12.21875-5.464844 23.808594-16 30.035156zm0 0"/></svg>