<svg height="480pt" viewBox="-40 0 480 480.00565" width="480pt" xmlns="http://www.w3.org/2000/svg"><path d="m344.003906 319.988281h16c17.671875 0 32-17.910156 32-40 0-22.085937-14.328125-40-32-40h-16zm0 0" fill="#ccac9b"/><path d="m56.003906 319.988281h-16c-17.671875 0-32-17.910156-32-40 0-22.085937 14.328125-40 32-40h16zm0 0" fill="#ccac9b"/><path d="m40.003906 183.988281h320v128c0 88.367188-71.636718 160-160 160-88.367187 0-160-71.632812-160-160zm0 0" fill="#f5d7ca"/><path d="m360.003906 183.988281c0-17.671875-71.636718-32-160-32-88.367187 0-160 14.328125-160 32 0 17.675781 71.632813 32 160 32 88.363282 0 160-14.324219 160-32zm0 0" fill="#b9a095"/><g fill="#a8887a"><path d="m184.003906 367.988281c-2.464844 0-4.789062-1.132812-6.304687-3.074219-1.515625-1.941406-2.050781-4.472656-1.457031-6.859374l16-64c.636718-2.832032 2.757812-5.097657 5.542968-5.917969 2.78125-.820313 5.792969-.070313 7.863282 1.960937 2.074218 2.035156 2.882812 5.03125 2.113281 7.828125l-12.757813 51.070313 19.054688-4.796875c4.273437-1.039063 8.582031 1.5625 9.648437 5.828125 1.070313 4.265625-1.503906 8.59375-5.761719 9.691406l-32 8c-.632812.167969-1.285156.261719-1.941406.269531zm0 0"/><path d="m128.003906 319.988281c-29.90625 0-39.367187-36.503906-39.761718-38.0625-1.074219-4.285156 1.527343-8.632812 5.8125-9.707031 4.285156-1.078125 8.632812 1.527344 9.707031 5.8125.066406.253906 6.832031 25.957031 24.242187 25.957031 17.40625 0 24.175782-25.703125 24.238282-25.957031 1.078124-4.285156 5.421874-6.890625 9.707031-5.8125 4.289062 1.074219 6.890625 5.421875 5.8125 9.707031-.390625 1.558594-9.855469 38.0625-39.757813 38.0625zm0 0"/><path d="m272.003906 319.988281c-29.90625 0-39.367187-36.503906-39.761718-38.0625-1.074219-4.285156 1.527343-8.632812 5.8125-9.707031 4.285156-1.078125 8.632812 1.527344 9.707031 5.8125.066406.253906 6.832031 25.957031 24.242187 25.957031 17.40625 0 24.175782-25.703125 24.238282-25.957031 1.078124-4.285156 5.421874-6.890625 9.707031-5.8125 4.289062 1.074219 6.890625 5.421875 5.8125 9.707031-.390625 1.558594-9.855469 38.0625-39.757813 38.0625zm0 0"/></g><path d="m128.003906 359.988281c0 13.257813-10.746094 24-24 24-13.257812 0-24-10.742187-24-24 0-13.253906 10.742188-24 24-24 13.253906 0 24 10.746094 24 24zm0 0" fill="#fdb5a6"/><path d="m320.003906 359.988281c0 13.257813-10.746094 24-24 24-13.257812 0-24-10.742187-24-24 0-13.253906 10.742188-24 24-24 13.253906 0 24 10.746094 24 24zm0 0" fill="#fdb5a6"/><path d="m152.003906 119.988281h96v64h-96zm0 0" fill="#f6aa54"/><path d="m248.003906 119.988281h-96l48-112zm0 0" fill="#d0dad9"/><path d="m184.003906 119.988281h32v64h-32zm0 0" fill="#ffd946"/><path d="m175.484375 65.199219c15.089844 9.054687 33.945313 9.054687 49.039063 0l-24.519532-57.210938zm0 0" fill="#4a2a26"/><path d="m192.242188 294.054688-16 64c-.675782 2.722656.121093 5.605468 2.105468 7.589843 1.988282 1.984375 4.867188 2.785157 7.589844 2.105469l32-8c2.832031-.636719 5.097656-2.757812 5.917969-5.542969.820312-2.78125.070312-5.792969-1.960938-7.863281-2.035156-2.074219-5.027343-2.882812-7.828125-2.113281l-19.070312 4.800781 12.796875-51.074219c.769531-2.796875-.039063-5.792969-2.109375-7.824219-2.074219-2.035156-5.082032-2.785156-7.867188-1.964843-2.785156.820312-4.90625 3.085937-5.542968 5.917969zm0 0"/><path d="m161.960938 272.246094c-4.277344-1.085938-8.628907 1.503906-9.71875 5.785156-.0625.253906-6.832032 25.957031-24.238282 25.957031-17.410156 0-24.175781-25.703125-24.242187-25.957031-1.074219-4.285156-5.421875-6.890625-9.707031-5.8125-4.285157 1.074219-6.886719 5.421875-5.8125 9.707031.382812 1.558594 9.855468 38.0625 39.761718 38.0625 29.902344 0 39.375-36.503906 39.757813-38.0625 1.058593-4.273437-1.53125-8.597656-5.800781-9.679687zm0 0"/><path d="m272.003906 319.988281c29.902344 0 39.375-36.503906 39.757813-38.0625 1.078125-4.285156-1.523438-8.632812-5.8125-9.707031-4.285157-1.078125-8.628907 1.527344-9.707031 5.8125-.0625.253906-6.832032 25.957031-24.238282 25.957031-17.410156 0-24.175781-25.703125-24.242187-25.957031-1.074219-4.285156-5.421875-6.890625-9.707031-5.8125-4.285157 1.074219-6.886719 5.421875-5.8125 9.707031.382812 1.558594 9.855468 38.0625 39.761718 38.0625zm0 0"/><path d="m368.003906 232.957031v-48.96875c0-25.535156-66.976562-34.71875-112-38v-26c0-.117187-.066406-.214843-.066406-.335937-.027344-.90625-.207031-1.804688-.535156-2.65625l-.046875-.148438-48-112c-1.261719-2.941406-4.152344-4.847656-7.351563-4.847656-3.199218 0-6.089844 1.90625-7.351562 4.847656l-48 112v.148438c-.335938.847656-.519532 1.746094-.546875 2.65625 0 .121094-.0625.21875-.0625.335937v26c-45.023438 3.28125-112 12.464844-112 38v48.96875c-18.273438 4.464844-32.03906275 23.832031-32.03906275 47.03125 0 23.503907 14.16015575 43.074219 32.80078175 47.203125 7.808593 86.53125 80.34375 152.8125 167.230468 152.8125 86.886719 0 159.421875-66.28125 167.230469-152.8125 18.578125-4.128906 32.738281-23.699218 32.738281-47.203125 0-23.199219-13.769531-42.566406-32-47.03125zm-336 77.066407c-10.535156-6.226563-16.710937-17.816407-16-30.035157-.710937-12.214843 5.464844-23.804687 16-30.03125zm168-281.722657 14.167969 33.066407c-9.128906 3.457031-19.207031 3.457031-28.335937 0zm-20.441406 47.6875c13.109375 5.316407 27.773438 5.316407 40.878906 0l15.425782 36h-71.726563zm60.441406 52v48h-16v-48zm-32 0v48h-16v-48zm-48 0h16v48h-16zm192 184c0 83.949219-68.054687 152-152 152-83.949218 0-152-68.050781-152-152v-109.101562c40.871094 20.792969 146.472656 21.101562 152 21.101562s111.125-.308593 152-21.101562zm-152-104c-94.402344 0-148.210937-15.542969-152-23.542969v-.152343c2.269532-5.09375 29.480469-17.230469 96-22.230469v21.925781c0 4.421875 3.582032 8 8 8h96c4.417969 0 8-3.578125 8-8v-21.933593c66.847656 5.03125 94.015625 17.238281 96.054688 21.550781-3.535156 8.753906-57.359375 24.382812-152.054688 24.382812zm168 102.035157v-60.066407c10.535156 6.226563 16.710938 17.816407 16 30.03125.710938 12.21875-5.464844 23.808594-16 30.035157zm0 0"/></svg>