<svg height="481pt" viewBox="-40 0 481 481.31745" width="481pt" xmlns="http://www.w3.org/2000/svg"><path d="m344.160156 321.300781h16c17.671875 0 32-17.910156 32-40 0-22.085937-14.328125-40-32-40h-16zm0 0" fill="#ccac9b"/><path d="m56.160156 321.300781h-16c-17.671875 0-32-17.910156-32-40 0-22.085937 14.328125-40 32-40h16zm0 0" fill="#ccac9b"/><path d="m40.160156 185.300781h320v128c0 88.367188-71.636718 160-160 160-88.367187 0-160-71.632812-160-160zm0 0" fill="#f5d7ca"/><path d="m360.160156 185.300781c0-17.671875-71.636718-32-160-32-88.367187 0-160 14.328125-160 32 0 17.675781 71.632813 32 160 32 88.363282 0 160-14.324219 160-32zm0 0" fill="#b9a095"/><g fill="#a8887a"><path d="m184.160156 369.300781c-2.464844 0-4.789062-1.132812-6.304687-3.074219-1.515625-1.941406-2.050781-4.472656-1.457031-6.859374l16-64c.636718-2.832032 2.757812-5.097657 5.542968-5.917969 2.78125-.820313 5.792969-.070313 7.863282 1.960937 2.074218 2.035156 2.882812 5.027344 2.113281 7.828125l-12.757813 51.070313 19.054688-4.800782c4.273437-1.035156 8.582031 1.566407 9.648437 5.832032 1.070313 4.265625-1.503906 8.589844-5.761719 9.691406l-32 8c-.632812.167969-1.285156.257812-1.941406.269531zm0 0"/><path d="m128.160156 321.300781c-29.90625 0-39.371094-36.503906-39.761718-38.0625-1.074219-4.285156 1.527343-8.632812 5.8125-9.707031 4.285156-1.078125 8.632812 1.523438 9.707031 5.808594.066406.257812 6.832031 25.960937 24.242187 25.960937 17.40625 0 24.175782-25.703125 24.238282-25.960937 1.074218-4.285156 5.421874-6.886719 9.707031-5.808594 4.285156 1.074219 6.890625 5.421875 5.8125 9.707031-.390625 1.558594-9.855469 38.0625-39.757813 38.0625zm0 0"/><path d="m272.160156 321.300781c-29.90625 0-39.371094-36.503906-39.761718-38.0625-1.074219-4.285156 1.527343-8.632812 5.8125-9.707031 4.285156-1.078125 8.632812 1.523438 9.707031 5.808594.066406.257812 6.832031 25.960937 24.242187 25.960937 17.40625 0 24.175782-25.703125 24.238282-25.960937 1.074218-4.285156 5.421874-6.886719 9.707031-5.808594 4.285156 1.074219 6.890625 5.421875 5.8125 9.707031-.390625 1.558594-9.855469 38.0625-39.757813 38.0625zm0 0"/></g><path d="m128.160156 361.300781c0 13.253907-10.746094 24-24 24-13.257812 0-24-10.746093-24-24 0-13.253906 10.742188-24 24-24 13.253906 0 24 10.746094 24 24zm0 0" fill="#fdb5a6"/><path d="m320.160156 361.300781c0 13.253907-10.746094 24-24 24-13.257812 0-24-10.746093-24-24 0-13.253906 10.742188-24 24-24 13.253906 0 24 10.746094 24 24zm0 0" fill="#fdb5a6"/><path d="m222.792969 29.414062 45.253906 45.257813c6.25 6.246094 6.25 16.378906 0 22.625-6.246094 6.25-16.378906 6.25-22.628906 0l-45.253907-45.253906c-6.246093-6.246094-6.246093-16.378907 0-22.628907 6.25-6.246093 16.378907-6.246093 22.628907 0zm0 0" fill="#2d87a1"/><path d="m154.894531 97.304688 45.257813 45.253906c6.246094 6.25 6.246094 16.378906 0 22.628906-6.25 6.246094-16.378906 6.246094-22.628906 0l-45.253907-45.257812c-6.25-6.246094-6.25-16.378907 0-22.625 6.246094-6.25 16.378907-6.25 22.625 0zm0 0" fill="#2d87a1"/><path d="m251.070312 12.449219 33.9375 33.941406c6.25 6.246094 6.25 16.378906 0 22.625-6.246093 6.25-16.378906 6.25-22.625 0l-33.941406-33.9375c-6.25-6.25-6.25-16.382813 0-22.628906 6.246094-6.25 16.378906-6.25 22.628906 0zm0 0" fill="#3cb4d7"/><path d="m137.933594 125.585938 33.941406 33.941406c6.25 6.246094 6.25 16.378906 0 22.625-6.25 6.25-16.378906 6.25-22.628906 0l-33.941406-33.941406c-6.246094-6.246094-6.246094-16.378907 0-22.625 6.25-6.25 16.382812-6.25 22.628906 0zm0 0" fill="#3cb4d7"/><path d="m192.398438 295.367188-16 64c-.59375 2.386718-.058594 4.917968 1.457031 6.859374 1.515625 1.941407 3.839843 3.074219 6.304687 3.074219.652344 0 1.308594-.082031 1.941406-.238281l32-8c4.257813-1.097656 6.832032-5.425781 5.761719-9.691406-1.066406-4.265625-5.375-6.867188-9.648437-5.828125l-19.054688 4.796875 12.757813-51.070313c.769531-2.796875-.039063-5.792969-2.113281-7.828125-2.070313-2.03125-5.082032-2.78125-7.863282-1.960937-2.785156.820312-4.90625 3.085937-5.542968 5.917969zm0 0"/><path d="m162.117188 273.558594c-4.28125-1.085938-8.628907 1.503906-9.71875 5.78125-.0625.257812-6.832032 25.960937-24.238282 25.960937-17.410156 0-24.175781-25.703125-24.242187-25.960937-1.074219-4.285156-5.421875-6.886719-9.707031-5.808594-4.285157 1.074219-6.886719 5.421875-5.8125 9.707031.390624 1.558594 9.855468 38.0625 39.761718 38.0625 29.902344 0 39.367188-36.503906 39.757813-38.0625 1.058593-4.273437-1.53125-8.597656-5.800781-9.679687zm0 0"/><path d="m272.160156 321.300781c29.902344 0 39.367188-36.503906 39.757813-38.0625 1.078125-4.285156-1.527344-8.632812-5.8125-9.707031-4.285157-1.078125-8.632813 1.523438-9.707031 5.808594-.0625.257812-6.832032 25.960937-24.238282 25.960937-17.410156 0-24.175781-25.703125-24.242187-25.960937-1.074219-4.285156-5.421875-6.886719-9.707031-5.808594-4.285157 1.074219-6.886719 5.421875-5.8125 9.707031.390624 1.558594 9.855468 38.0625 39.761718 38.0625zm0 0"/><path d="m368.160156 234.269531v-48.96875c0-34.03125-119.203125-39.109375-156.898437-39.863281-1.183594-3.199219-3.042969-6.113281-5.445313-8.535156l-16.976562-16.976563 33.949218-33.9375 16.96875 16.96875c7.523438 7.640625 19.207032 9.34375 28.597657 4.167969s14.1875-15.96875 11.738281-26.40625c3.988281-1.058594 7.632812-3.140625 10.570312-6.042969 9.375-9.371093 9.375-24.570312 0-33.941406l-33.9375-33.9375c-9.496093-9.0625-24.4375-9.0625-33.9375 0-2.949218 2.984375-5.054687 6.695313-6.101562 10.761719-7.96875-1.777344-16.296875.550781-22.183594 6.207031-9.371094 9.371094-9.371094 24.5625 0 33.9375l16.976563 16.972656-33.953125 33.9375-16.96875-16.96875c-7.519532-7.640625-19.207032-9.34375-28.597656-4.167969-9.386719 5.179688-14.1875 15.96875-11.738282 26.410157-3.988281 1.058593-7.632812 3.140625-10.566406 6.039062-8.351562 8.421875-9.300781 21.675781-2.234375 31.199219-49.933594 6.929688-75.261719 18.394531-75.261719 34.175781v48.96875c-18.234375 4.464844-32 23.832031-32 47.03125 0 23.503907 14.160156 43.074219 32.796875 47.199219 7.8125 86.535156 80.347657 152.816406 167.234375 152.816406 86.882813 0 159.417969-66.28125 167.230469-152.816406 18.578125-4.125 32.738281-23.695312 32.738281-47.199219 0-23.199219-13.769531-42.566406-32-47.03125zm-134.058594-216.167969c3.160157-3.035156 8.152344-3.035156 11.3125 0l33.945313 33.945313c3.035156 3.136719 2.992187 8.125-.089844 11.214844-3.082031 3.085937-8.074219 3.132812-11.214843.105469l-16.984376-16.976563-16.96875-16.96875c-1.5-1.5-2.34375-3.535156-2.34375-5.660156s.84375-4.160157 2.34375-5.660157zm-28.285156 28.28125c-3.03125-3.140624-2.984375-8.132812.105469-11.214843 3.085937-3.085938 8.074219-3.125 11.210937-.089844l22.625 22.625 16.96875 16.972656 5.648438 5.65625c3.121094 3.125 3.121094 8.191407 0 11.3125-3.125 3.125-8.1875 3.125-11.3125 0zm-173.65625 264.949219c-10.535156-6.222656-16.710937-17.8125-16-30.03125-.710937-12.214843 5.464844-23.804687 16-30.03125zm105.773438-208.375c3.125-3.121093 8.1875-3.121093 11.3125 0l45.257812 45.265625c2.078125 2.007813 2.910156 4.984375 2.175782 7.78125-.734376 2.796875-2.921876 4.980469-5.71875 5.707032-2.796876.730468-5.769532-.105469-7.777344-2.183594l-22.625-22.625-16.96875-16.976563-5.648438-5.65625c-3.121094-3.125-3.121094-8.1875 0-11.3125zm-16.976563 28.28125c3.125-3.117187 8.183594-3.117187 11.304688 0l33.945312 33.945313c3.121094 3.121094 3.121094 8.1875 0 11.308594-3.15625 3.035156-8.144531 3.035156-11.304687 0l-33.945313-33.933594c-1.5-1.5-2.34375-3.539063-2.34375-5.660156 0-2.125.84375-4.160157 2.34375-5.660157zm231.203125 182.0625c0 83.949219-68.054687 152-152 152-83.949218 0-152-68.050781-152-152v-109.101562c40.871094 20.789062 146.46875 21.101562 152 21.101562 5.527344 0 111.125-.3125 152-21.101562zm-152-104c-94.402344 0-148.183594-15.535156-152-23.542969v-.167968c1.535156-3.289063 17.878906-13.695313 72.917969-20.0625v-.257813l22.542969 22.535157c6 6.089843 14.800781 8.5 23.0625 6.320312 8.265625-2.183594 14.726562-8.621094 16.9375-16.878906 12.019531 2.8125 24.179687-4.074219 27.953125-15.824219 87.558593 1.191406 137.304687 15.839844 140.6875 23.496094-3.582031 8.75-57.414063 24.382812-152.101563 24.382812zm168 102.03125v-60.0625c10.535156 6.226563 16.707032 17.816407 16 30.03125.707032 12.21875-5.464844 23.808594-16 30.03125zm0 0"/></svg>