<svg height="480pt" viewBox="-40 0 480 480.21265" width="480pt" xmlns="http://www.w3.org/2000/svg"><path d="m344.105469 320.195312h16c17.671875 0 32-17.910156 32-40 0-22.085937-14.328125-40-32-40h-16zm0 0" fill="#ccac9b"/><path d="m56.105469 320.195312h-16c-17.671875 0-32-17.910156-32-40 0-22.085937 14.328125-40 32-40h16zm0 0" fill="#ccac9b"/><path d="m40.105469 184.195312h320v128c0 88.367188-71.632813 160-160 160-88.363281 0-160-71.632812-160-160zm0 0" fill="#f5d7ca"/><path d="m360.105469 184.195312c0-17.671874-71.632813-32-160-32-88.363281 0-160 14.328126-160 32 0 17.675782 71.636719 32 160 32 88.367187 0 160-14.324218 160-32zm0 0" fill="#b9a095"/><path d="m184.105469 368.195312c-2.460938 0-4.785157-1.132812-6.300781-3.074218-1.515626-1.941406-2.054688-4.472656-1.457032-6.859375l16-64c.636719-2.832031 2.757813-5.097657 5.539063-5.917969 2.785156-.820312 5.796875-.070312 7.867187 1.960938 2.070313 2.035156 2.878906 5.03125 2.113282 7.828124l-12.761719 51.070313 19.058593-4.796875c4.269532-1.039062 8.578126 1.5625 9.648438 5.828125 1.066406 4.265625-1.503906 8.59375-5.761719 9.691406l-32 8c-.636719.167969-1.289062.261719-1.945312.269531zm0 0" fill="#a8887a"/><path d="m128.105469 320.195312c-29.902344 0-39.367188-36.503906-39.757813-38.0625-1.078125-4.285156 1.523438-8.632812 5.8125-9.707031 4.285156-1.078125 8.628906 1.527344 9.707032 5.8125.0625.253907 6.832031 25.957031 24.238281 25.957031 17.410156 0 24.175781-25.703124 24.242187-25.957031 1.074219-4.285156 5.421875-6.890625 9.707032-5.8125 4.285156 1.074219 6.886718 5.421875 5.8125 9.707031-.394532 1.558594-9.855469 38.0625-39.761719 38.0625zm0 0" fill="#a8887a"/><path d="m272.105469 320.195312c-29.902344 0-39.367188-36.503906-39.757813-38.0625-1.078125-4.285156 1.523438-8.632812 5.8125-9.707031 4.285156-1.078125 8.628906 1.527344 9.707032 5.8125.0625.253907 6.832031 25.957031 24.238281 25.957031 17.410156 0 24.175781-25.703124 24.242187-25.957031 1.074219-4.285156 5.421875-6.890625 9.707032-5.8125 4.285156 1.074219 6.886718 5.421875 5.8125 9.707031-.394532 1.558594-9.855469 38.0625-39.761719 38.0625zm0 0" fill="#a8887a"/><path d="m128.105469 360.195312c0 13.257813-10.746094 24-24 24-13.253907 0-24-10.742187-24-24 0-13.253906 10.746093-24 24-24 13.253906 0 24 10.746094 24 24zm0 0" fill="#fdb5a6"/><path d="m320.105469 360.195312c0 13.257813-10.746094 24-24 24-13.253907 0-24-10.742187-24-24 0-13.253906 10.746093-24 24-24 13.253906 0 24 10.746094 24 24zm0 0" fill="#fdb5a6"/><path d="m112.105469 80.195312 88-56 88 56-24 88h-128zm0 0" fill="#f6aa54"/><g fill="#9877b5"><path d="m128.105469 80.195312c0 8.839844-7.164063 16-16 16-8.835938 0-16-7.160156-16-16 0-8.835937 7.164062-16 16-16 8.835937 0 16 7.164063 16 16zm0 0"/><path d="m216.105469 24.195312c0 8.839844-7.164063 16-16 16-8.835938 0-16-7.160156-16-16 0-8.835937 7.164062-16 16-16 8.835937 0 16 7.164063 16 16zm0 0"/><path d="m304.105469 80.195312c0 8.839844-7.164063 16-16 16-8.835938 0-16-7.160156-16-16 0-8.835937 7.164062-16 16-16 8.835937 0 16 7.164063 16 16zm0 0"/><path d="m280.105469 168.195312c0 8.839844-7.164063 16-16 16-8.835938 0-16-7.160156-16-16 0-8.835937 7.164062-16 16-16 8.835937 0 16 7.164063 16 16zm0 0"/><path d="m152.105469 168.195312c0 8.839844-7.164063 16-16 16-8.835938 0-16-7.160156-16-16 0-8.835937 7.164062-16 16-16 8.835937 0 16 7.164063 16 16zm0 0"/></g><path d="m192.347656 294.261719-16 64c-.597656 2.386719-.058594 4.917969 1.457032 6.859375 1.515624 1.941406 3.839843 3.074218 6.300781 3.074218.65625 0 1.308593-.078124 1.945312-.238281l32-8c4.257813-1.097656 6.828125-5.425781 5.761719-9.691406-1.070312-4.261719-5.378906-6.867187-9.648438-5.828125l-19.058593 4.800781 12.761719-51.074219c.765624-2.796874-.042969-5.792968-2.113282-7.824218-2.070312-2.035156-5.082031-2.785156-7.867187-1.964844-2.78125.820312-4.902344 3.085938-5.539063 5.917969zm0 0"/><path d="m162.066406 272.453125c-4.28125-1.085937-8.632812 1.503906-9.71875 5.785156-.066406.253907-6.832031 25.957031-24.242187 25.957031-17.40625 0-24.175781-25.703124-24.238281-25.957031-1.078126-4.285156-5.421876-6.890625-9.707032-5.8125-4.289062 1.074219-6.890625 5.421875-5.8125 9.707031.390625 1.558594 9.855469 38.0625 39.757813 38.0625 29.90625 0 39.367187-36.503906 39.761719-38.0625 1.058593-4.273437-1.535157-8.597656-5.800782-9.679687zm0 0"/><path d="m272.105469 320.195312c29.90625 0 39.367187-36.503906 39.761719-38.0625 1.074218-4.285156-1.527344-8.632812-5.8125-9.707031-4.285157-1.078125-8.632813 1.527344-9.707032 5.8125-.066406.253907-6.832031 25.957031-24.242187 25.957031-17.40625 0-24.175781-25.703124-24.238281-25.957031-1.078126-4.285156-5.421876-6.890625-9.707032-5.8125-4.289062 1.074219-6.890625 5.421875-5.8125 9.707031.390625 1.558594 9.855469 38.0625 39.757813 38.0625zm0 0"/><path d="m368.105469 233.164062v-48.96875c0-17.382812-30.398438-29.476562-90.253907-36l12.054688-44.183593c10.265625-.703125 18.929688-7.890625 21.523438-17.847657 2.59375-9.957031-1.46875-20.457031-10.085938-26.078124-8.621094-5.621094-19.867188-5.105469-27.933594 1.277343l-49.960937-31.789062c2.304687-9.660157-1.574219-19.738281-9.757813-25.359375s-18.984375-5.621094-27.171875 0c-8.183593 5.621094-12.0625 15.699218-9.757812 25.359375l-49.960938 31.789062c-4.175781-3.324219-9.355469-5.148437-14.695312-5.167969-12.933594-.089843-23.605469 10.109376-24.089844 23.035157-.488281 12.929687 9.382813 23.902343 22.289063 24.78125l12.058593 44.183593c-59.855469 6.523438-90.257812 18.617188-90.257812 36v48.96875c-18.230469 4.464844-32 23.832032-32 47.03125 0 23.503907 14.160156 43.074219 32.800781 47.203126 7.8125 86.53125 80.347656 152.8125 167.230469 152.8125 86.886719 0 159.421875-66.28125 167.234375-152.8125 18.574218-4.128907 32.734375-23.699219 32.734375-47.203126 0-23.199218-13.765625-42.566406-32-47.03125zm-80-160.96875c4.417969 0 8 3.582032 8 8 0 4.417969-3.582031 8-8 8s-8-3.582031-8-8c0-4.417968 3.582031-8 8-8zm-176 16c-4.417969 0-8-3.582031-8-8 0-4.417968 3.582031-8 8-8s8 3.582032 8 8c0 4.417969-3.582031 8-8 8zm-80 222.035157c-10.535157-6.226563-16.710938-17.816407-16-30.035157-.710938-12.214843 5.464843-23.804687 16-30.03125zm168-294.035157c4.417969 0 8 3.582032 8 8 0 4.417969-3.582031 8-8 8s-8-3.582031-8-8c0-4.417968 3.582031-8 8-8zm-64 64c-.011719-1.808593-.234375-3.613281-.65625-5.375l49.960937-31.792968c8.585938 6.890625 20.804688 6.890625 29.390625 0l49.960938 31.792968c-2.300781 9.554688 1.554687 19.535157 9.679687 25.066407l-12.136718 44.496093c-9.429688.707032-17.554688 6.90625-20.726563 15.8125h-82.945313c-3.171874-8.90625-11.296874-15.105468-20.726562-15.8125l-12.136719-44.496093c6.460938-4.476563 10.324219-11.832031 10.335938-19.691407zm136 88c0 4.417969-3.582031 8-8 8s-8-3.582031-8-8c0-4.417968 3.582031-8 8-8s8 3.582032 8 8zm-128 0c0 4.417969-3.582031 8-8 8s-8-3.582031-8-8c0-4.417968 3.582031-8 8-8s8 3.582032 8 8zm208 144c0 83.949219-68.050781 152-152 152-83.945313 0-152-68.050781-152-152v-109.101562c40.871093 20.792969 146.472656 21.101562 152 21.101562 5.527343 0 111.128906-.308593 152-21.101562zm-152-104c-94.398438 0-148.183594-15.535156-152-23.542968v-.167969c1.800781-4 19.839843-13 64.273437-18.960937-.144531.886718-.234375 1.777343-.273437 2.671874-.019531 11.675782 8.378906 21.667969 19.886719 23.644532 11.507812 1.980468 22.761718-4.628906 26.640624-15.644532h82.945313c3.878906 11.015626 15.136719 17.625 26.640625 15.644532 11.507812-1.976563 19.910156-11.96875 19.886719-23.644532-.035157-.894531-.128907-1.785156-.269531-2.671874 44.75 5.992187 62.75 15.066406 64.328124 18.289062-3.539062 8.753906-57.371093 24.382812-152.058593 24.382812zm168 102.035157v-60.066407c10.535156 6.226563 16.710937 17.816407 16 30.03125.710937 12.21875-5.464844 23.808594-16 30.035157zm0 0"/></svg>