<svg height="480pt" viewBox="-40 0 480 480.01604" width="480pt" xmlns="http://www.w3.org/2000/svg"><path d="m344.007812 320h16c17.671876 0 32-17.910156 32-40 0-22.085938-14.328124-40-32-40h-16zm0 0" fill="#ccac9b"/><path d="m56.007812 320h-16c-17.671874 0-32-17.910156-32-40 0-22.085938 14.328126-40 32-40h16zm0 0" fill="#ccac9b"/><path d="m40.007812 184h320v128c0 88.367188-71.632812 160-160 160-88.367187 0-160-71.632812-160-160zm0 0" fill="#f5d7ca"/><path d="m360.007812 184c0-17.671875-71.632812-32-160-32-88.367187 0-160 14.328125-160 32s71.632813 32 160 32c88.367188 0 160-14.328125 160-32zm0 0" fill="#b9a095"/><g fill="#a8887a"><path d="m184.007812 368c-2.460937 0-4.785156-1.136719-6.300781-3.074219-1.515625-1.941406-2.054687-4.472656-1.460937-6.863281l16-64c.640625-2.828125 2.761718-5.09375 5.542968-5.914062 2.785157-.820313 5.792969-.070313 7.867188 1.960937 2.070312 2.03125 2.878906 5.027344 2.113281 7.828125l-12.761719 51.070312 19.054688-4.800781c4.273438-1.035156 8.582031 1.566407 9.648438 5.832031 1.070312 4.261719-1.503907 8.589844-5.757813 9.6875l-32 8c-.636719.171876-1.289063.261719-1.945313.273438zm0 0"/><path d="m128.007812 320c-29.902343 0-39.367187-36.503906-39.761718-38.0625-1.074219-4.285156 1.527344-8.632812 5.8125-9.710938 4.289062-1.074218 8.632812 1.527344 9.710937 5.8125.0625.257813 6.832031 25.960938 24.238281 25.960938 17.410157 0 24.175782-25.703125 24.238282-25.960938 1.078125-4.285156 5.425781-6.886718 9.710937-5.8125 4.285157 1.078126 6.886719 5.425782 5.8125 9.710938-.394531 1.558594-9.859375 38.0625-39.761719 38.0625zm0 0"/><path d="m272.007812 320c-29.902343 0-39.367187-36.503906-39.761718-38.0625-1.074219-4.285156 1.527344-8.632812 5.8125-9.710938 4.289062-1.074218 8.632812 1.527344 9.710937 5.8125.0625.257813 6.832031 25.960938 24.238281 25.960938 17.410157 0 24.175782-25.703125 24.238282-25.960938 1.078125-4.285156 5.425781-6.886718 9.710937-5.8125 4.285157 1.078126 6.886719 5.425782 5.8125 9.710938-.394531 1.558594-9.859375 38.0625-39.761719 38.0625zm0 0"/></g><path d="m128.007812 360c0 13.253906-10.746093 24-24 24-13.253906 0-24-10.746094-24-24s10.746094-24 24-24c13.253907 0 24 10.746094 24 24zm0 0" fill="#fdb5a6"/><path d="m320.007812 360c0 13.253906-10.746093 24-24 24-13.253906 0-24-10.746094-24-24s10.746094-24 24-24c13.253907 0 24 10.746094 24 24zm0 0" fill="#fdb5a6"/><path d="m128.007812 48v96l72 40 72-40v-96zm0 0" fill="#ffd946"/><path d="m200.007812 48v136l72-40v-96zm0 0" fill="#f286a5"/><path d="m272.007812 48-72-40-72 40 72 40zm0 0" fill="#3cb4d7"/><path d="m192.246094 294.0625-16 64c-.59375 2.390625-.054688 4.921875 1.460937 6.863281 1.515625 1.9375 3.839844 3.074219 6.300781 3.074219.65625 0 1.308594-.082031 1.945313-.238281l32-8c4.253906-1.101563 6.828125-5.425781 5.757813-9.691407-1.066407-4.265624-5.375-6.867187-9.648438-5.828124l-19.054688 4.796874 12.761719-51.070312c.765625-2.800781-.042969-5.792969-2.113281-7.828125-2.074219-2.03125-5.082031-2.78125-7.867188-1.960937-2.78125.820312-4.902343 3.085937-5.542968 5.917968zm0 0"/><path d="m161.96875 272.257812c-4.28125-1.085937-8.632812 1.503907-9.722656 5.78125-.0625.257813-6.828125 25.960938-24.238282 25.960938-17.40625 0-24.175781-25.703125-24.238281-25.960938-1.078125-4.285156-5.421875-6.886718-9.710937-5.8125-4.285156 1.078126-6.886719 5.425782-5.8125 9.710938.394531 1.558594 9.859375 38.0625 39.761718 38.0625 29.902344 0 39.367188-36.503906 39.761719-38.0625 1.058594-4.273438-1.535156-8.601562-5.800781-9.679688zm0 0"/><path d="m272.007812 320c29.902344 0 39.367188-36.503906 39.761719-38.0625 1.074219-4.285156-1.527343-8.632812-5.8125-9.710938-4.285156-1.074218-8.632812 1.527344-9.710937 5.8125-.0625.257813-6.828125 25.960938-24.238282 25.960938-17.40625 0-24.175781-25.703125-24.238281-25.960938-1.078125-4.285156-5.421875-6.886718-9.710937-5.8125-4.285156 1.078126-6.886719 5.425782-5.8125 9.710938.394531 1.558594 9.859375 38.0625 39.761718 38.0625zm0 0"/><path d="m368.007812 232.96875v-48.96875c0-21.601562-48.800781-31.421875-89.144531-35.886719.746094-1.242187 1.144531-2.664062 1.144531-4.113281v-96c-.019531-.949219-.207031-1.886719-.558593-2.769531-.082031-.222657-.171875-.441407-.273438-.652344-.363281-.785156-.847656-1.503906-1.441406-2.128906l-.125-.121094c-.519531-.519531-1.105469-.964844-1.746094-1.320313l-72-40c-2.417969-1.34375-5.359375-1.34375-7.773437 0l-72 40c-.640625.355469-1.230469.800782-1.746094 1.320313l-.097656.121094c-.589844.625-1.074219 1.34375-1.4375 2.128906-.101563.210937-.195313.429687-.273438.652344-.339844.886719-.519531 1.824219-.527344 2.769531v96c.003907 1.449219.398438 2.871094 1.144532 4.113281-40.34375 4.464844-89.144532 14.285157-89.144532 35.886719v48.96875c-18.230468 4.464844-31.9999995 23.832031-31.9999995 47.03125 0 23.503906 14.1601565 43.074219 32.8007815 47.199219 7.8125 86.535156 80.347656 152.816406 167.230468 152.816406 86.886719 0 159.421876-66.28125 167.234376-152.816406 18.574218-4.125 32.734374-23.695313 32.734374-47.199219 0-23.199219-13.769531-42.566406-32-47.03125zm-336 77.0625c-10.535156-6.222656-16.710937-17.8125-16-30.03125-.710937-12.214844 5.464844-23.804688 16-30.03125zm168-292.878906 55.527344 30.847656-55.527344 30.847656-55.527343-30.847656zm64 44.449218v77.695313l-56 31.101563v-77.695313zm-128 0 56 31.109376v77.6875l-56-31.117188zm216 250.398438c0 83.949219-68.050781 152-152 152-83.945312 0-152-68.050781-152-152v-109.105469c40.871094 20.792969 146.472657 21.105469 152 21.105469 5.527344 0 111.128907-.3125 152-21.105469zm-152-104c-94.398437 0-148.183593-15.535156-152-23.542969v-.160156c2.304688-5.136719 28.566407-17.152344 96-22.257813l52.113282 28.953126c.167968.089843.34375.128906.511718.207031.167969.082031.40625.167969.625.25 1.757813.734375 3.742188.734375 5.503907 0 .214843-.082031.414062-.152344.621093-.25.210938-.09375.34375-.117188.511719-.207031l52.113281-28.953126c67.800782 5.128907 94.007813 17.257813 96.054688 21.601563-3.535156 8.726563-57.367188 24.359375-152.054688 24.359375zm168 102.03125v-60.0625c10.535157 6.226562 16.710938 17.816406 16 30.03125.710938 12.21875-5.464843 23.808594-16 30.03125zm0 0"/></svg>