<svg height="480pt" viewBox="-40 0 480 480.01944" width="480pt" xmlns="http://www.w3.org/2000/svg"><path d="m344.007812 320.003906h16c17.675782 0 32-17.914062 32-40 0-22.089844-14.324218-40-32-40h-16zm0 0" fill="#ccac9b"/><path d="m56.007812 320.003906h-16c-17.671874 0-32-17.914062-32-40 0-22.089844 14.328126-40 32-40h16zm0 0" fill="#ccac9b"/><path d="m40.007812 184.003906h320v128c0 88.367188-71.632812 160-160 160-88.363281 0-160-71.632812-160-160zm0 0" fill="#f5d7ca"/><path d="m360.007812 184.003906c0-17.671875-71.632812-32-160-32-88.363281 0-160 14.328125-160 32s71.636719 32 160 32c88.367188 0 160-14.328125 160-32zm0 0" fill="#b9a095"/><g fill="#a8887a"><path d="m184.007812 368.003906c-2.460937 0-4.785156-1.136718-6.300781-3.074218-1.515625-1.941407-2.054687-4.472657-1.457031-6.863282l16-64c.636719-2.832031 2.757812-5.09375 5.542969-5.914062 2.78125-.824219 5.792969-.070313 7.863281 1.960937 2.074219 2.03125 2.882812 5.027344 2.113281 7.828125l-12.761719 51.070313 19.058594-4.800781c4.269532-1.035157 8.578125 1.566406 9.648438 5.832031 1.066406 4.261719-1.503906 8.589843-5.761719 9.6875l-32 8c-.632813.171875-1.285156.261719-1.945313.273437zm0 0"/><path d="m128.007812 320.003906c-29.902343 0-39.367187-36.503906-39.757812-38.0625-1.074219-4.289062 1.527344-8.632812 5.8125-9.710937 4.285156-1.074219 8.632812 1.527343 9.707031 5.8125.0625.257812 6.832031 25.960937 24.238281 25.960937 17.410157 0 24.179688-25.703125 24.242188-25.960937 1.074219-4.285157 5.421875-6.886719 9.707031-5.8125 4.285157 1.078125 6.886719 5.421875 5.8125 9.710937-.390625 1.558594-9.855469 38.0625-39.761719 38.0625zm0 0"/><path d="m272.007812 320.003906c-29.902343 0-39.367187-36.503906-39.757812-38.0625-1.074219-4.289062 1.527344-8.632812 5.8125-9.710937 4.285156-1.074219 8.632812 1.527343 9.707031 5.8125.0625.257812 6.832031 25.960937 24.238281 25.960937 17.410157 0 24.179688-25.703125 24.242188-25.960937 1.074219-4.285157 5.421875-6.886719 9.707031-5.8125 4.285157 1.078125 6.886719 5.421875 5.8125 9.710937-.390625 1.558594-9.855469 38.0625-39.761719 38.0625zm0 0"/></g><path d="m128.007812 360.003906c0 13.253906-10.742187 24-24 24-13.253906 0-24-10.746094-24-24s10.746094-24 24-24c13.257813 0 24 10.746094 24 24zm0 0" fill="#fdb5a6"/><path d="m320.007812 360.003906c0 13.253906-10.742187 24-24 24-13.253906 0-24-10.746094-24-24s10.746094-24 24-24c13.257813 0 24 10.746094 24 24zm0 0" fill="#fdb5a6"/><path d="m136.007812 56.003906-48-24 48-24zm0 0" fill="#dc2027"/><path d="m152.007812 16.003906h-16v32h16c17.675782 0 32 14.328125 32 32v104h32v-104c0-35.347656-28.652343-64-64-64zm0 0" fill="#a6383c"/><path d="m264.007812 56.003906 48-24-48-24zm0 0" fill="#3cb4d7"/><path d="m248.007812 16.003906h16v32h-16c-17.671874 0-32 14.328125-32 32v104h-32v-104c0-35.347656 28.65625-64 64-64zm0 0" fill="#2d87a1"/><path d="m192.25 294.066406-16 64c-.679688 2.726563.121094 5.605469 2.105469 7.589844 1.984375 1.988281 4.867187 2.785156 7.589843 2.109375l32-8c2.832032-.640625 5.097657-2.757813 5.917969-5.542969.820313-2.785156.070313-5.792968-1.964843-7.867187-2.03125-2.070313-5.027344-2.878907-7.824219-2.113281l-19.074219 4.800781 12.800781-51.070313c.769531-2.800781-.039062-5.796875-2.113281-7.828125-2.070312-2.03125-5.082031-2.78125-7.863281-1.960937-2.785157.820312-4.90625 3.085937-5.542969 5.917968zm0 0"/><path d="m161.96875 272.257812c-2.054688-.535156-4.242188-.226562-6.070312.863282-1.824219 1.085937-3.140626 2.859375-3.648438 4.921875-.0625.257812-6.832031 25.960937-24.242188 25.960937-17.40625 0-24.175781-25.703125-24.238281-25.960937-1.074219-4.285157-5.421875-6.886719-9.707031-5.8125-4.285156 1.078125-6.886719 5.421875-5.8125 9.710937.382812 1.558594 9.855469 38.0625 39.757812 38.0625 29.90625 0 39.378907-36.503906 39.761719-38.0625 1.058594-4.273437-1.53125-8.601562-5.800781-9.683594zm0 0"/><path d="m272.007812 320.003906c29.90625 0 39.378907-36.503906 39.761719-38.0625 1.074219-4.289062-1.527343-8.632812-5.8125-9.710937-4.285156-1.074219-8.632812 1.527343-9.707031 5.8125-.0625.257812-6.832031 25.960937-24.242188 25.960937-17.40625 0-24.175781-25.703125-24.238281-25.960937-1.074219-4.285157-5.421875-6.886719-9.707031-5.8125-4.285156 1.078125-6.886719 5.421875-5.8125 9.710937.382812 1.558594 9.855469 38.0625 39.757812 38.0625zm0 0"/><path d="m368.007812 232.972656v-48.96875c0-32.28125-107.246093-38.464844-144-39.632812v-64.367188c0-13.253906 10.746094-24 24-24h8c0 2.773438 1.433594 5.347656 3.792969 6.808594 2.359375 1.457031 5.304688 1.589844 7.785157.351562l48-24c2.714843-1.355468 4.429687-4.125 4.429687-7.160156s-1.714844-5.808594-4.429687-7.160156l-48-24c-2.480469-1.238281-5.425782-1.105469-7.785157.351562-2.359375 1.460938-3.792969 4.035157-3.792969 6.808594h-8c-17.703124-.003906-34.785156 6.550782-47.941406 18.398438-13.207031-11.84375-30.316406-18.394532-48.058594-18.398438h-8c.003907-2.773437-1.429687-5.347656-3.789062-6.808594-2.359375-1.457031-5.304688-1.589843-7.785156-.351562l-48 24c-2.714844 1.351562-4.429688 4.125-4.429688 7.160156s1.714844 5.804688 4.429688 7.160156l48 24c2.480468 1.238282 5.425781 1.105469 7.785156-.351562 2.359375-1.460938 3.792969-4.035156 3.789062-6.808594h8c13.257813 0 24 10.746094 24 24v64.367188c-36.75 1.167968-144 7.351562-144 39.632812v48.96875c-18.230468 4.464844-31.9999995 23.832032-31.9999995 47.03125 0 23.503906 14.1601565 43.070313 32.8007815 47.199219 7.8125 86.535156 80.347656 152.816406 167.234375 152.816406 86.882812 0 159.417969-66.28125 167.230469-152.816406 18.578124-4.128906 32.734374-23.695313 32.734374-47.199219 0-23.199218-13.765624-42.566406-32-47.03125zm-96-212.023437 22.113282 11.054687-22.113282 11.054688zm-144 22.109375-22.109374-11.054688 22.109374-11.054687zm-96 266.976562c-10.535156-6.226562-16.707031-17.816406-16-30.03125-.707031-12.21875 5.464844-23.808594 16-30.03125zm160-230.03125c.042969-30.910156 25.089844-55.960937 56-56h8v16h-8c-22.078124.027344-39.972656 17.917969-40 40v96h-16zm-40-40h-8v-16h8c13.800782.011719 27.113282 5.121094 37.378907 14.34375-3.25 4.550782-5.960938 9.464844-8.074219 14.640625-7.511719-8.246093-18.144531-12.957031-29.304688-12.984375zm200 272c0 83.945313-68.050781 152-152 152-83.945312 0-152-68.054687-152-152v-109.105468c40.875 20.792968 146.472657 21.105468 152 21.105468 5.53125 0 111.128907-.3125 152-21.105468zm-152-104c-94.398437 0-148.207031-15.542968-152-23.542968v-.152344c3.113282-7.121094 44.851563-21.410156 128-23.90625v23.601562c0 4.417969 3.582032 8 8 8h32c4.421876 0 8-3.582031 8-8v-23.601562c83.433594 2.503906 125.195313 16.867187 128.058594 23.203125-3.535156 8.765625-57.359375 24.398437-152.058594 24.398437zm168 102.03125v-60.0625c10.539063 6.222656 16.710938 17.8125 16 30.03125.710938 12.214844-5.460937 23.804688-16 30.03125zm0 0"/></svg>