<svg height="480pt" viewBox="-40 0 480 480.02161" width="480pt" xmlns="http://www.w3.org/2000/svg"><path d="m344.011719 320.007812h16c17.671875 0 32-17.914062 32-40 0-22.089843-14.328125-40-32-40h-16zm0 0" fill="#ccac9b"/><path d="m56.011719 320.007812h-16c-17.671875 0-32-17.914062-32-40 0-22.089843 14.328125-40 32-40h16zm0 0" fill="#ccac9b"/><path d="m40.011719 184.007812h320v128c0 88.363282-71.636719 160-160 160-88.367188 0-160-71.636718-160-160zm0 0" fill="#f5d7ca"/><path d="m360.011719 184.007812c0-17.675781-71.636719-32-160-32-88.367188 0-160 14.324219-160 32 0 17.671876 71.632812 32 160 32 88.363281 0 160-14.328124 160-32zm0 0" fill="#b9a095"/><g fill="#a8887a"><path d="m184.011719 368.007812c-2.464844-.003906-4.789063-1.136718-6.304688-3.078124-1.515625-1.941407-2.050781-4.46875-1.457031-6.859376l16-64c.636719-2.832031 2.757812-5.097656 5.542969-5.917968 2.78125-.820313 5.792969-.070313 7.863281 1.964844 2.074219 2.03125 2.882812 5.027343 2.113281 7.824218l-12.757812 51.074219 19.054687-4.800781c4.273438-1.039063 8.582032 1.566406 9.648438 5.828125 1.070312 4.265625-1.503906 8.59375-5.761719 9.691406l-32 8c-.632813.167969-1.285156.261719-1.941406.273437zm0 0"/><path d="m128.011719 320.007812c-29.90625 0-39.367188-36.507812-39.761719-38.066406-1.074219-4.285156 1.527344-8.632812 5.8125-9.707031 4.285156-1.078125 8.632812 1.527344 9.707031 5.8125.066407.253906 6.832031 25.960937 24.242188 25.960937 17.40625 0 24.175781-25.707031 24.238281-25.960937 1.078125-4.285156 5.421875-6.890625 9.707031-5.8125 4.289063 1.074219 6.890625 5.421875 5.8125 9.707031-.390625 1.558594-9.855469 38.066406-39.757812 38.066406zm0 0"/><path d="m272.011719 320.007812c-29.90625 0-39.367188-36.507812-39.761719-38.066406-1.074219-4.285156 1.527344-8.632812 5.8125-9.707031 4.285156-1.078125 8.632812 1.527344 9.707031 5.8125.066407.253906 6.832031 25.960937 24.242188 25.960937 17.40625 0 24.175781-25.707031 24.238281-25.960937 1.078125-4.285156 5.421875-6.890625 9.707031-5.8125 4.289063 1.074219 6.890625 5.421875 5.8125 9.707031-.390625 1.558594-9.855469 38.066406-39.757812 38.066406zm0 0"/></g><path d="m128.011719 360.007812c0 13.253907-10.746094 24-24 24-13.253907 0-24-10.746093-24-24 0-13.257812 10.746093-24 24-24 13.253906 0 24 10.742188 24 24zm0 0" fill="#fdb5a6"/><path d="m320.011719 360.007812c0 13.253907-10.746094 24-24 24-13.253907 0-24-10.746093-24-24 0-13.257812 10.746093-24 24-24 13.253906 0 24 10.742188 24 24zm0 0" fill="#fdb5a6"/><path d="m344.011719 320.007812h16c17.671875 0 32-17.914062 32-40 0-22.089843-14.328125-40-32-40h-16zm0 0" fill="#ccac9b"/><path d="m56.011719 320.007812h-16c-17.671875 0-32-17.914062-32-40 0-22.089843 14.328125-40 32-40h16zm0 0" fill="#ccac9b"/><path d="m40.011719 184.007812h320v128c0 88.363282-71.636719 160-160 160-88.367188 0-160-71.636718-160-160zm0 0" fill="#f5d7ca"/><path d="m360.011719 184.007812c0-17.675781-71.636719-32-160-32-88.367188 0-160 14.324219-160 32 0 17.671876 71.632812 32 160 32 88.363281 0 160-14.328124 160-32zm0 0" fill="#b9a095"/><path d="m184.011719 368.007812c-2.464844-.003906-4.789063-1.136718-6.304688-3.078124-1.515625-1.941407-2.050781-4.46875-1.457031-6.859376l16-64c.636719-2.832031 2.757812-5.097656 5.542969-5.917968 2.78125-.820313 5.792969-.070313 7.863281 1.964844 2.074219 2.03125 2.882812 5.027343 2.113281 7.824218l-12.757812 51.074219 19.054687-4.800781c4.273438-1.039063 8.582032 1.566406 9.648438 5.828125 1.070312 4.265625-1.503906 8.59375-5.761719 9.691406l-32 8c-.632813.167969-1.285156.261719-1.941406.273437zm0 0" fill="#a8887a"/><path d="m128.011719 320.007812c-29.90625 0-39.367188-36.507812-39.761719-38.066406-1.074219-4.285156 1.527344-8.632812 5.8125-9.707031 4.285156-1.078125 8.632812 1.527344 9.707031 5.8125.066407.253906 6.832031 25.960937 24.242188 25.960937 17.40625 0 24.175781-25.707031 24.238281-25.960937 1.078125-4.285156 5.421875-6.890625 9.707031-5.8125 4.289063 1.074219 6.890625 5.421875 5.8125 9.707031-.390625 1.558594-9.855469 38.066406-39.757812 38.066406zm0 0" fill="#a8887a"/><path d="m272.011719 320.007812c-29.90625 0-39.367188-36.507812-39.761719-38.066406-1.074219-4.285156 1.527344-8.632812 5.8125-9.707031 4.285156-1.078125 8.632812 1.527344 9.707031 5.8125.066407.253906 6.832031 25.960937 24.242188 25.960937 17.40625 0 24.175781-25.707031 24.238281-25.960937 1.078125-4.285156 5.421875-6.890625 9.707031-5.8125 4.289063 1.074219 6.890625 5.421875 5.8125 9.707031-.390625 1.558594-9.855469 38.066406-39.757812 38.066406zm0 0" fill="#a8887a"/><path d="m128.011719 360.007812c0 13.253907-10.746094 24-24 24-13.253907 0-24-10.746093-24-24 0-13.257812 10.746093-24 24-24 13.253906 0 24 10.742188 24 24zm0 0" fill="#fdb5a6"/><path d="m320.011719 360.007812c0 13.253907-10.746094 24-24 24-13.253907 0-24-10.746093-24-24 0-13.257812 10.746093-24 24-24 13.253906 0 24 10.742188 24 24zm0 0" fill="#fdb5a6"/><path d="m184.011719 184.007812v-48c0-17.675781-24-48-24-48s-40 30.324219-40 48v48zm0 0" fill="#dc2027"/><path d="m280.011719 184.007812v-48c0-17.675781-40-48-40-48s-24 30.324219-24 48v48zm0 0" fill="#dc2027"/><path d="m248.011719 72.007812c0-48.601562-48-64-48-64s-48 15.398438-48 64c0 33.519532 10.222656 90.054688 25.261719 112h45.472656c15.039062-21.945312 25.265625-78.480468 25.265625-112zm0 0" fill="#ffd946"/><path d="m200.011719 8.007812s-37.175781 12-46.074219 48h92.144531c-8.894531-36-46.070312-48-46.070312-48zm0 0" fill="#dc2027"/><path d="m208.011719 104.007812c0 4.417969-3.582031 8-8 8s-8-3.582031-8-8c0-4.421874 3.582031-8 8-8s8 3.578126 8 8zm0 0" fill="#2d87a1"/><path d="m208.011719 136.007812c0 4.417969-3.582031 8-8 8s-8-3.582031-8-8c0-4.421874 3.582031-8 8-8s8 3.578126 8 8zm0 0" fill="#2d87a1"/><path d="m192.25 294.070312-16 64c-.59375 2.390626-.058594 4.917969 1.457031 6.859376 1.515625 1.941406 3.839844 3.074218 6.304688 3.078124.65625-.003906 1.308593-.082031 1.941406-.242187l32-8c4.257813-1.097656 6.832031-5.425781 5.761719-9.691406-1.066406-4.261719-5.375-6.867188-9.648438-5.828125l-19.054687 4.800781 12.757812-51.074219c.769531-2.796875-.039062-5.792968-2.113281-7.824218-2.070312-2.035157-5.082031-2.785157-7.863281-1.964844-2.785157.824218-4.90625 3.085937-5.542969 5.917968zm0 0"/><path d="m161.972656 272.261719c-4.28125-1.085938-8.632812 1.503906-9.722656 5.785156-.0625.253906-6.832031 25.960937-24.238281 25.960937-17.410157 0-24.175781-25.707031-24.242188-25.960937-1.074219-4.285156-5.421875-6.890625-9.707031-5.8125-4.285156 1.074219-6.886719 5.421875-5.8125 9.707031.394531 1.558594 9.855469 38.066406 39.761719 38.066406 29.902343 0 39.367187-36.507812 39.757812-38.066406 1.0625-4.273437-1.53125-8.597656-5.796875-9.679687zm0 0"/><path d="m272.011719 320.007812c29.902343 0 39.367187-36.507812 39.757812-38.066406 1.078125-4.285156-1.523437-8.632812-5.8125-9.707031-4.285156-1.078125-8.628906 1.527344-9.707031 5.8125-.0625.253906-6.832031 25.960937-24.238281 25.960937-17.410157 0-24.175781-25.707031-24.242188-25.960937-1.074219-4.285156-5.421875-6.890625-9.707031-5.8125-4.285156 1.074219-6.886719 5.421875-5.8125 9.707031.394531 1.558594 9.855469 38.066406 39.761719 38.066406zm0 0"/><path d="m208.011719 104.007812c0 4.417969-3.582031 8-8 8s-8-3.582031-8-8c0-4.421874 3.582031-8 8-8s8 3.578126 8 8zm0 0"/><path d="m208.011719 136.007812c0 4.417969-3.582031 8-8 8s-8-3.582031-8-8c0-4.421874 3.582031-8 8-8s8 3.578126 8 8zm0 0"/><path d="m368.011719 232.972656v-48.964844c0-16.273437-26.953125-27.953124-80-34.777343v-13.222657c0-19.105468-24.351563-33.152343-33.601563-37.785156.976563-8.707031 1.511719-17.457031 1.601563-26.214844 0-43.066406-35.03125-65.675781-53.554688-71.617187-1.589843-.519531-3.304687-.519531-4.894531 0-18.519531 5.941406-53.550781 28.550781-53.550781 71.617187.085937 8.757813.621093 17.507813 1.597656 26.214844-9.246094 4.632813-33.597656 18.679688-33.597656 37.785156v13.222657c-53.050781 6.824219-80 18.503906-80 34.777343v48.964844c-18.234375 4.464844-32.0000002 23.832032-32.0000002 47.035156 0 23.503907 14.1601562 43.070313 32.8007812 47.199219 7.808594 86.53125 80.34375 152.816407 167.230469 152.816407s159.421875-66.285157 167.230469-152.816407c18.578124-4.128906 32.738281-23.695312 32.738281-47.199219 0-23.203124-13.769531-42.570312-32-47.035156zm-336 77.066406c-10.535157-6.226562-16.710938-17.816406-16-30.03125-.710938-12.21875 5.464843-23.808593 16-30.035156zm240-174.03125v40h-35.898438c7.875-19.503906 13.289063-39.90625 16.121094-60.746093 9.671875 5.6875 19.777344 14.0625 19.777344 20.746093zm-72-119.464843c14.945312 6.027343 27.261719 17.183593 34.734375 31.464843h-69.550782c7.417969-14.355468 19.789063-25.53125 34.816407-31.464843zm-39.425781 47.464843h78.839843c.375 2.648438.570313 5.320313.585938 8 0 31.78125-9.328125 82.0625-21.703125 104h-36.59375c-12.375-21.9375-21.703125-72.21875-21.703125-104 .011719-2.679687.203125-5.351562.574219-8zm-32.574219 72c0-6.683593 10.101562-15.058593 19.773437-20.746093 2.832032 20.839843 8.246094 41.242187 16.121094 60.746093h-35.894531zm224 176c0 83.945313-68.054688 152-152 152-83.949219 0-152-68.054687-152-152v-109.105468c40.871093 20.792968 146.472656 21.105468 152 21.105468 5.527343 0 111.128906-.3125 152-21.105468zm-152-104c-94.402344 0-148.183594-15.539062-152-23.546874v-.167969c1.445312-3.101563 16.117187-12.535157 64-18.941407v18.65625c0 4.417969 3.582031 8 8 8h160c4.417969 0 8-3.582031 8-8v-18.65625c48.320312 6.460938 62.839843 16 64.054687 18.269532-3.535156 8.753906-57.367187 24.386718-152.054687 24.386718zm168 102.03125v-60.066406c10.535156 6.226563 16.710937 17.816406 16 30.035156.710937 12.214844-5.464844 23.804688-16 30.03125zm0 0"/></svg>