<svg height="480pt" viewBox="-40 0 480 480.02387" width="480pt" xmlns="http://www.w3.org/2000/svg"><path d="m344.011719 320.007812h16c17.671875 0 32-17.910156 32-40 0-22.085937-14.328125-40-32-40h-16zm0 0" fill="#ccac9b"/><path d="m56.011719 320.007812h-16c-17.671875 0-32-17.910156-32-40 0-22.085937 14.328125-40 32-40h16zm0 0" fill="#ccac9b"/><path d="m40.011719 184.007812h320v128c0 88.367188-71.632813 160-160 160-88.367188 0-160-71.632812-160-160zm0 0" fill="#f5d7ca"/><path d="m360.011719 184.007812c0-17.671874-71.632813-32-160-32-88.367188 0-160 14.328126-160 32 0 17.671876 71.632812 32 160 32 88.367187 0 160-14.328124 160-32zm0 0" fill="#b9a095"/><g fill="#a8887a"><path d="m184.011719 368.007812c-2.460938 0-4.785157-1.136718-6.300781-3.074218-1.515626-1.941406-2.054688-4.472656-1.460938-6.863282l16-64c.640625-2.828124 2.761719-5.09375 5.542969-5.914062 2.785156-.820312 5.792969-.070312 7.867187 1.960938 2.070313 2.03125 2.878906 5.027343 2.113282 7.828124l-12.761719 51.070313 19.054687-4.800781c4.273438-1.035156 8.582032 1.566406 9.648438 5.832031 1.070312 4.261719-1.503906 8.589844-5.757813 9.6875l-32 8c-.636719.171875-1.289062.261719-1.945312.273437zm0 0"/><path d="m128.011719 320.007812c-29.902344 0-39.367188-36.503906-39.761719-38.0625-1.074219-4.285156 1.527344-8.632812 5.8125-9.710937 4.289062-1.074219 8.632812 1.527344 9.710938 5.8125.0625.257813 6.832031 25.960937 24.238281 25.960937 17.410156 0 24.175781-25.703124 24.238281-25.960937 1.078125-4.285156 5.425781-6.886719 9.710938-5.8125 4.285156 1.078125 6.886718 5.425781 5.8125 9.710937-.394532 1.558594-9.859376 38.0625-39.761719 38.0625zm0 0"/><path d="m272.011719 320.007812c-29.902344 0-39.367188-36.503906-39.761719-38.0625-1.074219-4.285156 1.527344-8.632812 5.8125-9.710937 4.289062-1.074219 8.632812 1.527344 9.710938 5.8125.0625.257813 6.832031 25.960937 24.238281 25.960937 17.410156 0 24.175781-25.703124 24.238281-25.960937 1.078125-4.285156 5.425781-6.886719 9.710938-5.8125 4.285156 1.078125 6.886718 5.425781 5.8125 9.710937-.394532 1.558594-9.859376 38.0625-39.761719 38.0625zm0 0"/></g><path d="m128.011719 360.007812c0 13.253907-10.746094 24-24 24-13.253907 0-24-10.746093-24-24 0-13.253906 10.746093-24 24-24 13.253906 0 24 10.746094 24 24zm0 0" fill="#fdb5a6"/><path d="m320.011719 360.007812c0 13.253907-10.746094 24-24 24-13.253907 0-24-10.746093-24-24 0-13.253906 10.746093-24 24-24 13.253906 0 24 10.746094 24 24zm0 0" fill="#fdb5a6"/><path d="m176.011719 184.007812-48-16v-160l48 16zm0 0" fill="#09b197"/><path d="m272.011719 184.007812-48-16v-160l48 16zm0 0" fill="#3ac1ac"/><path d="m224.011719 8.007812-48 16v160l48-16zm0 0" fill="#078571"/><path d="m192.25 294.070312-16 64c-.59375 2.390626-.054688 4.921876 1.460938 6.863282 1.515624 1.9375 3.839843 3.074218 6.300781 3.074218.65625 0 1.308593-.082031 1.945312-.238281l32-8c4.253907-1.101562 6.828125-5.425781 5.757813-9.691406-1.066406-4.265625-5.375-6.867187-9.648438-5.828125l-19.054687 4.796875 12.761719-51.070313c.765624-2.800781-.042969-5.792968-2.113282-7.828124-2.074218-2.03125-5.082031-2.78125-7.867187-1.960938-2.78125.820312-4.902344 3.085938-5.542969 5.917969zm0 0"/><path d="m161.972656 272.265625c-4.28125-1.085937-8.632812 1.503906-9.722656 5.78125-.0625.257813-6.828125 25.960937-24.238281 25.960937-17.40625 0-24.175781-25.703124-24.238281-25.960937-1.078126-4.285156-5.421876-6.886719-9.710938-5.8125-4.285156 1.078125-6.886719 5.425781-5.8125 9.710937.394531 1.558594 9.859375 38.0625 39.761719 38.0625 29.902343 0 39.367187-36.503906 39.761719-38.0625 1.058593-4.273437-1.535157-8.601562-5.800782-9.679687zm0 0"/><path d="m272.011719 320.007812c29.902343 0 39.367187-36.503906 39.761719-38.0625 1.074218-4.285156-1.527344-8.632812-5.8125-9.710937-4.285157-1.074219-8.632813 1.527344-9.710938 5.8125-.0625.257813-6.828125 25.960937-24.238281 25.960937-17.40625 0-24.175781-25.703124-24.238281-25.960937-1.078126-4.285156-5.421876-6.886719-9.710938-5.8125-4.285156 1.078125-6.886719 5.425781-5.8125 9.710937.394531 1.558594 9.859375 38.0625 39.761719 38.0625zm0 0"/><path d="m368.011719 232.976562v-48.96875c0-17.167968-29.648438-29.175781-88-35.75v-124.25c-.003907-3.441406-2.207031-6.496093-5.472657-7.582031l-48-16c-.183593-.066406-.375-.074219-.558593-.121093-.347657-.097657-.699219-.171876-1.054688-.2226568-.613281-.0429687-1.222656-.0429687-1.832031 0-.363281.0468748-.722656.1249998-1.074219.2304688-.179687.023438-.359375.0625-.535156.113281l-45.472656 15.148438-45.472657-15.148438c-2.433593-.832031-5.121093-.425781-7.199218 1.085938-2.089844 1.503906-3.328125 3.921875-3.328125 6.496093v140.25c-58.351563 6.574219-88 18.582032-88 35.75v48.96875c-18.230469 4.464844-32.0000002 23.832032-32.0000002 47.03125 0 23.503907 14.1601562 43.074219 32.8007812 47.199219 7.8125 86.535157 80.347656 152.816407 167.230469 152.816407 86.886719 0 159.421875-66.28125 167.234375-152.816407 18.574218-4.125 32.734375-23.695312 32.734375-47.199219 0-23.199218-13.769531-42.566406-32-47.03125zm-336 77.0625c-10.535157-6.222656-16.710938-17.8125-16-30.03125-.710938-12.214843 5.464843-23.804687 16-30.03125zm200-290.925781 32 10.664063v143.125l-32-10.664063zm-48 10.664063 32-10.664063v143.125l-32 10.664063zm-48-10.664063 32 10.664063v143.125l-32-10.664063zm216 292.894531c0 83.949219-68.050781 152-152 152-83.945313 0-152-68.050781-152-152v-109.105468c40.871093 20.792968 146.472656 21.105468 152 21.105468 5.527343 0 111.128906-.3125 152-21.105468zm-152-104c-94.398438 0-148.183594-15.535156-152-23.542968v-.167969c1.902343-4.183594 21.878906-14.039063 72-19.9375v3.648437c.003906 3.441407 2.207031 6.496094 5.472656 7.585938l48 16c1.617187.542969 3.371094.542969 4.992187 0l45.535157-15.152344 45.472656 15.152344c.8125.273438 1.667969.414062 2.527344.414062 4.417969 0 8-3.582031 8-8v-19.648437c50.464843 5.929687 70.398437 15.855469 72.054687 19.265625-3.535156 8.75-57.367187 24.382812-152.054687 24.382812zm168 102.03125v-60.0625c10.535156 6.226563 16.710937 17.816407 16 30.03125.710937 12.21875-5.464844 23.808594-16 30.03125zm0 0"/></svg>