<svg height="480pt" viewBox="-40 0 480 480.03295" width="480pt" xmlns="http://www.w3.org/2000/svg"><path d="m344.015625 320.015625h16c17.671875 0 32-17.910156 32-40 0-22.085937-14.328125-40-32-40h-16zm0 0" fill="#ccac9b"/><path d="m56.015625 320.015625h-16c-17.671875 0-32-17.910156-32-40 0-22.085937 14.328125-40 32-40h16zm0 0" fill="#ccac9b"/><path d="m40.015625 184.015625h320v128c0 88.367187-71.632813 160-160 160-88.363281 0-160-71.632813-160-160zm0 0" fill="#f5d7ca"/><path d="m360.015625 184.015625c0-17.671875-71.632813-32-160-32-88.363281 0-160 14.328125-160 32 0 17.675781 71.636719 32 160 32 88.367187 0 160-14.324219 160-32zm0 0" fill="#b9a095"/><g fill="#a8887a"><path d="m184.015625 368.015625c-2.460937 0-4.785156-1.132813-6.300781-3.074219s-2.054688-4.472656-1.457032-6.859375l16-64c.636719-2.832031 2.757813-5.097656 5.539063-5.917969 2.785156-.820312 5.796875-.070312 7.867187 1.960938 2.070313 2.035156 2.878907 5.027344 2.113282 7.828125l-12.761719 51.070313 19.058594-4.796876c4.269531-1.039062 8.578125 1.5625 9.648437 5.828126 1.066406 4.265624-1.503906 8.59375-5.761718 9.691406l-32 8c-.636719.167968-1.289063.261718-1.945313.269531zm0 0"/><path d="m128.015625 320.015625c-29.902344 0-39.367187-36.503906-39.757813-38.0625-1.078124-4.285156 1.523438-8.632813 5.8125-9.707031 4.285157-1.078125 8.628907 1.527344 9.707032 5.8125.0625.253906 6.832031 25.957031 24.238281 25.957031 17.410156 0 24.175781-25.703125 24.242187-25.957031 1.074219-4.285156 5.421876-6.890625 9.707032-5.8125 4.285156 1.074218 6.886718 5.421875 5.8125 9.707031-.394532 1.558594-9.855469 38.0625-39.761719 38.0625zm0 0"/><path d="m272.015625 320.015625c-29.902344 0-39.367187-36.503906-39.757813-38.0625-1.078124-4.285156 1.523438-8.632813 5.8125-9.707031 4.285157-1.078125 8.628907 1.527344 9.707032 5.8125.0625.253906 6.832031 25.957031 24.238281 25.957031 17.410156 0 24.175781-25.703125 24.242187-25.957031 1.074219-4.285156 5.421876-6.890625 9.707032-5.8125 4.285156 1.074218 6.886718 5.421875 5.8125 9.707031-.394532 1.558594-9.855469 38.0625-39.761719 38.0625zm0 0"/></g><path d="m128.015625 360.015625c0 13.257813-10.746094 24-24 24s-24-10.742187-24-24c0-13.253906 10.746094-24 24-24s24 10.746094 24 24zm0 0" fill="#fdb5a6"/><path d="m320.015625 360.015625c0 13.257813-10.746094 24-24 24s-24-10.742187-24-24c0-13.253906 10.746094-24 24-24s24 10.746094 24 24zm0 0" fill="#fdb5a6"/><path d="m288.015625 96.015625c0 48.601563-39.398437 88-88 88s-88-39.398437-88-88c0-48.597656 39.398437-88 88-88s88 39.402344 88 88zm0 0" fill="#d0dad9"/><path d="m112.015625 96.015625c-.015625 22.949219 8.964844 44.988281 25.015625 61.386719 15.199219-16.789063 23.421875-38.742188 22.984375-61.386719.4375-22.640625-7.785156-44.59375-22.984375-61.382813-16.050781 16.398438-25.03125 38.4375-25.015625 61.382813zm0 0" fill="#81b7c7"/><path d="m240.015625 96.015625c-.433594 22.644531 7.785156 44.597656 22.984375 61.386719 33.355469-34.125 33.355469-88.644532 0-122.769532-15.199219 16.789063-23.417969 38.742188-22.984375 61.382813zm0 0" fill="#81b7c7"/><path d="m192.257812 294.082031-16 64c-.679687 2.722657.121094 5.605469 2.105469 7.589844s4.863281 2.785156 7.589844 2.105469l32-8c2.832031-.636719 5.09375-2.757813 5.917969-5.542969.820312-2.78125.070312-5.792969-1.964844-7.863281-2.03125-2.074219-5.027344-2.882813-7.824219-2.113282l-19.074219 4.800782 12.800782-51.074219c.765625-2.796875-.042969-5.792969-2.113282-7.824219-2.070312-2.035156-5.082031-2.785156-7.867187-1.964844-2.78125.820313-4.902344 3.085938-5.539063 5.917969zm0 0"/><path d="m161.976562 272.273438c-4.28125-1.085938-8.632812 1.503906-9.71875 5.785156-.066406.253906-6.832031 25.957031-24.242187 25.957031-17.40625 0-24.175781-25.703125-24.238281-25.957031-1.078125-4.285156-5.421875-6.890625-9.707032-5.8125-4.289062 1.074218-6.890624 5.421875-5.8125 9.707031.382813 1.558594 9.855469 38.0625 39.757813 38.0625 29.90625 0 39.375-36.503906 39.761719-38.0625 1.058594-4.273437-1.535156-8.597656-5.800782-9.679687zm0 0"/><path d="m272.015625 320.015625c29.90625 0 39.375-36.503906 39.761719-38.0625 1.074218-4.285156-1.527344-8.632813-5.8125-9.707031-4.285156-1.078125-8.632813 1.527344-9.707032 5.8125-.066406.253906-6.832031 25.957031-24.242187 25.957031-17.40625 0-24.175781-25.703125-24.238281-25.957031-1.078125-4.285156-5.421875-6.890625-9.707032-5.8125-4.289062 1.074218-6.890624 5.421875-5.8125 9.707031.382813 1.558594 9.855469 38.0625 39.757813 38.0625zm0 0"/><path d="m368.015625 232.984375v-48.96875c0-20.796875-44.496094-30.855469-87.511719-35.710937.863282-1.328126 1.601563-2.71875 2.402344-4.078126.566406-.984374 1.191406-1.9375 1.726562-2.945312.984376-1.824219 1.839844-3.710938 2.703126-5.601562.417968-.917969.886718-1.804688 1.273437-2.742188.800781-1.960938 1.503906-3.960938 2.191406-5.96875.320313-.945312.695313-1.855469.992188-2.816406.617187-2.023438 1.101562-4.085938 1.597656-6.160156.242187-.992188.539063-1.96875.738281-2.976563.429688-2.160156.71875-4.351563 1-6.542969.128906-.960937.320313-1.886718.414063-2.855468.652343-6.382813.652343-12.816407 0-19.199219-.09375-.96875-.285157-1.898438-.414063-2.855469-.28125-2.191406-.570312-4.386719-1-6.546875-.199218-1.007813-.496094-1.980469-.738281-2.972656-.476563-2.074219-.964844-4.136719-1.597656-6.160157-.296875-.960937-.671875-1.875-.992188-2.816406-.6875-2.007812-1.367187-4-2.191406-5.96875-.386719-.9375-.855469-1.824218-1.273437-2.746094-.863282-1.886718-1.71875-3.773437-2.703126-5.597656-.535156-1.007812-1.160156-1.960937-1.726562-2.945312-.96875-1.65625-1.921875-3.3125-2.992188-4.917969-.800781-1.152344-1.601562-2.25-2.449218-3.371094-.984375-1.335937-1.9375-2.695312-2.984375-4-1.046875-1.300781-2.207031-2.519531-3.328125-3.757812-.800782-.90625-1.601563-1.855469-2.398438-2.738281-.050781-.046876-.121094-.0625-.167968-.109376-17.988282-18.457031-42.65625-28.8789058-68.425782-28.914062-25.769531-.0351562-50.46875 10.324219-68.503906 28.730469-.105469.101562-.222656.191406-.328125.292969-.855469.882812-1.601563 1.832031-2.398437 2.738281-1.121094 1.238281-2.265626 2.457031-3.328126 3.757812-1.066406 1.304688-2 2.648438-2.984374 4-.800782 1.121094-1.671876 2.21875-2.449219 3.371094-1.070313 1.597656-2.023438 3.261719-2.992188 4.917969-.566406.984375-1.191406 1.9375-1.726562 2.945312-.984375 1.824219-1.839844 3.710938-2.703125 5.597656-.417969.921876-.890625 1.808594-1.273438 2.746094-.800781 1.960938-1.503906 4-2.191406 5.96875-.320312.941406-.695312 1.855469-.992188 2.816406-.617187 2.023438-1.105468 4.085938-1.601562 6.160157-.238281.992187-.535156 1.964843-.734375 2.972656-.433594 2.160156-.71875 4.355469-1 6.546875-.128906.957031-.320313 1.886719-.417969 2.855469-.648437 6.382812-.648437 12.816406 0 19.199219.097656.96875.289063 1.894531.417969 2.855468.28125 2.191406.566406 4.382813 1 6.542969.199219 1.007813.496094 1.984375.734375 2.976563.480469 2.074218.96875 4.136718 1.601562 6.160156.296876.960937.671876 1.871094.992188 2.816406.6875 2.007812 1.367188 4 2.191406 5.96875.382813.9375.855469 1.824219 1.273438 2.742188.863281 1.890624 1.71875 3.777343 2.703125 5.601562.535156 1.007812 1.160156 1.960938 1.726562 2.945312.800781 1.359376 1.535157 2.75 2.402344 4.078126-43.066406 4.855468-87.5625 14.914062-87.5625 35.710937v48.96875c-18.230469 4.464844-32 23.832031-32 47.03125 0 23.503906 14.160156 43.074219 32.800781 47.203125 7.8125 86.53125 80.347656 152.8125 167.230469 152.8125 86.886719 0 159.421875-66.28125 167.234375-152.8125 18.574219-4.128906 32.734375-23.699219 32.734375-47.203125 0-23.199219-13.765625-42.566406-32-47.03125zm-336 77.066406c-10.535156-6.226562-16.710937-17.816406-16-30.035156-.710937-12.214844 5.464844-23.804687 16-30.03125zm231.074219-263.066406c.726562.9375 1.4375 1.871094 2.125 2.839844.457031.640625.9375 1.265625 1.378906 1.921875 2.710938 4.058594 5.046875 8.359375 6.976562 12.847656.207032.480469.375.976562.574219 1.464844.710938 1.757812 1.375 3.550781 1.96875 5.375.230469.71875.4375 1.457031.65625 2.183594.472657 1.601562.902344 3.289062 1.269531 4.960937.183594.800781.363282 1.597656.519532 2.445313.320312 1.707031.578125 3.441406.800781 5.179687.089844.796875.210937 1.511719.28125 2.269531.230469 2.488282.382813 5 .382813 7.542969 0 2.546875-.152344 5.058594-.382813 7.546875-.070313.796875-.191406 1.511719-.28125 2.269531-.214844 1.738281-.472656 3.472657-.800781 5.175781-.15625.800782-.335938 1.601563-.519532 2.449219-.367187 1.671875-.796874 3.328125-1.269531 4.960938-.21875.726562-.425781 1.464843-.65625 2.183593-.59375 1.824219-1.257812 3.617188-1.976562 5.382813-.191407.480469-.359375.976563-.566407 1.457031-1.929687 4.488282-4.265624 8.789063-6.976562 12.847656-.441406.65625-.921875 1.28125-1.378906 1.921876-.6875.964843-1.398438 1.902343-2.125 2.839843-3.277344-4.554687-6.027344-9.464843-8.203125-14.632812l5.601562-3.710938c3.675781-2.453125 4.667969-7.421875 2.214844-11.097656-2.449219-3.675781-7.417969-4.667969-11.09375-2.214844l-1.601563 1.09375c-.71875-3.433593-1.230468-6.90625-1.535156-10.398437h7.542969c4.417969 0 8-3.582032 8-8 0-4.417969-3.582031-8-8-8h-7.613281c.300781-3.496094.816406-6.96875 1.535156-10.402344l1.597656 1.097656c3.675782 2.453125 8.644532 1.460938 11.097656-2.214844 2.453126-3.675781 1.460938-8.644531-2.214843-11.097656l-5.601563-3.710937c2.1875-5.222657 4.960938-10.179688 8.273438-14.777344zm-63.074219-30.96875c19.050781 0 37.46875 6.828125 51.914063 19.25-4.15625 5.378906-7.683594 11.21875-10.511719 17.398437l-4.960938-3.304687c-3.675781-2.449219-8.644531-1.457031-11.097656 2.21875-2.449219 3.675781-1.457031 8.644531 2.21875 11.09375l8.148437 5.433594c-1.753906 6.515625-2.878906 13.183593-3.359374 19.910156h-8.351563c-4.417969 0-8 3.582031-8 8s3.582031 8 8 8h8.351563c.480468 6.730469 1.605468 13.398437 3.359374 19.914063l-8.148437 5.429687c-3.675781 2.453125-4.667969 7.421875-2.21875 11.097656 2.453125 3.675781 7.421875 4.667969 11.097656 2.214844l4.960938-3.300781c2.828125 6.179687 6.355469 12.019531 10.511719 17.398437-29.851563 25.664063-73.976563 25.664063-103.824219 0 4.15625-5.378906 7.683593-11.21875 10.511719-17.398437l4.960937 3.300781c3.675781 2.453125 8.640625 1.460937 11.09375-2.214844s1.460937-8.644531-2.214844-11.097656l-8.152343-5.429687c1.753906-6.515626 2.878906-13.183594 3.359374-19.914063h8.351563c4.417969 0 8-3.582031 8-8s-3.582031-8-8-8h-8.351563c-.480468-6.726563-1.605468-13.394531-3.359374-19.910156l8.152343-5.433594c3.675781-2.449219 4.667969-7.417969 2.214844-11.09375s-7.417969-4.667969-11.09375-2.21875l-4.960937 3.304687c-2.828126-6.179687-6.355469-12.019531-10.511719-17.398437 14.441406-12.421875 32.863281-19.25 51.910156-19.25zm-79.613281 72.457031c.070312-.800781.191406-1.511718.277344-2.269531.214843-1.738281.472656-3.472656.800781-5.179687.160156-.796876.335937-1.597657.519531-2.445313.367188-1.671875.800781-3.328125 1.273438-4.960937.214843-.726563.421874-1.464844.65625-2.183594.589843-1.832032 1.261718-3.625 1.976562-5.390625.199219-.480469.367188-.96875.566406-1.449219 1.929688-4.488281 4.261719-8.789062 6.976563-12.847656.4375-.65625.917969-1.28125 1.375-1.921875.6875-.96875 1.398437-1.902344 2.128906-2.839844 3.273437 4.554687 6.019531 9.460937 8.191406 14.632813l-5.601562 3.710937c-3.675781 2.453125-4.667969 7.421875-2.214844 11.097656s7.421875 4.667969 11.097656 2.214844l1.640625-1.09375c.71875 3.429687 1.230469 6.902344 1.535156 10.398437h-7.585937c-4.417969 0-8 3.582032-8 8 0 4.417969 3.582031 8 8 8h7.617187c-.304687 3.496094-.816406 6.96875-1.535156 10.398438l-1.640625-1.09375c-3.675781-2.453125-8.644531-1.460938-11.097656 2.214844-2.449219 3.675781-1.457031 8.644531 2.21875 11.097656l5.597656 3.710938c-2.171875 5.179687-4.921875 10.101562-8.199219 14.664062-.726562-.9375-1.441406-1.871094-2.128906-2.839844-.457031-.640625-.933594-1.265625-1.375-1.921875-2.714844-4.0625-5.046875-8.363281-6.976562-12.855469-.199219-.472656-.367188-.960937-.558594-1.429687-.722656-1.777344-1.394531-3.570313-1.984375-5.402344-.234375-.726562-.441406-1.453125-.65625-2.183593-.472656-1.597657-.90625-3.289063-1.273437-4.960938-.183594-.796875-.359376-1.597656-.519532-2.445312-.320312-1.707032-.574218-3.441407-.800781-5.175782-.085937-.800781-.207031-1.511718-.277344-2.273437-.257812-2.375-.410156-4.886719-.410156-7.433594 0-2.542969.152344-5.054687.386719-7.542969zm231.613281 223.542969c0 83.949219-68.050781 152-152 152-83.945313 0-152-68.050781-152-152v-109.101563c40.871094 20.792969 146.472656 21.101563 152 21.101563s111.128906-.308594 152-21.101563zm-152-104c-94.398437 0-148.207031-15.542969-152-23.542969v-.160156c2.082031-4.640625 25.128906-15.542969 83.496094-21.160156 18.015625 18.457031 42.714843 28.867187 68.503906 28.867187 25.792969 0 50.492187-10.410156 68.503906-28.867187 58.703125 5.648437 81.695313 16.625 83.554688 20.480468-3.539063 8.753907-57.363281 24.382813-152.058594 24.382813zm168 102.035156v-60.066406c10.535156 6.226563 16.710937 17.816406 16 30.03125.710937 12.21875-5.464844 23.808594-16 30.035156zm0 0"/></svg>