<svg height="480pt" viewBox="-40 0 480 480.02364" width="480pt" xmlns="http://www.w3.org/2000/svg"><path d="m344.011719 320.007812h16c17.671875 0 32-17.910156 32-40 0-22.085937-14.328125-40-32-40h-16zm0 0" fill="#ccac9b"/><path d="m56.011719 320.007812h-16c-17.671875 0-32-17.910156-32-40 0-22.085937 14.328125-40 32-40h16zm0 0" fill="#ccac9b"/><path d="m40.011719 184.007812h320v128c0 88.367188-71.632813 160-160 160-88.367188 0-160-71.632812-160-160zm0 0" fill="#f5d7ca"/><path d="m360.011719 184.007812c0-17.671874-71.632813-32-160-32-88.367188 0-160 14.328126-160 32 0 17.671876 71.632812 32 160 32 88.367187 0 160-14.328124 160-32zm0 0" fill="#b9a095"/><g fill="#a8887a"><path d="m184.011719 368.007812c-2.460938 0-4.785157-1.136718-6.300781-3.074218-1.515626-1.941406-2.054688-4.472656-1.460938-6.863282l16-64c.640625-2.828124 2.757812-5.09375 5.542969-5.914062 2.785156-.824219 5.792969-.070312 7.867187 1.960938 2.070313 2.03125 2.878906 5.027343 2.113282 7.828124l-12.761719 51.070313 19.054687-4.800781c4.273438-1.035156 8.582032 1.566406 9.648438 5.832031 1.070312 4.261719-1.503906 8.589844-5.757813 9.6875l-32 8c-.636719.171875-1.289062.261719-1.945312.273437zm0 0"/><path d="m128.011719 320.007812c-29.902344 0-39.367188-36.503906-39.761719-38.0625-1.074219-4.289062 1.527344-8.632812 5.8125-9.710937 4.285156-1.074219 8.632812 1.527344 9.710938 5.8125.0625.257813 6.832031 25.960937 24.238281 25.960937s24.175781-25.703124 24.238281-25.960937c1.078125-4.285156 5.425781-6.886719 9.710938-5.8125 4.285156 1.078125 6.886718 5.421875 5.8125 9.710937-.394532 1.558594-9.859376 38.0625-39.761719 38.0625zm0 0"/><path d="m272.011719 320.007812c-29.902344 0-39.367188-36.503906-39.761719-38.0625-1.074219-4.289062 1.527344-8.632812 5.8125-9.710937 4.285156-1.074219 8.632812 1.527344 9.710938 5.8125.0625.257813 6.832031 25.960937 24.238281 25.960937s24.175781-25.703124 24.238281-25.960937c1.078125-4.285156 5.425781-6.886719 9.710938-5.8125 4.285156 1.078125 6.886718 5.421875 5.8125 9.710937-.394532 1.558594-9.859376 38.0625-39.761719 38.0625zm0 0"/></g><path d="m128.011719 360.007812c0 13.253907-10.746094 24-24 24-13.253907 0-24-10.746093-24-24 0-13.253906 10.746093-24 24-24 13.253906 0 24 10.746094 24 24zm0 0" fill="#fdb5a6"/><path d="m320.011719 360.007812c0 13.253907-10.746094 24-24 24-13.253907 0-24-10.746093-24-24 0-13.253906 10.746093-24 24-24 13.253906 0 24 10.746094 24 24zm0 0" fill="#fdb5a6"/><path d="m344.011719 320.007812h16c17.671875 0 32-17.910156 32-40 0-22.085937-14.328125-40-32-40h-16zm0 0" fill="#ccac9b"/><path d="m56.011719 320.007812h-16c-17.671875 0-32-17.910156-32-40 0-22.085937 14.328125-40 32-40h16zm0 0" fill="#ccac9b"/><path d="m40.011719 184.007812h320v128c0 88.367188-71.632813 160-160 160-88.367188 0-160-71.632812-160-160zm0 0" fill="#f5d7ca"/><path d="m360.011719 184.007812c0-17.671874-71.632813-32-160-32-88.367188 0-160 14.328126-160 32 0 17.671876 71.632812 32 160 32 88.367187 0 160-14.328124 160-32zm0 0" fill="#b9a095"/><path d="m184.011719 368.007812c-2.460938 0-4.785157-1.136718-6.300781-3.074218-1.515626-1.941406-2.054688-4.472656-1.460938-6.863282l16-64c.640625-2.828124 2.757812-5.09375 5.542969-5.914062 2.785156-.824219 5.792969-.070312 7.867187 1.960938 2.070313 2.03125 2.878906 5.027343 2.113282 7.828124l-12.761719 51.070313 19.054687-4.800781c4.273438-1.035156 8.582032 1.566406 9.648438 5.832031 1.070312 4.261719-1.503906 8.589844-5.757813 9.6875l-32 8c-.636719.171875-1.289062.261719-1.945312.273437zm0 0" fill="#a8887a"/><path d="m128.011719 320.007812c-29.902344 0-39.367188-36.503906-39.761719-38.0625-1.074219-4.289062 1.527344-8.632812 5.8125-9.710937 4.285156-1.074219 8.632812 1.527344 9.710938 5.8125.0625.257813 6.832031 25.960937 24.238281 25.960937s24.175781-25.703124 24.238281-25.960937c1.078125-4.285156 5.425781-6.886719 9.710938-5.8125 4.285156 1.078125 6.886718 5.421875 5.8125 9.710937-.394532 1.558594-9.859376 38.0625-39.761719 38.0625zm0 0" fill="#a8887a"/><path d="m272.011719 320.007812c-29.902344 0-39.367188-36.503906-39.761719-38.0625-1.074219-4.289062 1.527344-8.632812 5.8125-9.710937 4.285156-1.074219 8.632812 1.527344 9.710938 5.8125.0625.257813 6.832031 25.960937 24.238281 25.960937s24.175781-25.703124 24.238281-25.960937c1.078125-4.285156 5.425781-6.886719 9.710938-5.8125 4.285156 1.078125 6.886718 5.421875 5.8125 9.710937-.394532 1.558594-9.859376 38.0625-39.761719 38.0625zm0 0" fill="#a8887a"/><path d="m128.011719 360.007812c0 13.253907-10.746094 24-24 24-13.253907 0-24-10.746093-24-24 0-13.253906 10.746093-24 24-24 13.253906 0 24 10.746094 24 24zm0 0" fill="#fdb5a6"/><path d="m320.011719 360.007812c0 13.253907-10.746094 24-24 24-13.253907 0-24-10.746093-24-24 0-13.253906 10.746093-24 24-24 13.253906 0 24 10.746094 24 24zm0 0" fill="#fdb5a6"/><path d="m224.011719 56.007812 72 24 24-40-72-24" fill="#3cb4d7"/><path d="m176.011719 56.007812-72 24-24-40 72-24" fill="#3cb4d7"/><path d="m152.011719 192.007812c-2.824219-.003906-5.433594-1.492187-6.875-3.917968-1.4375-2.429688-1.492188-5.4375-.140625-7.914063l96-176c2.117187-3.878906 6.976562-5.308593 10.855468-3.191406 3.878907 2.117187 5.308594 6.976563 3.191407 10.855469l-96 176c-1.402344 2.574218-4.101563 4.171875-7.03125 4.167968zm0 0" fill="#d0dad9"/><path d="m248.011719 192.007812c-2.929688.003907-5.628907-1.59375-7.03125-4.167968l-96-176c-2.117188-3.878906-.6875-8.738282 3.191406-10.855469s8.738281-.6875 10.855469 3.191406l96 176c1.351562 2.476563 1.296875 5.484375-.140625 7.914063-1.441407 2.425781-4.050781 3.914062-6.875 3.917968zm0 0" fill="#d0dad9"/><path d="m192.25 294.070312-16 64c-.59375 2.390626-.054688 4.921876 1.460938 6.863282 1.515624 1.9375 3.839843 3.074218 6.300781 3.074218.65625 0 1.308593-.082031 1.945312-.238281l32-8c4.253907-1.101562 6.828125-5.425781 5.757813-9.691406-1.066406-4.265625-5.375-6.867187-9.648438-5.832031l-19.054687 4.800781 12.761719-51.070313c.765624-2.800781-.042969-5.792968-2.113282-7.828124-2.074218-2.03125-5.082031-2.78125-7.867187-1.960938-2.785157.820312-4.902344 3.085938-5.542969 5.917969zm0 0"/><path d="m161.972656 272.265625c-4.28125-1.085937-8.632812 1.5-9.722656 5.78125-.0625.257813-6.832031 25.960937-24.238281 25.960937s-24.175781-25.703124-24.238281-25.960937c-1.078126-4.285156-5.425782-6.886719-9.710938-5.8125-4.285156 1.078125-6.886719 5.421875-5.8125 9.710937.394531 1.558594 9.859375 38.0625 39.761719 38.0625 29.902343 0 39.367187-36.503906 39.761719-38.0625 1.058593-4.273437-1.535157-8.601562-5.800782-9.679687zm0 0"/><path d="m272.011719 320.007812c29.902343 0 39.367187-36.503906 39.761719-38.0625 1.074218-4.289062-1.527344-8.632812-5.8125-9.710937-4.285157-1.074219-8.632813 1.527344-9.710938 5.8125-.0625.257813-6.832031 25.960937-24.238281 25.960937s-24.175781-25.703124-24.238281-25.960937c-1.078126-4.285156-5.425782-6.886719-9.710938-5.8125-4.285156 1.078125-6.886719 5.421875-5.8125 9.710937.394531 1.558594 9.859375 38.0625 39.761719 38.0625zm0 0"/><path d="m368.011719 232.976562v-48.96875c0-28.335937-82.742188-36.601562-132.167969-39.007812l-26.71875-48.992188 16.863281-30.910156 67.496094 22.496094c3.550781 1.183594 7.453125-.257812 9.382813-3.464844l24-40c1.25-2.082031 1.484374-4.617187.644531-6.890625-.84375-2.277343-2.671875-4.046875-4.972657-4.8125l-66.96875-22.328125c1.042969-3.539062-.507812-7.320312-3.726562-9.113281-3.882812-2.117187-8.742188-.683594-10.855469 3.199219l-40.976562 75.121094-40.976563-75.128907c-2.113281-3.882812-6.972656-5.316406-10.855468-3.199219-3.21875 1.792969-4.769532 5.574219-3.726563 9.113282l-66.96875 22.335937c-2.300781.765625-4.128906 2.535157-4.972656 4.8125-.839844 2.273438-.605469 4.808594.644531 6.890625l24 40c1.929688 3.207032 5.832031 4.648438 9.382812 3.464844l67.496094-22.496094 16.863282 30.910156-26.71875 48.992188c-49.425782 2.40625-132.167969 10.671875-132.167969 39.007812v48.96875c-18.230469 4.464844-32.0000002 23.832032-32.0000002 47.03125 0 23.503907 14.1601562 43.070313 32.8007812 47.199219 7.8125 86.535157 80.347656 152.816407 167.230469 152.816407 86.886719 0 159.421875-66.28125 167.234375-152.816407 18.574218-4.128906 32.734375-23.695312 32.734375-47.199219 0-23.199218-13.769531-42.566406-32-47.03125zm-119.871094-208.496093 59.878906 20-15.566406 25.925781-58.6875-19.574219zm-140.570313 45.925781-15.558593-25.957031 59.878906-20 14.402344 26.351562zm-75.558593 239.632812c-10.535157-6.222656-16.710938-17.8125-16-30.03125-.710938-12.214843 5.464843-23.804687 16-30.03125zm168-197.328124 17.222656 31.578124c-9.566406-.28125-15.972656-.28125-17.222656-.28125-1.246094 0-7.65625 0-17.222657.28125zm-152 71.601562c3.199219-7.265625 40.753906-19.160156 107.28125-23.023438l-10.304688 18.886719c-2.117187 3.878907-.6875 8.738281 3.191407 10.855469 3.878906 2.117188 8.738281.6875 10.855468-3.191406l14.929688-27.375c8.34375-.273438 16.941406-.457032 26.046875-.457032s17.703125.183594 26.039062.449219l14.9375 27.382813c2.117188 3.878906 6.976563 5.308594 10.855469 3.191406s5.308594-6.976562 3.191406-10.855469l-10.3125-18.894531c65.601563 3.808594 103.097656 15.429688 107.199219 22.726562-4.949219 8.800782-58.589844 24-151.910156 24-94.398438 0-148.183594-15.535156-152-23.542968zm304 127.695312c0 83.949219-68.050781 152-152 152-83.945313 0-152-68.050781-152-152v-109.105468c40.871093 20.792968 146.472656 21.105468 152 21.105468 5.527343 0 111.128906-.3125 152-21.105468zm16-1.96875v-60.0625c10.535156 6.226563 16.710937 17.816407 16 30.03125.710937 12.21875-5.464844 23.808594-16 30.03125zm0 0"/></svg>