<svg height="480pt" viewBox="-40 0 480 480.01865" width="480pt" xmlns="http://www.w3.org/2000/svg"><path d="m344.007812 320.003906h16c17.671876 0 32-17.914062 32-40 0-22.089844-14.328124-40-32-40h-16zm0 0" fill="#ccac9b"/><path d="m56.007812 320.003906h-16c-17.671874 0-32-17.914062-32-40 0-22.089844 14.328126-40 32-40h16zm0 0" fill="#ccac9b"/><path d="m40.007812 184.003906h320v128c0 88.363282-71.632812 160-160 160-88.363281 0-160-71.636718-160-160zm0 0" fill="#f5d7ca"/><path d="m360.007812 184.003906c0-17.675781-71.632812-32-160-32-88.363281 0-160 14.324219-160 32 0 17.671875 71.636719 32 160 32 88.367188 0 160-14.328125 160-32zm0 0" fill="#b9a095"/><g fill="#a8887a"><path d="m184.007812 368.003906c-2.460937 0-4.785156-1.136718-6.300781-3.078125-1.515625-1.9375-2.054687-4.46875-1.457031-6.859375l16-64c.636719-2.832031 2.757812-5.09375 5.539062-5.917968 2.785157-.820313 5.796876-.070313 7.867188 1.964843 2.070312 2.03125 2.878906 5.027344 2.113281 7.824219l-12.761719 51.074219 19.058594-4.800781c4.269532-1.039063 8.578125 1.566406 9.648438 5.828124 1.066406 4.265626-1.503906 8.59375-5.761719 9.691407l-32 8c-.632813.167969-1.289063.261719-1.945313.273437zm0 0"/><path d="m128.007812 320.003906c-29.902343 0-39.367187-36.503906-39.757812-38.066406-1.078125-4.285156 1.527344-8.628906 5.8125-9.707031 4.285156-1.074219 8.632812 1.527343 9.707031 5.8125.0625.257812 6.832031 25.960937 24.238281 25.960937 17.410157 0 24.175782-25.703125 24.242188-25.960937 1.074219-4.285157 5.421875-6.886719 9.707031-5.8125 4.285157 1.078125 6.886719 5.421875 5.8125 9.707031-.390625 1.5625-9.855469 38.066406-39.761719 38.066406zm0 0"/><path d="m272.007812 320.003906c-29.902343 0-39.367187-36.503906-39.757812-38.066406-1.078125-4.285156 1.527344-8.628906 5.8125-9.707031 4.285156-1.074219 8.632812 1.527343 9.707031 5.8125.0625.257812 6.832031 25.960937 24.238281 25.960937 17.410157 0 24.175782-25.703125 24.242188-25.960937 1.074219-4.285157 5.421875-6.886719 9.707031-5.8125 4.285157 1.078125 6.886719 5.421875 5.8125 9.707031-.390625 1.5625-9.855469 38.066406-39.761719 38.066406zm0 0"/></g><path d="m128.007812 360.003906c0 13.253906-10.742187 24-24 24-13.253906 0-24-10.746094-24-24s10.746094-24 24-24c13.257813 0 24 10.746094 24 24zm0 0" fill="#fdb5a6"/><path d="m320.007812 360.003906c0 13.253906-10.742187 24-24 24-13.253906 0-24-10.746094-24-24s10.746094-24 24-24c13.257813 0 24 10.746094 24 24zm0 0" fill="#fdb5a6"/><path d="m280.007812 104.003906c0 44.183594-35.816406 80-80 80-44.179687 0-80-35.816406-80-80s35.820313-80 80-80c44.183594 0 80 35.816406 80 80zm0 0" fill="#dc2027"/><path d="m248.007812 104.003906c0 26.507813-21.488281 48-48 48-26.507812 0-48-21.492187-48-48 0-26.511718 21.492188-48 48-48 26.511719 0 48 21.488282 48 48zm0 0" fill="#ffd946"/><path d="m200.007812 128.003906c-13.253906 0-24-10.746094-24-24s10.746094-24 24-24c13.257813 0 24 10.746094 24 24s-10.742187 24-24 24zm0-32c-4.417968 0-8 3.582032-8 8 0 4.417969 3.582032 8 8 8 4.417969 0 8-3.582031 8-8 0-4.417968-3.582031-8-8-8zm0 0" fill="#4a2a26"/><path d="m360.007812 32.003906v-24l-40 16v32l24 16 40-16zm0 0" fill="#2d87a1"/><path d="m192.25 294.058594-16 64c-.683594 2.726562.113281 5.609375 2.101562 7.597656 1.984376 1.984375 4.867188 2.785156 7.59375 2.105469l32-8c2.832032-.636719 5.097657-2.757813 5.917969-5.539063.820313-2.785156.070313-5.796875-1.964843-7.867187-2.03125-2.070313-5.027344-2.878907-7.824219-2.113281l-19.074219 4.761718 12.800781-51.058594c1.039063-4.269531-1.566406-8.578124-5.828125-9.648437-4.265625-1.066406-8.59375 1.503906-9.691406 5.761719zm0 0"/><path d="m161.96875 272.257812c-4.28125-1.085937-8.632812 1.503907-9.71875 5.785157-.066406.265625-6.832031 25.960937-24.242188 25.960937-17.40625 0-24.175781-25.695312-24.238281-25.960937-1.078125-4.285157-5.425781-6.886719-9.710937-5.808594s-6.886719 5.425781-5.808594 9.710937c.382812 1.554688 9.855469 38.058594 39.757812 38.058594 29.90625 0 39.378907-36.503906 39.761719-38.058594 1.0625-4.273437-1.527343-8.605468-5.800781-9.6875zm0 0"/><path d="m272.007812 320.003906c29.90625 0 39.378907-36.503906 39.761719-38.058594 1.078125-4.285156-1.523437-8.632812-5.808593-9.710937-4.285157-1.078125-8.632813 1.523437-9.710938 5.808594-.066406.265625-6.832031 25.960937-24.242188 25.960937-17.40625 0-24.175781-25.695312-24.238281-25.960937-1.078125-4.285157-5.425781-6.886719-9.710937-5.808594s-6.886719 5.425781-5.808594 9.710937c.382812 1.554688 9.855469 38.058594 39.757812 38.058594zm0 0"/><path d="m399.394531 20.921875c-1.703125-4.078125-6.386719-6.003906-10.464843-4.304687l-20.921876 8.722656v-17.335938c.003907-2.65625-1.3125-5.136718-3.511718-6.625-2.195313-1.492187-4.988282-1.792968-7.453125-.808594l-40 16c-3.042969 1.214844-5.035157 4.160157-5.035157 7.433594v24.664063l-34.230468 14.261719c-14.832032-28.132813-43.703125-46.0625-75.496094-46.890626-31.792969-.824218-61.554688 15.582032-77.828125 42.910157-16.273437 27.324219-16.523437 61.308593-.652344 88.871093-44.289062 4.679688-91.792969 14.6875-91.792969 36.183594v48.96875c-18.230468 4.460938-31.9999995 23.832032-31.9999995 47.03125 0 23.503906 14.1601565 43.070313 32.8007815 47.199219 7.8125 86.535156 80.347656 152.816406 167.234375 152.816406 86.882812 0 159.417969-66.28125 167.230469-152.816406 18.574218-4.128906 32.734374-23.695313 32.734374-47.199219 0-23.199218-13.765624-42.570312-32-47.03125v-48.96875c0-21.496094-47.503906-31.503906-91.789062-36.183594 12.3125-21.253906 15.128906-46.707031 7.757812-70.136718l33.3125-13.878906 22.28125 14.855468c1.3125.875 2.859376 1.34375 4.4375 1.34375 1.019532 0 2.027344-.191406 2.96875-.570312l40-16c2.5-.996094 4.328126-3.183594 4.871094-5.820313.539063-2.632812-.28125-5.363281-2.183594-7.265625l-11.789062-11.792968 17.214844-7.199219c4.058594-1.703125 5.984375-6.363281 4.304687-10.433594zm-367.386719 289.113281c-10.535156-6.226562-16.707031-17.816406-16-30.03125-.707031-12.21875 5.464844-23.808594 16-30.03125zm336-60.0625c10.535157 6.222656 16.710938 17.8125 16 30.03125.710938 12.214844-5.464843 23.804688-16 30.03125zm-168-217.96875c26.164063.015625 50.261719 14.222656 62.9375 37.109375l-14.9375 6.21875c-15.210937-25.519531-47.5625-34.933593-74.09375-21.566406s-38.214843 44.96875-26.757812 72.378906c11.453125 27.410157 42.148438 41.304688 70.300781 31.820313 28.15625-9.484375 44.1875-39.121094 36.71875-67.875l14.898438-6.207032c8.660156 29.757813-2.695313 61.71875-28.1875 79.34375-25.496094 17.625-59.410157 16.957032-84.1875-1.65625-24.78125-18.613281-34.871094-51-25.042969-80.394531 9.824219-29.394531 37.359375-49.203125 68.351562-49.171875zm-24 72c0 13.253906 10.746094 24 24 24 13.257813 0 24-10.746094 24-24 0-.441406-.101562-.847656-.125-1.28125l15.351563-6.398437c3.9375 20.152343-8.027344 40.015625-27.683594 45.957031-19.65625 5.945312-40.617187-3.964844-48.507812-22.921875-7.886719-18.960937-.136719-40.8125 17.933593-50.566406 18.074219-9.753907 40.59375-4.238281 52.113282 12.761719l-15.359375 6.398437c-6.625-7.390625-17.128907-9.921875-26.394531-6.359375-9.265626 3.566406-15.363282 12.484375-15.328126 22.410156zm16.3125 1.527344c-.15625-.496094-.261718-1.007812-.3125-1.527344.054688.515625.160157 1.027344.3125 1.527344zm159.6875 206.472656c0 83.945313-68.050781 152-152 152-83.945312 0-152-68.054687-152-152v-109.105468c40.875 20.792968 146.472657 21.105468 152 21.105468 5.53125 0 111.128907-.3125 152-21.105468zm.058594-128.386718c-3.535156 8.753906-57.359375 24.386718-152.058594 24.386718-94.398437 0-148.207031-15.546875-152-23.546875v-.15625c2.121094-4.722656 25.945313-15.960937 86.738282-21.472656 16.613281 18.5625 40.347656 29.175781 65.261718 29.175781 24.914063 0 48.652344-10.613281 65.265626-29.175781 61.136718 5.542969 84.902343 16.871094 86.792968 20.789063zm-24.058594-154.199219 24-9.597657v12.183594l-24 10zm16.9375 33.601562-9.902343-6.617187 26.863281-11.199219 7.871094 7.871094zm0 0"/></svg>