<svg height="480pt" viewBox="-40 0 480 480.11514" width="480pt" xmlns="http://www.w3.org/2000/svg"><path d="m344.058594 320.097656h16c17.671875 0 32-17.910156 32-40 0-22.085937-14.328125-40-32-40h-16zm0 0" fill="#ccac9b"/><path d="m56.058594 320.097656h-16c-17.671875 0-32-17.910156-32-40 0-22.085937 14.328125-40 32-40h16zm0 0" fill="#ccac9b"/><path d="m40.058594 184.097656h320v128c0 88.367188-71.636719 160-160 160-88.367188 0-160-71.632812-160-160zm0 0" fill="#f5d7ca"/><path d="m360.058594 184.097656c0-17.671875-71.636719-32-160-32-88.367188 0-160 14.328125-160 32 0 17.675782 71.632812 32 160 32 88.363281 0 160-14.324218 160-32zm0 0" fill="#b9a095"/><g fill="#a8887a"><path d="m184.058594 368.097656c-2.464844 0-4.789063-1.132812-6.304688-3.074218-1.515625-1.941407-2.050781-4.472657-1.457031-6.859376l16-64c.636719-2.832031 2.757813-5.097656 5.542969-5.917968 2.78125-.820313 5.792968-.070313 7.863281 1.960937 2.074219 2.035157 2.882813 5.03125 2.113281 7.828125l-12.757812 51.074219 19.054687-4.800781c4.273438-1.039063 8.582031 1.566406 9.648438 5.828125 1.070312 4.265625-1.503907 8.59375-5.761719 9.691406l-32 8c-.632812.167969-1.285156.261719-1.941406.269531zm0 0"/><path d="m128.058594 320.097656c-29.90625 0-39.367188-36.503906-39.761719-38.0625-1.074219-4.285156 1.527344-8.632812 5.8125-9.707031 4.285156-1.078125 8.632813 1.527344 9.707031 5.8125.066406.253906 6.832032 25.957031 24.242188 25.957031 17.40625 0 24.175781-25.703125 24.238281-25.957031 1.078125-4.285156 5.421875-6.890625 9.707031-5.8125 4.289063 1.074219 6.890625 5.421875 5.8125 9.707031-.390625 1.558594-9.855468 38.0625-39.757812 38.0625zm0 0"/><path d="m272.058594 320.097656c-29.90625 0-39.367188-36.503906-39.761719-38.0625-1.074219-4.285156 1.527344-8.632812 5.8125-9.707031 4.285156-1.078125 8.632813 1.527344 9.707031 5.8125.066406.253906 6.832032 25.957031 24.242188 25.957031 17.40625 0 24.175781-25.703125 24.238281-25.957031 1.078125-4.285156 5.421875-6.890625 9.707031-5.8125 4.289063 1.074219 6.890625 5.421875 5.8125 9.707031-.390625 1.558594-9.855468 38.0625-39.757812 38.0625zm0 0"/></g><path d="m128.058594 360.097656c0 13.257813-10.746094 24-24 24s-24-10.742187-24-24c0-13.253906 10.746094-24 24-24s24 10.746094 24 24zm0 0" fill="#fdb5a6"/><path d="m320.058594 360.097656c0 13.257813-10.746094 24-24 24s-24-10.742187-24-24c0-13.253906 10.746094-24 24-24s24 10.746094 24 24zm0 0" fill="#fdb5a6"/><path d="m264.058594 176.097656h-16v-56h-96v56h-16c-4.417969 0-8 3.582032-8 8 0 4.421875 3.582031 8 8 8h128c4.417968 0 8-3.578125 8-8 0-4.417968-3.582032-8-8-8zm0 0" fill="#d0dad9"/><path d="m272.058594 80.097656c0 39.765625-32.238282 72-72 72-39.765625 0-72-32.234375-72-72 0-39.761718 32.234375-72 72-72 39.761718 0 72 32.238282 72 72zm0 0" fill="#9877b5"/><path d="m240.058594 80.097656s-17.914063 32-40 32c-22.089844 0-40-32-40-32s17.910156-32 40-32c22.085937 0 40 32 40 32zm0 0" fill="#ffd946"/><path d="m216.058594 80.097656c0-17.671875-7.164063-32-16-32-8.835938 0-16 14.328125-16 32 0 17.675782 7.164062 32 16 32 8.835937 0 16-14.324218 16-32zm0 0" fill="#81b7c7"/><path d="m208.058594 80.097656c0 4.421875-3.582032 8-8 8-4.417969 0-8-3.578125-8-8 0-4.417968 3.582031-8 8-8 4.417968 0 8 3.582032 8 8zm0 0" fill="#4a2a26"/><path d="m192.296875 294.164062-16 64c-.675781 2.722657.121094 5.605469 2.105469 7.589844 1.988281 1.984375 4.867187 2.785156 7.589844 2.105469l32-8c2.832031-.636719 5.097656-2.757813 5.917968-5.542969.820313-2.78125.070313-5.792968-1.960937-7.863281-2.035157-2.074219-5.027344-2.882813-7.828125-2.113281l-19.070313 4.800781 12.796875-51.074219c.769532-2.796875-.039062-5.792968-2.109375-7.824218-2.074219-2.035157-5.082031-2.785157-7.867187-1.964844-2.785156.824218-4.90625 3.085937-5.542969 5.917968zm0 0"/><path d="m162.015625 272.355469c-4.277344-1.085938-8.628906 1.503906-9.71875 5.785156-.0625.253906-6.832031 25.957031-24.238281 25.957031-17.410156 0-24.175782-25.703125-24.242188-25.957031-1.074218-4.285156-5.421875-6.890625-9.707031-5.8125-4.285156 1.074219-6.886719 5.421875-5.8125 9.707031.382813 1.558594 9.855469 38.0625 39.761719 38.0625 29.902344 0 39.375-36.503906 39.757812-38.0625 1.058594-4.273437-1.53125-8.597656-5.800781-9.679687zm0 0"/><path d="m272.058594 320.097656c29.902344 0 39.375-36.503906 39.757812-38.0625 1.078125-4.285156-1.523437-8.632812-5.8125-9.707031-4.285156-1.078125-8.628906 1.527344-9.707031 5.8125-.0625.253906-6.832031 25.957031-24.238281 25.957031-17.410156 0-24.175782-25.703125-24.242188-25.957031-1.074218-4.285156-5.421875-6.890625-9.707031-5.8125-4.285156 1.074219-6.886719 5.421875-5.8125 9.707031.382813 1.558594 9.855469 38.0625 39.761719 38.0625zm0 0"/><path d="m200.058594 120.097656c26.03125 0 44.910156-32.398437 46.984375-36.09375 1.355469-2.425781 1.355469-5.382812 0-7.808594-2.074219-3.695312-20.953125-36.097656-46.984375-36.097656s-44.914063 32.402344-46.984375 36.097656c-1.355469 2.425782-1.355469 5.382813 0 7.808594 2.070312 3.695313 20.953125 36.09375 46.984375 36.09375zm0-64c12.199218 0 24.589844 14.890625 30.605468 24-6.015624 9.113282-18.398437 24-30.605468 24-12.210938 0-24.59375-14.886718-30.609375-24 6.015625-9.109375 18.410156-24 30.609375-24zm0 0"/><path d="m208.058594 80.097656c0 4.421875-3.582032 8-8 8-4.417969 0-8-3.578125-8-8 0-4.417968 3.582031-8 8-8 4.417968 0 8 3.582032 8 8zm0 0"/><path d="m368.058594 233.066406v-48.96875c0-25.535156-66.976563-34.71875-112-38v-8.964844c23.210937-22.753906 30.347656-57.289062 18.0625-87.378906-12.289063-30.089844-41.5625-49.753906-74.0625-49.753906-32.503906 0-61.777344 19.664062-74.0625 49.753906-12.289063 30.089844-5.148438 64.625 18.0625 87.378906v8.964844c-45.023438 3.28125-112 12.464844-112 38v48.96875c-18.234375 4.464844-32.0000002 23.832032-32.0000002 47.03125 0 23.503906 14.1601562 43.074219 32.8007812 47.203125 7.808594 86.53125 80.34375 152.8125 167.230469 152.8125 86.886718 0 159.421875-66.28125 167.230468-152.8125 18.578126-4.128906 32.738282-23.699219 32.738282-47.203125 0-23.199218-13.769532-42.566406-32-47.03125zm-336 77.066406c-10.535156-6.226562-16.710938-17.816406-16-30.035156-.710938-12.214844 5.464844-23.804687 16-30.03125zm104-230.035156c0-35.34375 28.652344-64 64-64 35.34375 0 64 28.65625 64 64 0 35.347656-28.65625 64-64 64-35.332032-.039062-63.960938-28.667968-64-64zm104 69.179688v26.820312h-80v-26.820312c24.710937 14.429687 55.285156 14.429687 80 0zm112 162.820312c0 83.949219-68.054688 152-152 152-83.949219 0-152-68.050781-152-152v-109.101562c40.871094 20.792968 146.472656 21.101562 152 21.101562s111.128906-.308594 152-21.101562zm-152-104c-94.402344 0-148.210938-15.542968-152-23.542968v-.152344c2.269531-5.09375 29.480468-17.230469 96-22.230469v13.925781h-8c-4.417969 0-8 3.582032-8 8 0 4.421875 3.582031 8 8 8h128c4.417968 0 8-3.578125 8-8 0-4.417968-3.582032-8-8-8h-8v-13.933594c66.847656 5.03125 94.015625 17.238282 96.054687 21.550782-3.535156 8.753906-57.359375 24.382812-152.054687 24.382812zm168 102.035156v-60.066406c10.535156 6.226563 16.710937 17.816406 16 30.03125.710937 12.21875-5.464844 23.808594-16 30.035156zm0 0"/></svg>