<svg height="480pt" viewBox="-40 0 480 480.02786" width="480pt" xmlns="http://www.w3.org/2000/svg"><path d="m344.015625 320.011719h16c17.671875 0 32-17.910157 32-40 0-22.085938-14.328125-40-32-40h-16zm0 0" fill="#ccac9b"/><path d="m56.015625 320.011719h-16c-17.671875 0-32-17.910157-32-40 0-22.085938 14.328125-40 32-40h16zm0 0" fill="#ccac9b"/><path d="m40.015625 184.011719h320v128c0 88.367187-71.636719 160-160 160-88.367187 0-160-71.632813-160-160zm0 0" fill="#f5d7ca"/><path d="m360.015625 184.011719c0-17.671875-71.636719-32-160-32-88.367187 0-160 14.328125-160 32s71.632813 32 160 32c88.363281 0 160-14.328125 160-32zm0 0" fill="#b9a095"/><g fill="#a8887a"><path d="m184.015625 368.011719c-2.464844 0-4.789063-1.136719-6.304687-3.074219-1.515626-1.941406-2.054688-4.472656-1.457032-6.863281l16-64c.636719-2.828125 2.757813-5.09375 5.542969-5.914063 2.78125-.820312 5.792969-.070312 7.863281 1.960938 2.074219 2.03125 2.882813 5.027344 2.113282 7.828125l-12.757813 51.070312 19.054687-4.800781c4.269532-1.035156 8.582032 1.566406 9.648438 5.832031 1.066406 4.261719-1.503906 8.589844-5.761719 9.6875l-32 8c-.632812.171875-1.285156.261719-1.941406.273438zm0 0"/><path d="m128.015625 320.011719c-29.90625 0-39.371094-36.503907-39.761719-38.0625-1.074218-4.285157 1.527344-8.632813 5.8125-9.710938 4.285156-1.074219 8.632813 1.527344 9.707032 5.8125.066406.257813 6.832031 25.960938 24.242187 25.960938 17.40625 0 24.175781-25.703125 24.238281-25.960938 1.074219-4.285156 5.421875-6.886719 9.707032-5.8125 4.285156 1.078125 6.890624 5.425781 5.8125 9.710938-.390626 1.558593-9.855469 38.0625-39.757813 38.0625zm0 0"/><path d="m272.015625 320.011719c-29.90625 0-39.371094-36.503907-39.761719-38.0625-1.074218-4.285157 1.527344-8.632813 5.8125-9.710938 4.285156-1.074219 8.632813 1.527344 9.707032 5.8125.066406.257813 6.832031 25.960938 24.242187 25.960938 17.40625 0 24.175781-25.703125 24.238281-25.960938 1.074219-4.285156 5.421875-6.886719 9.707032-5.8125 4.285156 1.078125 6.890624 5.425781 5.8125 9.710938-.390626 1.558593-9.855469 38.0625-39.757813 38.0625zm0 0"/></g><path d="m128.015625 360.011719c0 13.253906-10.746094 24-24 24-13.257813 0-24-10.746094-24-24 0-13.253907 10.742187-24 24-24 13.253906 0 24 10.746093 24 24zm0 0" fill="#fdb5a6"/><path d="m320.015625 360.011719c0 13.253906-10.746094 24-24 24-13.257813 0-24-10.746094-24-24 0-13.253907 10.742187-24 24-24 13.253906 0 24 10.746093 24 24zm0 0" fill="#fdb5a6"/><path d="m176.015625 120.011719v-86.640625c.285156-13.113282-9.648437-24.203125-22.714844-25.359375-6.585937-.351563-13.023437 2.019531-17.808593 6.558593-4.78125 4.539063-7.488282 10.847657-7.476563 17.441407v88c0 35.347656 28.652344 64 64 64h32c35.34375 0 64-28.652344 64-64zm0 0" fill="#ccd9e0"/><path d="m304.015625 72.011719h-32c17.671875 0 32-14.328125 32-32h-64c-44.183594 0-80 35.816406-80 80 0 8.835937 7.160156 16 16 16h96c17.671875 0 32-14.328125 32-32h-32c17.671875 0 32-14.328125 32-32zm0 0" fill="#81b7c7"/><path d="m192.253906 294.074219-16 64c-.679687 2.726562.121094 5.605469 2.105469 7.59375 1.984375 1.984375 4.867187 2.78125 7.589844 2.105469l32-8c2.832031-.636719 5.097656-2.757813 5.917969-5.542969.820312-2.785157.070312-5.792969-1.960938-7.867188-2.035156-2.070312-5.03125-2.878906-7.828125-2.109375l-19.070313 4.796875 12.796876-51.070312c.769531-2.800781-.039063-5.792969-2.113282-7.828125-2.070312-2.03125-5.082031-2.78125-7.863281-1.960938-2.785156.820313-4.90625 3.085938-5.542969 5.917969zm0 0"/><path d="m161.972656 272.269531c-2.054687-.535156-4.242187-.226562-6.066406.859375-1.824219 1.089844-3.140625 2.859375-3.652344 4.921875-.0625.257813-6.832031 25.960938-24.238281 25.960938-17.410156 0-24.175781-25.703125-24.242187-25.960938-1.074219-4.285156-5.421876-6.886719-9.707032-5.8125-4.285156 1.078125-6.886718 5.425781-5.8125 9.710938.382813 1.558593 9.855469 38.0625 39.761719 38.0625 29.902344 0 39.375-36.503907 39.757813-38.0625 1.058593-4.273438-1.53125-8.601563-5.800782-9.679688zm0 0"/><path d="m272.015625 320.011719c29.902344 0 39.375-36.503907 39.757813-38.0625 1.078124-4.285157-1.527344-8.632813-5.8125-9.710938-4.285157-1.074219-8.632813 1.527344-9.707032 5.8125-.0625.257813-6.832031 25.960938-24.238281 25.960938-17.410156 0-24.175781-25.703125-24.242187-25.960938-1.074219-4.285156-5.421876-6.886719-9.707032-5.8125-4.285156 1.078125-6.886718 5.425781-5.8125 9.710938.382813 1.558593 9.855469 38.0625 39.761719 38.0625zm0 0"/><path d="m368.015625 232.980469v-48.96875c0-16.09375-26.355469-27.703125-78.265625-34.558594 1.652344-3.699219 2.992188-7.527344 4-11.449219.039062-.175781 0-.34375 0-.511718 11.367188-7.34375 18.242188-19.945313 18.265625-33.480469 0-4.417969-3.582031-8-8-8 5.207031-6.917969 8.015625-15.34375 8-24 0-4.417969-3.582031-8-8-8 5.207031-6.917969 8.015625-15.34375 8-24 0-4.417969-3.582031-8-8-8h-64c-20.449219-.019531-40.261719 7.113281-56 20.167969v-18.808594c.363281-17.394532-12.945313-32.035156-30.296875-33.3203128-15.210938-.8710932-28.890625 9.2109378-32.554688 23.9999998h-9.148437c-4.421875 0-8 3.582031-8 8s3.578125 8 8 8h8v79.960938c-.007813 9.484375 1.871094 18.878906 5.527344 27.632812-44.730469 4.589844-93.527344 14.589844-93.527344 36.367188v48.96875c-18.234375 4.464843-32 23.832031-32 47.03125 0 23.503906 14.160156 43.074219 32.796875 47.199219 7.8125 86.535156 80.347656 152.816406 167.234375 152.816406 86.882813 0 159.417969-66.28125 167.230469-152.816406 18.578125-4.125 32.738281-23.695313 32.738281-47.199219 0-23.199219-13.769531-42.566407-32-47.03125zm-336 77.0625c-10.539063-6.222657-16.710937-17.8125-16-30.03125-.710937-12.214844 5.460937-23.804688 16-30.03125zm208-262.03125h54.628906c-3.402343 9.582031-12.460937 15.988281-22.628906 16-4.421875 0-8 3.582031-8 8s3.578125 8 8 8h22.628906c-3.402343 9.582031-12.460937 15.988281-22.628906 16-4.421875 0-8 3.582031-8 8s3.578125 8 8 8h22.628906c-3.402343 9.582031-12.460937 15.988281-22.628906 16h-96c-4.421875 0-8-3.582031-8-8 .042969-39.746094 32.253906-71.957031 72-72zm-104-16c-.015625-4.390625 1.789063-8.585938 4.980469-11.597657 3.164062-3.078124 7.480468-4.675781 11.882812-4.402343 8.804688.945312 15.398438 8.507812 15.136719 17.359375v36.242187c-10.410156 14.746094-15.996094 32.351563-16 50.398438 0 13.253906 10.742187 24 24 24h96c.917969 0 1.773437-.207031 2.679687-.273438-9.195312 19.6875-28.953124 32.269531-50.679687 32.273438h-32c-30.914063-.039063-55.960937-25.089844-56-56zm216 280c0 83.949219-68.054687 152-152 152-83.949219 0-152-68.050781-152-152v-109.105469c40.871094 20.792969 146.46875 21.105469 152 21.105469 5.527344 0 111.125-.3125 152-21.105469zm-152-104c-94.402344 0-148.210937-15.542969-152-23.542969v-.160156c2.109375-4.710938 25.824219-15.894532 86.285156-21.433594 13.535157 18.308594 34.945313 29.117188 57.714844 29.136719h32c22.125.011719 43.03125-10.15625 56.6875-27.566407 54.175781 6.398438 70.09375 16.800782 71.367187 19.199219-3.535156 8.734375-57.359374 24.367188-152.054687 24.367188zm168 102.03125v-60.0625c10.535156 6.226562 16.707031 17.816406 16 30.03125.707031 12.21875-5.464844 23.808593-16 30.03125zm0 0"/></svg>