<svg height="480pt" viewBox="-40 0 480 480.02328" width="480pt" xmlns="http://www.w3.org/2000/svg"><path d="m344.011719 320.007812h16c17.671875 0 32-17.914062 32-40 0-22.089843-14.328125-40-32-40h-16zm0 0" fill="#ccac9b"/><path d="m56.011719 320.007812h-16c-17.671875 0-32-17.914062-32-40 0-22.089843 14.328125-40 32-40h16zm0 0" fill="#ccac9b"/><path d="m40.011719 184.007812h320v128c0 88.367188-71.632813 160-160 160-88.367188 0-160-71.632812-160-160zm0 0" fill="#f5d7ca"/><path d="m360.011719 184.007812c0-17.671874-71.632813-32-160-32-88.367188 0-160 14.328126-160 32 0 17.671876 71.632812 32 160 32 88.367187 0 160-14.328124 160-32zm0 0" fill="#b9a095"/><g fill="#a8887a"><path d="m184.011719 368.007812c-2.460938 0-4.789063-1.136718-6.304688-3.074218-1.515625-1.941406-2.050781-4.472656-1.457031-6.863282l16-64c.640625-2.832031 2.757812-5.09375 5.542969-5.914062 2.785156-.824219 5.792969-.070312 7.867187 1.960938 2.070313 2.03125 2.878906 5.027343 2.113282 7.828124l-12.761719 51.070313 19.054687-4.800781c4.273438-1.035156 8.582032 1.566406 9.648438 5.832031 1.070312 4.261719-1.503906 8.589844-5.757813 9.6875l-32 8c-.636719.171875-1.289062.261719-1.945312.273437zm0 0"/><path d="m128.011719 320.007812c-29.902344 0-39.367188-36.503906-39.761719-38.0625-1.074219-4.289062 1.527344-8.632812 5.8125-9.710937 4.285156-1.074219 8.632812 1.527344 9.710938 5.8125.0625.257813 6.832031 25.960937 24.238281 25.960937s24.175781-25.703124 24.238281-25.960937c1.078125-4.285156 5.425781-6.886719 9.710938-5.8125 4.285156 1.078125 6.886718 5.421875 5.8125 9.710937-.394532 1.558594-9.859376 38.0625-39.761719 38.0625zm0 0"/><path d="m272.011719 320.007812c-29.902344 0-39.367188-36.503906-39.761719-38.0625-1.074219-4.289062 1.527344-8.632812 5.8125-9.710937 4.285156-1.074219 8.632812 1.527344 9.710938 5.8125.0625.257813 6.832031 25.960937 24.238281 25.960937s24.175781-25.703124 24.238281-25.960937c1.078125-4.285156 5.425781-6.886719 9.710938-5.8125 4.285156 1.078125 6.886718 5.421875 5.8125 9.710937-.394532 1.558594-9.859376 38.0625-39.761719 38.0625zm0 0"/></g><path d="m128.011719 360.007812c0 13.253907-10.746094 24-24 24-13.253907 0-24-10.746093-24-24 0-13.253906 10.746093-24 24-24 13.253906 0 24 10.746094 24 24zm0 0" fill="#fdb5a6"/><path d="m320.011719 360.007812c0 13.253907-10.746094 24-24 24-13.253907 0-24-10.746093-24-24 0-13.253906 10.746093-24 24-24 13.253906 0 24 10.746094 24 24zm0 0" fill="#fdb5a6"/><path d="m224.011719 176.007812h-8v-152c0-8.835937-7.164063-16-16-16-8.835938 0-16 7.164063-16 16v152h-8c-4.417969 0-8 3.582032-8 8 0 4.417969 3.582031 8 8 8h48c4.417969 0 8-3.582031 8-8 0-4.417968-3.582031-8-8-8zm0 0" fill="#d0dad9"/><path d="m248.011719 104.007812c0 26.511719 14.328125 48 32 48s32-21.488281 32-48zm0 0" fill="#f6aa54"/><path d="m88.011719 104.007812c0 26.511719 14.328125 48 32 48s32-21.488281 32-48zm0 0" fill="#f6aa54"/><path d="m192.25 294.070312-16 64c-.675781 2.726563.121094 5.605469 2.109375 7.589844 1.984375 1.988282 4.863281 2.785156 7.589844 2.105469l32-8c2.828125-.636719 5.09375-2.757813 5.914062-5.539063.824219-2.785156.070313-5.792968-1.960937-7.867187-2.03125-2.070313-5.027344-2.878906-7.828125-2.113281l-19.070313 4.800781 12.800782-51.070313c.765624-2.800781-.042969-5.796874-2.113282-7.828124-2.074218-2.03125-5.082031-2.78125-7.867187-1.960938-2.78125.820312-4.902344 3.085938-5.539063 5.917969zm0 0"/><path d="m161.972656 272.261719c-2.058594-.53125-4.242187-.222657-6.070312.863281-1.824219 1.085938-3.140625 2.859375-3.652344 4.921875-.0625.257813-6.832031 25.960937-24.238281 25.960937s-24.175781-25.703124-24.238281-25.960937c-1.078126-4.285156-5.425782-6.886719-9.710938-5.8125-4.285156 1.078125-6.886719 5.421875-5.8125 9.710937.386719 1.558594 9.859375 38.0625 39.761719 38.0625 29.902343 0 39.375-36.503906 39.761719-38.0625 1.058593-4.273437-1.535157-8.601562-5.800782-9.683593zm0 0"/><path d="m272.011719 320.007812c29.902343 0 39.375-36.503906 39.761719-38.0625 1.074218-4.289062-1.527344-8.632812-5.8125-9.710937-4.285157-1.074219-8.632813 1.527344-9.710938 5.8125-.0625.257813-6.832031 25.960937-24.238281 25.960937s-24.175781-25.703124-24.238281-25.960937c-1.078126-4.285156-5.425782-6.886719-9.710938-5.8125-4.285156 1.078125-6.886719 5.421875-5.8125 9.710937.386719 1.558594 9.859375 38.0625 39.761719 38.0625zm0 0"/><path d="m368.011719 232.976562v-48.96875c0-17.488281-31.496094-27.3125-66.199219-32.839843 12.257812-12.40625 18.84375-29.324219 18.199219-46.753907v-.40625c0-.105468-.054688-.183593-.054688-.289062-.035156-.839844-.203125-1.671875-.496093-2.464844-.074219-.175781-.113282-.359375-.191407-.527344-.082031-.167968-.050781-.199218-.097656-.296874l-31.160156-62.308594v-14.113282c0-4.417968-3.582031-8-8-8h-57.472657c-3.339843-9.585937-12.378906-16.007812-22.527343-16.007812-10.148438 0-19.1875 6.421875-22.527344 16.007812h-57.472656c-4.417969 0-8 3.582032-8 8v14.113282l-31.160157 62.308594c-.046874.097656-.054687.203124-.105468.296874-.046875.097657-.109375.351563-.183594.527344-.292969.792969-.460938 1.625-.496094 2.464844 0 .097656-.054687.183594-.054687.289062v.40625c-.65625 17.441407 5.933593 34.378907 18.199219 46.792969-34.703126 5.488281-66.199219 15.3125-66.199219 32.800781v48.96875c-18.230469 4.464844-32.0000002 23.832032-32.0000002 47.03125 0 23.503907 14.1601562 43.070313 32.8007812 47.199219 7.8125 86.535157 80.347656 152.816407 167.230469 152.816407 86.886719 0 159.421875-66.28125 167.234375-152.816407 18.574218-4.128906 32.734375-23.695312 32.734375-47.199219 0-23.199218-13.769531-42.566406-32-47.03125zm-336 77.0625c-10.535157-6.226562-16.710938-17.816406-16-30.03125-.710938-12.21875 5.464843-23.808593 16-30.03125zm248-166.03125c-11.375 0-21.199219-13.992187-23.496094-32h46.992187c-2.296874 18.007813-12.121093 32-23.496093 32zm19.054687-48h-38.109375l19.054688-38.113281zm-75.054687-64h48v6.113282l-31.199219 62.308594c-.050781.097656-.058594.203124-.105469.296874-.046875.097657-.113281.351563-.183593.527344-.292969.792969-.460938 1.625-.496094 2.464844 0 .097656-.054688.183594-.054688.289062v.40625c-.316406 14.898438 4.332032 29.480469 13.207032 41.449219-11.640626-.800781-21.839844-1.253906-29.222657-1.488281zm-32-8c0-4.417968 3.582031-8 8-8s8 3.582032 8 8v152h-16zm-64 8h48v112.367188c-7.382813.234375-17.601563.671875-29.222657 1.488281 8.878907-11.96875 13.53125-26.546875 13.222657-41.449219v-.40625c0-.105468-.054688-.183593-.054688-.289062-.035156-.839844-.203125-1.671875-.496093-2.464844-.074219-.175781-.113282-.359375-.191407-.527344-.082031-.167968-.050781-.199218-.097656-.296874l-31.160156-62.308594zm-8 25.886719 19.054687 38.113281h-38.109375zm-23.496094 54.113281h46.992187c-2.296874 18.007813-12.121093 32-23.496093 32s-21.199219-13.992187-23.496094-32zm255.496094 200c0 83.945313-68.054688 152-152 152-83.949219 0-152-68.054687-152-152v-109.105468c40.871093 20.792968 146.472656 21.105468 152 21.105468 5.527343 0 111.128906-.3125 152-21.105468zm-152-104c-94.398438 0-148.207031-15.542968-152-23.542968v-.152344c3.113281-7.121094 44.847656-21.410156 128-23.90625v15.601562c-4.417969 0-8 3.582032-8 8 0 4.417969 3.582031 8 8 8h48c4.417969 0 8-3.582031 8-8 0-4.417968-3.582031-8-8-8v-15.601562c83.433593 2.503906 125.191406 16.867188 128.054687 23.203125-3.535156 8.765625-57.359375 24.398437-152.054687 24.398437zm168 102.03125v-60.0625c10.535156 6.222657 16.710937 17.8125 16 30.03125.710937 12.214844-5.464844 23.804688-16 30.03125zm0 0"/></svg>