<svg height="480pt" viewBox="-40 0 480 480.01623" width="480pt" xmlns="http://www.w3.org/2000/svg"><path d="m344.007812 320h16c17.671876 0 32-17.910156 32-40 0-22.085938-14.328124-40-32-40h-16zm0 0" fill="#ccac9b"/><path d="m56.007812 320h-16c-17.671874 0-32-17.910156-32-40 0-22.085938 14.328126-40 32-40h16zm0 0" fill="#ccac9b"/><path d="m40.007812 184h320v128c0 88.367188-71.632812 160-160 160-88.367187 0-160-71.632812-160-160zm0 0" fill="#f5d7ca"/><path d="m360.007812 184c0-17.671875-71.632812-32-160-32-88.367187 0-160 14.328125-160 32s71.632813 32 160 32c88.367188 0 160-14.328125 160-32zm0 0" fill="#b9a095"/><g fill="#a8887a"><path d="m184.007812 368c-2.460937 0-4.785156-1.132812-6.300781-3.074219-1.515625-1.941406-2.054687-4.472656-1.457031-6.859375l16-64c.636719-2.832031 2.757812-5.097656 5.539062-5.917968 2.785157-.820313 5.792969-.070313 7.867188 1.960937 2.070312 2.03125 2.878906 5.027344 2.113281 7.828125l-12.761719 51.070312 19.054688-4.800781c4.273438-1.035156 8.582031 1.566407 9.652344 5.832031 1.066406 4.261719-1.507813 8.589844-5.761719 9.691407l-32 8c-.636719.167969-1.289063.257812-1.945313.269531zm0 0"/><path d="m128.007812 320c-29.902343 0-39.367187-36.503906-39.757812-38.0625-1.078125-4.285156 1.523438-8.632812 5.808594-9.707031 4.289062-1.078125 8.632812 1.523437 9.710937 5.808593.0625.257813 6.832031 25.960938 24.238281 25.960938 17.410157 0 24.175782-25.703125 24.242188-25.960938 1.074219-4.285156 5.421875-6.886718 9.707031-5.808593 4.285157 1.074219 6.886719 5.421875 5.8125 9.707031-.394531 1.558594-9.855469 38.0625-39.761719 38.0625zm0 0"/><path d="m272.007812 320c-29.902343 0-39.367187-36.503906-39.757812-38.0625-1.078125-4.285156 1.523438-8.632812 5.808594-9.707031 4.289062-1.078125 8.632812 1.523437 9.710937 5.808593.0625.257813 6.832031 25.960938 24.238281 25.960938 17.410157 0 24.175782-25.703125 24.242188-25.960938 1.074219-4.285156 5.421875-6.886718 9.707031-5.808593 4.285157 1.074219 6.886719 5.421875 5.8125 9.707031-.394531 1.558594-9.855469 38.0625-39.761719 38.0625zm0 0"/></g><path d="m128.007812 360c0 13.253906-10.746093 24-24 24-13.253906 0-24-10.746094-24-24s10.746094-24 24-24c13.253907 0 24 10.746094 24 24zm0 0" fill="#fdb5a6"/><path d="m320.007812 360c0 13.253906-10.746093 24-24 24-13.253906 0-24-10.746094-24-24s10.746094-24 24-24c13.253907 0 24 10.746094 24 24zm0 0" fill="#fdb5a6"/><path d="m264.007812 72v-40h-40c0-13.253906-10.746093-24-24-24-13.253906 0-24 10.746094-24 24h-40v40c-13.253906 0-24 10.746094-24 24s10.746094 24 24 24v40h40c0 13.253906 10.746094 24 24 24 13.253907 0 24-10.746094 24-24h40v-40c-13.253906 0-24-10.746094-24-24s10.746094-24 24-24zm0 0" fill="#fda4c6"/><path d="m192.25 294.066406-16 64c-.679688 2.722656.117188 5.601563 2.105469 7.589844 1.984375 1.984375 4.863281 2.78125 7.589843 2.105469l32-8c2.832032-.636719 5.09375-2.757813 5.914063-5.542969.824219-2.785156.070313-5.792969-1.960937-7.867188-2.03125-2.070312-5.027344-2.878906-7.828126-2.109374l-19.070312 4.796874 12.800781-51.070312c.765625-2.800781-.042969-5.792969-2.113281-7.828125-2.070312-2.03125-5.082031-2.78125-7.867188-1.960937-2.78125.820312-4.902343 3.085937-5.539062 5.917968zm0 0"/><path d="m161.96875 272.257812c-2.058594-.535156-4.242188-.226562-6.070312.859376-1.824219 1.089843-3.140626 2.859374-3.648438 4.921874-.066406.257813-6.832031 25.960938-24.242188 25.960938-17.40625 0-24.175781-25.703125-24.238281-25.960938-1.078125-4.285156-5.421875-6.886718-9.710937-5.808593-4.285156 1.074219-6.886719 5.421875-5.808594 9.707031.382812 1.558594 9.855469 38.0625 39.757812 38.0625 29.90625 0 39.375-36.503906 39.761719-38.0625 1.058594-4.273438-1.535156-8.601562-5.800781-9.679688zm0 0"/><path d="m272.007812 320c29.90625 0 39.375-36.503906 39.761719-38.0625 1.074219-4.285156-1.527343-8.632812-5.8125-9.707031-4.285156-1.078125-8.632812 1.523437-9.707031 5.808593-.066406.257813-6.832031 25.960938-24.242188 25.960938-17.40625 0-24.175781-25.703125-24.238281-25.960938-1.078125-4.285156-5.421875-6.886718-9.710937-5.808593-4.285156 1.074219-6.886719 5.421875-5.808594 9.707031.382812 1.558594 9.855469 38.0625 39.757812 38.0625zm0 0"/><path d="m368.007812 232.96875v-48.96875c0-22.175781-50.566406-32.136719-96-36.617188v-27.382812c0-4.417969-3.582031-8-8-8-8.835937 0-16-7.164062-16-16s7.164063-16 16-16c4.417969 0 8-3.582031 8-8v-40c0-4.417969-3.582031-8-8-8h-33.015624c-3.648438-14.128906-16.390626-24-30.984376-24s-27.335937 9.871094-30.984374 24h-33.015626c-4.417968 0-8 3.582031-8 8v33.015625c-14.128906 3.648437-24 16.394531-24 30.984375 0 14.59375 9.871094 27.335938 24 30.984375v20.398437c-45.433593 4.480469-96 14.441407-96 36.617188v48.96875c-18.230468 4.464844-31.9999995 23.832031-31.9999995 47.03125 0 23.503906 14.1601565 43.074219 32.8007815 47.199219 7.8125 86.535156 80.347656 152.816406 167.230468 152.816406 86.886719 0 159.421876-66.28125 167.234376-152.816406 18.574218-4.125 32.734374-23.695313 32.734374-47.199219 0-23.199219-13.769531-42.566406-32-47.03125zm-336 77.0625c-10.535156-6.222656-16.710937-17.8125-16-30.03125-.710937-12.214844 5.464844-23.804688 16-30.03125zm88-214.03125c0-8.835938 7.164063-16 16-16 4.417969 0 8-3.582031 8-8v-32h32c4.417969 0 8-3.582031 8-8 0-8.835938 7.164063-16 16-16 8.835938 0 16 7.164062 16 16 0 4.417969 3.582032 8 8 8h32v25.015625c-14.128906 3.648437-24 16.394531-24 30.984375 0 14.59375 9.871094 27.335938 24 30.984375v25.015625h-32c-4.417968 0-8 3.582031-8 8 0 8.835938-7.164062 16-16 16-8.835937 0-16-7.164062-16-16 0-4.417969-3.582031-8-8-8h-32v-32c0-4.417969-3.582031-8-8-8-8.835937 0-16-7.164062-16-16zm232 216c0 83.949219-68.050781 152-152 152-83.945312 0-152-68.050781-152-152v-109.101562c40.871094 20.789062 146.472657 21.101562 152 21.101562 5.527344 0 111.128907-.3125 152-21.101562zm-152-104c-94.398437 0-148.207031-15.542969-152-23.542969v-.160156c2.046876-4.566406 24.410157-15.199219 80.800782-20.90625 1.308594 2.800781 4.109375 4.59375 7.199218 4.609375h33.015626c3.648437 14.128906 16.390624 24 30.984374 24s27.335938-9.871094 30.984376-24h33.015624c3.089844-.015625 5.890626-1.808594 7.199219-4.609375 56.738281 5.722656 79.050781 16.433594 80.875 20.226563-3.554687 8.75-57.378906 24.382812-152.074219 24.382812zm168 102.03125v-60.0625c10.535157 6.226562 16.710938 17.816406 16 30.03125.710938 12.21875-5.464843 23.808594-16 30.03125zm0 0"/></svg>