<svg height="480pt" viewBox="-40 0 480 480.01572" width="480pt" xmlns="http://www.w3.org/2000/svg"><path d="m344.007812 320h16c17.671876 0 32-17.910156 32-40s-14.328124-40-32-40h-16zm0 0" fill="#ccac9b"/><path d="m56.007812 320h-16c-17.671874 0-32-17.910156-32-40s14.328126-40 32-40h16zm0 0" fill="#ccac9b"/><path d="m40.007812 184h320v128c0 88.367188-71.632812 160-160 160-88.367187 0-160-71.632812-160-160zm0 0" fill="#f5d7ca"/><path d="m360.007812 184c0-17.671875-71.632812-32-160-32-88.367187 0-160 14.328125-160 32s71.632813 32 160 32c88.367188 0 160-14.328125 160-32zm0 0" fill="#b9a095"/><g fill="#a8887a"><path d="m184.007812 368c-2.460937 0-4.785156-1.136719-6.300781-3.074219-1.515625-1.941406-2.054687-4.472656-1.460937-6.863281l16-64c.640625-2.828125 2.757812-5.09375 5.542968-5.914062 2.785157-.824219 5.792969-.070313 7.867188 1.960937 2.070312 2.03125 2.878906 5.027344 2.113281 7.828125l-12.761719 51.070312 19.054688-4.800781c4.273438-1.035156 8.582031 1.566407 9.648438 5.832031 1.070312 4.261719-1.503907 8.589844-5.757813 9.6875l-32 8c-.636719.171876-1.289063.261719-1.945313.273438zm0 0"/><path d="m128.007812 320c-29.902343 0-39.367187-36.503906-39.761718-38.0625-1.074219-4.289062 1.527344-8.632812 5.8125-9.710938 4.285156-1.074218 8.632812 1.527344 9.710937 5.8125.0625.257813 6.832031 25.960938 24.238281 25.960938s24.175782-25.703125 24.238282-25.960938c1.078125-4.285156 5.425781-6.886718 9.710937-5.8125 4.285157 1.078126 6.886719 5.421876 5.8125 9.710938-.394531 1.558594-9.859375 38.0625-39.761719 38.0625zm0 0"/><path d="m272.007812 320c-29.902343 0-39.367187-36.503906-39.761718-38.0625-1.074219-4.289062 1.527344-8.632812 5.8125-9.710938 4.285156-1.074218 8.632812 1.527344 9.710937 5.8125.0625.257813 6.832031 25.960938 24.238281 25.960938s24.175782-25.703125 24.238282-25.960938c1.078125-4.285156 5.425781-6.886718 9.710937-5.8125 4.285157 1.078126 6.886719 5.421876 5.8125 9.710938-.394531 1.558594-9.859375 38.0625-39.761719 38.0625zm0 0"/></g><path d="m128.007812 360c0 13.253906-10.746093 24-24 24-13.253906 0-24-10.746094-24-24s10.746094-24 24-24c13.253907 0 24 10.746094 24 24zm0 0" fill="#fdb5a6"/><path d="m320.007812 360c0 13.253906-10.746093 24-24 24-13.253906 0-24-10.746094-24-24s10.746094-24 24-24c13.253907 0 24 10.746094 24 24zm0 0" fill="#fdb5a6"/><path d="m176.007812 8h-56l-32 48h64zm0 0" fill="#63c3df"/><path d="m88.007812 56 112 128-48-128zm0 0" fill="#2d87a1"/><path d="m200.007812 184 112-128h-64zm0 0" fill="#2d87a1"/><path d="m224.007812 8 24 48h64l-32-48zm0 0" fill="#63c3df"/><path d="m152.007812 56 48 128 48-128zm0 0" fill="#63c3df"/><path d="m248.007812 56-24-48h-48l-24 48zm0 0" fill="#2d87a1"/><path d="m192.246094 294.054688-16 64c-.597656 2.390624-.0625 4.925781 1.457031 6.867187 1.515625 1.941406 3.839844 3.078125 6.304687 3.078125.65625 0 1.308594-.082031 1.945313-.238281l32-8c2.789063-.679688 5.003906-2.800781 5.796875-5.5625.796875-2.757813.050781-5.730469-1.953125-7.789063-2-2.058594-4.953125-2.886718-7.734375-2.171875l-19.054688 4.761719 12.761719-51.054688c.714844-2.78125-.113281-5.734374-2.171875-7.734374-2.058594-2.003907-5.03125-2.75-7.789062-1.953126-2.761719.792969-4.882813 3.007813-5.5625 5.796876zm0 0"/><path d="m161.96875 272.257812c-4.28125-1.085937-8.632812 1.5-9.722656 5.78125-.0625.265626-6.832032 25.960938-24.238282 25.960938s-24.175781-25.695312-24.238281-25.960938c-1.078125-4.285156-5.429687-6.886718-9.714843-5.808593-4.285157 1.078125-6.886719 5.429687-5.808594 9.714843.394531 1.550782 9.859375 38.054688 39.761718 38.054688 29.902344 0 39.367188-36.503906 39.761719-38.054688 1.0625-4.277343-1.53125-8.609374-5.800781-9.6875zm0 0"/><path d="m272.007812 320c29.902344 0 39.367188-36.503906 39.761719-38.054688 1.078125-4.285156-1.523437-8.636718-5.808593-9.714843-4.285157-1.078125-8.636719 1.523437-9.714844 5.808593-.0625.265626-6.832032 25.960938-24.238282 25.960938s-24.175781-25.695312-24.238281-25.960938c-1.078125-4.285156-5.429687-6.886718-9.714843-5.808593-4.285157 1.078125-6.886719 5.429687-5.808594 9.714843.394531 1.550782 9.859375 38.054688 39.761718 38.054688zm0 0"/><path d="m368.007812 232.96875v-48.96875c0-27.734375-78.800781-36.191406-123.464843-38.742188l73.480469-84c2.386718-2.722656 2.648437-6.703124.640624-9.714843l-32-48c-1.488281-2.21875-3.984374-3.54687525-6.65625-3.542969h-160c-2.675781 0-5.171874 1.335938-6.65625 3.558594l-32 48c-2.007812 3.011718-1.746093 6.992187.640626 9.714844l73.488281 84c-40.273438 2.335937-123.472657 10.613281-123.472657 38.726562v48.96875c-18.230468 4.464844-31.9999995 23.832031-31.9999995 47.03125 0 23.503906 14.1601565 43.070312 32.8007815 47.199219 7.8125 86.535156 80.347656 152.816406 167.230468 152.816406 86.886719 0 159.421876-66.28125 167.234376-152.816406 18.574218-4.128907 32.734374-23.695313 32.734374-47.199219 0-23.199219-13.769531-42.566406-32-47.03125zm-336 77.0625c-10.535156-6.226562-16.710937-17.816406-16-30.03125-.710937-12.214844 5.464844-23.804688 16-30.03125zm190.929688-164.382812 30.613281-81.648438h40.800781zm52.789062-129.648438 21.335938 32h-44.109375l-16-32zm-94.773437 0h38.109375l16 32h-70.109375zm55.511719 48-36.457032 97.214844-36.457031-97.214844zm-112.175782-48h38.773438l-16 32h-44.109375zm-18.679687 48h40.796875l30.617188 81.648438zm246.398437 248c0 83.949219-68.050781 152-152 152-83.945312 0-152-68.050781-152-152v-109.105469c40.871094 20.792969 146.472657 21.105469 152 21.105469 5.527344 0 111.128907-.3125 152-21.105469zm-152-104c-94.398437 0-148.183593-15.535156-152-23.542969v-.160156c2.96875-6.710937 41.039063-20.441406 120.328126-23.664063v-.722656l25.6875 29.363282c.097656.109374.25.160156.359374.261718.578126.585938 1.242188 1.082032 1.96875 1.464844.25.128906.472657.257812.726563.359375 1.882813.847656 4.039063.847656 5.921875 0 .257812-.101563.480469-.230469.726562-.359375.730469-.382812 1.390626-.878906 1.96875-1.464844.113282-.101562.265626-.152344.359376-.261718l25.050781-28.625c78.847656 3.128906 118.292969 17.023437 120.992187 22.96875-3.570312 8.75-57.402344 24.382812-152.089844 24.382812zm168 102.03125v-60.0625c10.535157 6.226562 16.710938 17.816406 16 30.03125.710938 12.214844-5.464843 23.804688-16 30.03125zm0 0"/></svg>