<svg height="480pt" viewBox="-40 0 480 480.01571" width="480pt" xmlns="http://www.w3.org/2000/svg"><path d="m344.007812 320h16c17.671876 0 32-17.910156 32-40s-14.328124-40-32-40h-16zm0 0" fill="#ccac9b"/><path d="m56.007812 320h-16c-17.671874 0-32-17.910156-32-40s14.328126-40 32-40h16zm0 0" fill="#ccac9b"/><path d="m40.007812 184h320v128c0 88.367188-71.632812 160-160 160-88.367187 0-160-71.632812-160-160zm0 0" fill="#f5d7ca"/><path d="m360.007812 184c0-17.671875-71.632812-32-160-32-88.367187 0-160 14.328125-160 32s71.632813 32 160 32c88.367188 0 160-14.328125 160-32zm0 0" fill="#b9a095"/><g fill="#a8887a"><path d="m184.007812 368c-2.460937 0-4.785156-1.136719-6.300781-3.074219-1.515625-1.941406-2.054687-4.472656-1.460937-6.863281l16-64c.640625-2.828125 2.757812-5.09375 5.542968-5.914062 2.785157-.824219 5.792969-.070313 7.867188 1.960937 2.070312 2.03125 2.878906 5.027344 2.113281 7.828125l-12.761719 51.070312 19.054688-4.800781c4.273438-1.035156 8.582031 1.566407 9.648438 5.832031 1.070312 4.261719-1.503907 8.589844-5.757813 9.6875l-32 8c-.636719.171876-1.289063.261719-1.945313.273438zm0 0"/><path d="m128.007812 320c-29.902343 0-39.367187-36.503906-39.761718-38.0625-1.074219-4.289062 1.527344-8.632812 5.8125-9.710938 4.285156-1.074218 8.632812 1.527344 9.710937 5.8125.0625.257813 6.832031 25.960938 24.238281 25.960938s24.175782-25.703125 24.238282-25.960938c1.078125-4.285156 5.425781-6.886718 9.710937-5.8125 4.285157 1.078126 6.886719 5.421876 5.8125 9.710938-.394531 1.558594-9.859375 38.0625-39.761719 38.0625zm0 0"/><path d="m272.007812 320c-29.902343 0-39.367187-36.503906-39.761718-38.0625-1.074219-4.289062 1.527344-8.632812 5.8125-9.710938 4.285156-1.074218 8.632812 1.527344 9.710937 5.8125.0625.257813 6.832031 25.960938 24.238281 25.960938s24.175782-25.703125 24.238282-25.960938c1.078125-4.285156 5.425781-6.886718 9.710937-5.8125 4.285157 1.078126 6.886719 5.421876 5.8125 9.710938-.394531 1.558594-9.859375 38.0625-39.761719 38.0625zm0 0"/></g><path d="m128.007812 360c0 13.253906-10.746093 24-24 24-13.253906 0-24-10.746094-24-24s10.746094-24 24-24c13.253907 0 24 10.746094 24 24zm0 0" fill="#fdb5a6"/><path d="m320.007812 360c0 13.253906-10.746093 24-24 24-13.253906 0-24-10.746094-24-24s10.746094-24 24-24c13.253907 0 24 10.746094 24 24zm0 0" fill="#fdb5a6"/><path d="m144.007812 8h112c17.671876 0 32 14.328125 32 32v112c0 17.671875-14.328124 32-32 32h-112c-17.671874 0-32-14.328125-32-32v-112c0-17.671875 14.328126-32 32-32zm0 0" fill="#3ac1ac"/><path d="m192.246094 294.0625-16 64c-.59375 2.390625-.054688 4.921875 1.460937 6.863281 1.515625 1.9375 3.839844 3.074219 6.300781 3.074219.65625 0 1.308594-.082031 1.945313-.238281l32-8c4.253906-1.101563 6.828125-5.425781 5.757813-9.691407-1.066407-4.265624-5.375-6.867187-9.648438-5.832031l-19.054688 4.800781 12.761719-51.070312c.765625-2.800781-.042969-5.792969-2.113281-7.828125-2.074219-2.03125-5.082031-2.78125-7.867188-1.960937-2.785156.820312-4.902343 3.085937-5.542968 5.917968zm0 0"/><path d="m161.96875 272.257812c-4.28125-1.085937-8.632812 1.5-9.722656 5.78125-.0625.257813-6.832032 25.960938-24.238282 25.960938s-24.175781-25.703125-24.238281-25.960938c-1.078125-4.285156-5.425781-6.886718-9.710937-5.8125-4.285156 1.078126-6.886719 5.421876-5.8125 9.710938.394531 1.558594 9.859375 38.0625 39.761718 38.0625 29.902344 0 39.367188-36.503906 39.761719-38.0625 1.058594-4.273438-1.535156-8.601562-5.800781-9.679688zm0 0"/><path d="m272.007812 320c29.902344 0 39.367188-36.503906 39.761719-38.0625 1.074219-4.289062-1.527343-8.632812-5.8125-9.710938-4.285156-1.074218-8.632812 1.527344-9.710937 5.8125-.0625.257813-6.832032 25.960938-24.238282 25.960938s-24.175781-25.703125-24.238281-25.960938c-1.078125-4.285156-5.425781-6.886718-9.710937-5.8125-4.285156 1.078126-6.886719 5.421876-5.8125 9.710938.394531 1.558594 9.859375 38.0625 39.761718 38.0625zm0 0"/><path d="m165.03125 143.433594c4.105469 1.640625 8.761719-.359375 10.402344-4.464844l10.789062-26.96875h27.570313l10.78125 26.96875c1.640625 4.105469 6.296875 6.101562 10.402343 4.464844 4.105469-1.640625 6.101563-6.296875 4.464844-10.402344l-32-80c-1.214844-3.042969-4.15625-5.039062-7.433594-5.039062-3.273437 0-6.21875 1.996093-7.433593 5.039062l-32 80c-1.640625 4.101562.355469 8.757812 4.457031 10.402344zm34.976562-65.898438 7.382813 18.464844h-14.765625zm0 0"/><path d="m368.007812 232.96875v-48.96875c0-5.816406 0-23.152344-72-33.6875v-110.3125c-.027343-22.082031-17.917968-39.9726562-40-40h-112c-22.082031.0273438-39.972656 17.917969-40 40v110.3125c-72 10.535156-72 27.871094-72 33.6875v48.96875c-18.230468 4.464844-31.9999995 23.832031-31.9999995 47.03125 0 23.503906 14.1601565 43.070312 32.8007815 47.199219 7.8125 86.535156 80.347656 152.816406 167.230468 152.816406 86.886719 0 159.421876-66.28125 167.234376-152.816406 18.574218-4.128907 32.734374-23.695313 32.734374-47.199219 0-23.199219-13.769531-42.566406-32-47.03125zm-336 77.0625c-10.535156-6.226562-16.710937-17.816406-16-30.03125-.710937-12.214844 5.464844-23.804688 16-30.03125zm88-270.03125c0-13.253906 10.746094-24 24-24h112c13.253907 0 24 10.746094 24 24v112c0 13.253906-10.746093 24-24 24h-112c-13.253906 0-24-10.746094-24-24zm232 272c0 83.949219-68.050781 152-152 152-83.945312 0-152-68.050781-152-152v-109.105469c40.871094 20.792969 146.472657 21.105469 152 21.105469 5.527344 0 111.128907-.3125 152-21.105469zm-152-104c-94.398437 0-148.183593-15.535156-152-23.542969v-.167969c1.351563-2.875 14.847657-11.761718 58.695313-18.183593 5.855469 15.535156 20.699219 25.839843 37.304687 25.894531h112c16.605469-.054688 31.449219-10.359375 37.304688-25.894531 44.296875 6.488281 57.597656 15.46875 58.75 17.511719-3.535156 8.75-57.367188 24.382812-152.054688 24.382812zm168 102.03125v-60.0625c10.535157 6.226562 16.710938 17.816406 16 30.03125.710938 12.214844-5.464843 23.804688-16 30.03125zm0 0"/></svg>