<svg height="479pt" viewBox="-39 0 479 479.87296" width="479pt" xmlns="http://www.w3.org/2000/svg"><path d="m344.4375 319.855469h16c17.671875 0 32-17.910157 32-40 0-22.085938-14.328125-40-32-40h-16zm0 0" fill="#ccac9b"/><path d="m56.4375 319.855469h-16c-17.671875 0-32-17.910157-32-40 0-22.085938 14.328125-40 32-40h16zm0 0" fill="#ccac9b"/><path d="m40.4375 183.855469h320v128c0 88.367187-71.636719 160-160 160-88.367188 0-160-71.632813-160-160zm0 0" fill="#f5d7ca"/><path d="m360.4375 183.855469c0-17.671875-71.636719-32-160-32-88.367188 0-160 14.328125-160 32 0 17.675781 71.632812 32 160 32 88.363281 0 160-14.324219 160-32zm0 0" fill="#b9a095"/><g fill="#a8887a"><path d="m184.4375 367.855469c-2.464844 0-4.789062-1.132813-6.304688-3.074219-1.515624-1.941406-2.050781-4.472656-1.457031-6.859375l16-64c.636719-2.832031 2.757813-5.097656 5.542969-5.917969 2.78125-.820312 5.792969-.070312 7.863281 1.960938 2.074219 2.035156 2.882813 5.03125 2.113281 7.828125l-12.757812 51.074219 19.054688-4.800782c4.273437-1.039062 8.582031 1.566406 9.648437 5.828125 1.070313 4.265625-1.503906 8.59375-5.761719 9.691407l-32 8c-.632812.167968-1.285156.261718-1.941406.269531zm0 0"/><path d="m128.4375 319.855469c-29.90625 0-39.367188-36.503907-39.761719-38.0625-1.074219-4.285157 1.527344-8.632813 5.8125-9.707031 4.285157-1.078126 8.632813 1.527343 9.707031 5.8125.066407.253906 6.832032 25.957031 24.242188 25.957031 17.40625 0 24.175781-25.703125 24.238281-25.957031 1.078125-4.285157 5.421875-6.890626 9.707031-5.8125 4.289063 1.074218 6.890626 5.421874 5.8125 9.707031-.390624 1.558593-9.855468 38.0625-39.757812 38.0625zm0 0"/><path d="m272.4375 319.855469c-29.90625 0-39.367188-36.503907-39.761719-38.0625-1.074219-4.285157 1.527344-8.632813 5.8125-9.707031 4.285157-1.078126 8.632813 1.527343 9.707031 5.8125.066407.253906 6.832032 25.957031 24.242188 25.957031 17.40625 0 24.175781-25.703125 24.238281-25.957031 1.078125-4.285157 5.421875-6.890626 9.707031-5.8125 4.289063 1.074218 6.890626 5.421874 5.8125 9.707031-.390624 1.558593-9.855468 38.0625-39.757812 38.0625zm0 0"/></g><path d="m128.4375 359.855469c0 13.257812-10.746094 24-24 24s-24-10.742188-24-24c0-13.253907 10.746094-24 24-24s24 10.746093 24 24zm0 0" fill="#fdb5a6"/><path d="m320.4375 359.855469c0 13.257812-10.746094 24-24 24s-24-10.742188-24-24c0-13.253907 10.746094-24 24-24s24 10.746093 24 24zm0 0" fill="#fdb5a6"/><path d="m240.4375 183.855469h-80l-40-80 80-96 80 96zm0 0" fill="#f6aa54"/><path d="m200.4375 95.855469c-4.417969 0-8-3.578125-8-8v-72c0-4.417969 3.582031-8 8-8s8 3.582031 8 8v72c0 4.421875-3.582031 8-8 8zm0 0" fill="#aa7459"/><path d="m216.4375 103.855469c0 8.839843-7.164062 16-16 16s-16-7.160157-16-16c0-8.835938 7.164062-16 16-16s16 7.164062 16 16zm0 0" fill="#aa7459"/><path d="m192.675781 293.914062-16 64c-.597656 2.390626-.0625 4.921876 1.453125 6.863282 1.515625 1.945312 3.84375 3.078125 6.308594 3.078125.65625 0 1.308594-.078125 1.941406-.238281l32-8c2.792969-.679688 5.003906-2.800782 5.800782-5.558594.792968-2.761719.050781-5.734375-1.953126-7.792969-2-2.058594-4.953124-2.886719-7.734374-2.167969l-19.054688 4.757813 12.757812-51.054688c.71875-2.78125-.109374-5.730469-2.167968-7.734375-2.058594-2-5.03125-2.746094-7.792969-1.953125-2.757813.796875-4.878906 3.007813-5.558594 5.800781zm0 0"/><path d="m162.394531 272.113281c-4.277343-1.085937-8.628906 1.503907-9.71875 5.785157-.0625.261718-6.832031 25.957031-24.238281 25.957031-17.410156 0-24.175781-25.695313-24.242188-25.957031-1.078124-4.285157-5.425781-6.886719-9.710937-5.808594s-6.886719 5.425781-5.808594 9.710937c.394531 1.550781 9.855469 38.054688 39.761719 38.054688 29.902344 0 39.367188-36.503907 39.757812-38.054688 1.066407-4.273437-1.527343-8.605469-5.800781-9.6875zm0 0"/><path d="m272.4375 319.855469c29.902344 0 39.367188-36.503907 39.757812-38.054688 1.078126-4.285156-1.519531-8.632812-5.808593-9.710937-4.285157-1.078125-8.632813 1.523437-9.710938 5.808594-.0625.261718-6.832031 25.957031-24.238281 25.957031-17.410156 0-24.175781-25.695313-24.242188-25.957031-1.078124-4.285157-5.425781-6.886719-9.710937-5.808594s-6.886719 5.425781-5.808594 9.710937c.394531 1.550781 9.855469 38.054688 39.761719 38.054688zm0 0"/><path d="m368.4375 232.824219v-48.96875c0-23.664063-58.703125-33.222657-100.527344-37.046875l19.726563-39.375c1.417969-2.84375 1.019531-6.257813-1.015625-8.695313l-80-96c-1.566406-1.742187-3.800782-2.738281-6.144532-2.738281s-4.578124.996094-6.144531 2.738281l-80 96c-2.035156 2.4375-2.433593 5.851563-1.015625 8.695313l19.6875 39.375c-41.863281 3.824218-100.566406 13.382812-100.566406 37.046875v48.96875c-18.234375 4.464843-32 23.832031-32 47.03125 0 23.503906 14.160156 43.074219 32.800781 47.203125 7.808594 86.53125 80.34375 152.8125 167.230469 152.8125s159.421875-66.28125 167.230469-152.8125c18.578125-4.128906 32.738281-23.699219 32.738281-47.203125 0-23.199219-13.769531-42.566407-32-47.03125zm-336 77.066406c-10.535156-6.226563-16.710938-17.816406-16-30.035156-.710938-12.214844 5.464844-23.804688 16-30.03125zm168-214.035156c4.417969 0 8 3.582031 8 8 0 4.421875-3.582031 8-8 8s-8-3.578125-8-8c0-4.417969 3.582031-8 8-8zm-70.503906 9.105469 62.503906-75.007813v51.375c-11.019531 3.898437-17.632812 15.167969-15.65625 26.6875s11.964844 19.941406 23.65625 19.941406c11.6875 0 21.675781-8.421875 23.652344-19.941406 1.976562-11.519531-4.632813-22.789063-15.652344-26.6875v-51.375l62.503906 75.007813-35.449218 70.894531h-70.113282zm222.503906 206.894531c0 83.949219-68.054688 152-152 152-83.949219 0-152-68.050781-152-152v-109.101563c40.871094 20.792969 146.472656 21.101563 152 21.101563s111.128906-.308594 152-21.101563zm-152-104c-94.402344 0-148.183594-15.535157-152-23.542969v-.160156c2.253906-5.039063 27.65625-16.679688 92.230469-21.933594l12.609375 25.214844c1.355468 2.710937 4.125 4.425781 7.160156 4.421875h80c3.046875.019531 5.835938-1.695313 7.199219-4.421875l12.566406-25.175782c64.945313 5.289063 90.28125 17.015626 92.289063 21.253907-3.535157 8.714843-57.367188 24.34375-152.054688 24.34375zm168 102.035156v-60.066406c10.535156 6.226562 16.710938 17.816406 16 30.03125.710938 12.21875-5.464844 23.808593-16 30.035156zm0 0"/></svg>