<svg height="480pt" viewBox="-40 0 480 480.20169" width="480pt" xmlns="http://www.w3.org/2000/svg"><path d="m344.101562 320.1875h16c17.671876 0 32-17.914062 32-40 0-22.089844-14.328124-40-32-40h-16zm0 0" fill="#ccac9b"/><path d="m56.101562 320.1875h-16c-17.671874 0-32-17.914062-32-40 0-22.089844 14.328126-40 32-40h16zm0 0" fill="#ccac9b"/><path d="m40.101562 184.1875h320v128c0 88.363281-71.636718 160-160 160-88.367187 0-160-71.636719-160-160zm0 0" fill="#f5d7ca"/><path d="m360.101562 184.1875c0-17.675781-71.636718-32-160-32-88.367187 0-160 14.324219-160 32 0 17.671875 71.632813 32 160 32 88.363282 0 160-14.328125 160-32zm0 0" fill="#b9a095"/><g fill="#a8887a"><path d="m184.101562 368.1875c-2.464843-.003906-4.789062-1.136719-6.304687-3.078125s-2.050781-4.46875-1.457031-6.859375l16-64c.636718-2.832031 2.757812-5.097656 5.542968-5.917969 2.785157-.820312 5.792969-.070312 7.863282 1.964844 2.074218 2.03125 2.882812 5.027344 2.113281 7.824219l-12.757813 51.074218 19.054688-4.800781c4.273438-1.039062 8.582031 1.566407 9.648438 5.828125 1.070312 4.265625-1.503907 8.59375-5.761719 9.691406l-32 8c-.632813.167969-1.285157.261719-1.941407.273438zm0 0"/><path d="m128.101562 320.1875c-29.90625 0-39.367187-36.503906-39.761718-38.066406-1.074219-4.285156 1.527344-8.632813 5.8125-9.707032 4.285156-1.074218 8.632812 1.527344 9.707031 5.8125.066406.253907 6.832031 25.960938 24.242187 25.960938 17.40625 0 24.175782-25.707031 24.238282-25.960938 1.078125-4.285156 5.421875-6.886718 9.710937-5.8125 4.285157 1.074219 6.886719 5.421876 5.808594 9.707032-.390625 1.5625-9.855469 38.066406-39.757813 38.066406zm0 0"/><path d="m272.101562 320.1875c-29.90625 0-39.367187-36.503906-39.761718-38.066406-1.074219-4.285156 1.527344-8.632813 5.8125-9.707032 4.285156-1.074218 8.632812 1.527344 9.707031 5.8125.066406.253907 6.832031 25.960938 24.242187 25.960938 17.40625 0 24.175782-25.707031 24.238282-25.960938 1.078125-4.285156 5.421875-6.886718 9.710937-5.8125 4.285157 1.074219 6.886719 5.421876 5.808594 9.707032-.390625 1.5625-9.855469 38.066406-39.757813 38.066406zm0 0"/></g><path d="m128.101562 360.1875c0 13.253906-10.746093 24-24 24-13.253906 0-24-10.746094-24-24 0-13.257812 10.746094-24 24-24 13.253907 0 24 10.742188 24 24zm0 0" fill="#fdb5a6"/><path d="m320.101562 360.1875c0 13.253906-10.746093 24-24 24-13.253906 0-24-10.746094-24-24 0-13.257812 10.746094-24 24-24 13.253907 0 24 10.742188 24 24zm0 0" fill="#fdb5a6"/><path d="m288.101562 96.1875c0 48.597656-39.398437 88-88 88-48.601562 0-88-39.402344-88-88 0-48.601562 39.398438-88 88-88 48.601563 0 88 39.398438 88 88zm0 0" fill="#ffd946"/><path d="m192.339844 294.25-16 64c-.59375 2.390625-.058594 4.917969 1.457031 6.859375s3.839844 3.074219 6.304687 3.078125c.65625-.003906 1.308594-.082031 1.941407-.242188l32-8c4.257812-1.097656 6.832031-5.425781 5.761719-9.691406-1.066407-4.261718-5.375-6.867187-9.648438-5.828125l-19.054688 4.800781 12.757813-51.074218c.769531-2.796875-.039063-5.792969-2.113281-7.824219-2.070313-2.03125-5.078125-2.785156-7.863282-1.964844-2.785156.824219-4.90625 3.085938-5.542968 5.917969zm0 0"/><path d="m162.0625 272.441406c-4.28125-1.085937-8.632812 1.503906-9.722656 5.785156-.0625.253907-6.832032 25.960938-24.238282 25.960938-17.410156 0-24.175781-25.707031-24.242187-25.960938-1.074219-4.285156-5.421875-6.886718-9.707031-5.8125-4.285156 1.074219-6.886719 5.421876-5.8125 9.707032.394531 1.5625 9.855468 38.066406 39.761718 38.066406 29.902344 0 39.367188-36.503906 39.757813-38.066406 1.0625-4.273438-1.53125-8.597656-5.796875-9.679688zm0 0"/><path d="m272.101562 320.1875c29.902344 0 39.367188-36.503906 39.757813-38.066406 1.078125-4.285156-1.523437-8.632813-5.808594-9.707032-4.289062-1.074218-8.632812 1.527344-9.710937 5.8125-.0625.253907-6.832032 25.960938-24.238282 25.960938-17.410156 0-24.175781-25.707031-24.242187-25.960938-1.074219-4.285156-5.421875-6.886718-9.707031-5.8125-4.285156 1.074219-6.886719 5.421876-5.8125 9.707032.394531 1.5625 9.855468 38.066406 39.761718 38.066406zm0 0"/><path d="m184.101562 104.1875h8v16h-16c-4.417968 0-8 3.582031-8 8s3.582032 8 8 8h16v8c0 4.417969 3.582032 8 8 8 4.417969 0 8-3.582031 8-8v-8h8c13.253907 0 24-10.746094 24-24 0-13.257812-10.746093-24-24-24h-8v-16h16c4.417969 0 8-3.582031 8-8s-3.582031-8-8-8h-16v-16c0-4.417969-3.582031-8-8-8-4.417968 0-8 3.582031-8 8v16h-8c-13.253906 0-24 10.742188-24 24 0 13.253906 10.746094 24 24 24zm24 0h8c4.417969 0 8 3.582031 8 8s-3.582031 8-8 8h-8zm-24-32h8v16h-8c-4.417968 0-8-3.582031-8-8s3.582032-8 8-8zm0 0"/><path d="m368.101562 233.152344v-48.964844c0-20.800781-44.550781-30.867188-87.59375-35.730469 26.179688-40.125 18.769532-93.40625-17.367187-124.863281-36.132813-31.457031-89.929687-31.457031-126.066406 0-36.132813 31.457031-43.542969 84.738281-17.367188 124.863281-43.054687 4.863281-87.605469 14.929688-87.605469 35.730469v48.964844c-18.234374 4.464844-32 23.832031-32 47.035156 0 23.503906 14.160157 43.070312 32.800782 47.199219 7.808594 86.53125 80.34375 152.816406 167.230468 152.816406 86.886719 0 159.421876-66.285156 167.230469-152.816406 18.578125-4.128907 32.738281-23.695313 32.738281-47.199219 0-23.203125-13.769531-42.570312-32-47.035156zm-336 77.066406c-10.535156-6.226562-16.710937-17.816406-16-30.03125-.710937-12.21875 5.464844-23.808594 16-30.035156zm168-294.03125c44.183594 0 80 35.816406 80 80 0 44.179688-35.816406 80-80 80-44.183593 0-80-35.820312-80-80 .046876-44.164062 35.835938-79.953125 80-80zm152 296c0 83.945312-68.054687 152-152 152-83.949218 0-152-68.054688-152-152v-109.105469c40.871094 20.792969 146.472657 21.105469 152 21.105469 5.527344 0 111.128907-.3125 152-21.105469zm-152-104c-94.402343 0-148.183593-15.539062-152-23.546875v-.167969c2.09375-4.640625 25.152344-15.535156 83.496094-21.152344 18.011719 18.460938 42.710938 28.867188 68.503906 28.867188 25.789063 0 50.488282-10.40625 68.503907-28.867188 58.703125 5.648438 81.695312 16.625 83.550781 20.480469-3.535156 8.753907-57.367188 24.386719-152.054688 24.386719zm168 102.03125v-60.066406c10.535157 6.226562 16.710938 17.816406 16 30.035156.710938 12.214844-5.464843 23.804688-16 30.03125zm0 0"/></svg>