<svg height="480pt" viewBox="-40 0 480 480.01678" width="480pt" xmlns="http://www.w3.org/2000/svg"><path d="m344.007812 320h16c17.671876 0 32-17.910156 32-40 0-22.085938-14.328124-40-32-40h-16zm0 0" fill="#ccac9b"/><path d="m56.007812 320h-16c-17.671874 0-32-17.910156-32-40 0-22.085938 14.328126-40 32-40h16zm0 0" fill="#ccac9b"/><path d="m40.007812 184h320v128c0 88.367188-71.632812 160-160 160-88.363281 0-160-71.632812-160-160zm0 0" fill="#f5d7ca"/><path d="m360.007812 184c0-17.671875-71.632812-32-160-32-88.363281 0-160 14.328125-160 32 0 17.675781 71.636719 32 160 32 88.367188 0 160-14.324219 160-32zm0 0" fill="#b9a095"/><g fill="#a8887a"><path d="m184.007812 368c-2.460937 0-4.785156-1.132812-6.300781-3.074219-1.515625-1.941406-2.054687-4.472656-1.457031-6.859375l16-64c.636719-2.832031 2.757812-5.097656 5.539062-5.917968 2.785157-.820313 5.792969-.070313 7.867188 1.960937 2.070312 2.035156 2.878906 5.027344 2.113281 7.828125l-12.761719 51.070312 19.054688-4.796874c4.273438-1.039063 8.582031 1.5625 9.652344 5.828124 1.066406 4.265626-1.507813 8.589844-5.761719 9.691407l-32 8c-.636719.167969-1.289063.257812-1.945313.269531zm0 0"/><path d="m128.007812 320c-29.902343 0-39.367187-36.503906-39.757812-38.0625-1.078125-4.285156 1.523438-8.632812 5.808594-9.707031 4.289062-1.078125 8.632812 1.523437 9.710937 5.8125.0625.253906 6.832031 25.957031 24.238281 25.957031 17.410157 0 24.175782-25.703125 24.242188-25.957031 1.074219-4.289063 5.421875-6.890625 9.707031-5.8125 4.285157 1.074219 6.886719 5.421875 5.8125 9.707031-.394531 1.558594-9.855469 38.0625-39.761719 38.0625zm0 0"/><path d="m272.007812 320c-29.902343 0-39.367187-36.503906-39.757812-38.0625-1.078125-4.285156 1.523438-8.632812 5.808594-9.707031 4.289062-1.078125 8.632812 1.523437 9.710937 5.8125.0625.253906 6.832031 25.957031 24.238281 25.957031 17.410157 0 24.175782-25.703125 24.242188-25.957031 1.074219-4.289063 5.421875-6.890625 9.707031-5.8125 4.285157 1.074219 6.886719 5.421875 5.8125 9.707031-.394531 1.558594-9.855469 38.0625-39.761719 38.0625zm0 0"/></g><path d="m128.007812 360c0 13.257812-10.746093 24-24 24-13.253906 0-24-10.742188-24-24 0-13.253906 10.746094-24 24-24 13.253907 0 24 10.746094 24 24zm0 0" fill="#fdb5a6"/><path d="m320.007812 360c0 13.257812-10.746093 24-24 24-13.253906 0-24-10.742188-24-24 0-13.253906 10.746094-24 24-24 13.253907 0 24 10.746094 24 24zm0 0" fill="#fdb5a6"/><path d="m280.007812 136c0 17.675781-14.328124 32-32 32-17.671874 0-32-14.324219-32-32 0-17.671875 14.328126-32 32-32 17.671876 0 32 14.328125 32 32zm0 0" fill="#f6aa54"/><path d="m168.007812 152c0 17.675781-14.328124 32-32 32-17.671874 0-32-14.324219-32-32 0-17.671875 14.328126-32 32-32 17.671876 0 32 14.328125 32 32zm0 0" fill="#f6aa54"/><path d="m168.007812 24v32l112-16v-32" fill="#ffd946"/><path d="m368.007812 232.96875v-48.96875c0-16.613281-27.703124-28.390625-82.320312-35.09375 1.488281-4.144531 2.273438-8.503906 2.320312-12.90625v-128c0-2.320312-1.007812-4.523438-2.757812-6.042969-1.753906-1.523437-4.082031-2.207031-6.378906-1.8749998l-112 15.9999998c-3.9375.5625-6.863282 3.9375-6.863282 7.917969v96.210938c-6.882812-5.296876-15.316406-8.179688-24-8.210938-21.9375 0-39.785156 17.671875-40 39.609375-63.839843 10.6875-64 26.925781-64 32.390625v48.96875c-18.230468 4.464844-31.9999995 23.832031-31.9999995 47.03125 0 23.503906 14.1601565 43.074219 32.8007815 47.199219 7.8125 86.535156 80.347656 152.816406 167.230468 152.816406 86.886719 0 159.421876-66.28125 167.234376-152.816406 18.574218-4.125 32.734374-23.695313 32.734374-47.199219 0-23.199219-13.765624-42.566406-32-47.03125zm-336 77.0625c-10.535156-6.222656-16.710937-17.8125-16-30.03125-.710937-12.214844 5.464844-23.804688 16-30.03125zm144-279.09375 96-13.710938v15.839844l-96 13.710938zm0 32 96-13.710938v54.984376c-6.882812-5.296876-15.316406-8.179688-24-8.210938-12.039062-.007812-23.445312 5.40625-31.046874 14.738281-7.605469 9.335938-10.597657 21.601563-8.152344 33.390625-10.945313-.113281-21.960938 0-32.800782.3125zm96 73.0625c0 13.257812-10.746093 24-24 24-13.253906 0-24-10.742188-24-24 0-13.253906 10.746094-24 24-24 13.253907 0 24 10.746094 24 24zm-136-8c13.253907 0 24 10.746094 24 24 0 13.257812-10.746093 24-24 24-13.253906 0-24-10.742188-24-24 0-13.253906 10.746094-24 24-24zm216 184c0 83.949219-68.050781 152-152 152-83.945312 0-152-68.050781-152-152v-109.101562c40.871094 20.789062 146.472657 21.101562 152 21.101562 5.527344 0 111.128907-.3125 152-21.101562zm-152-104c-94.398437 0-148.183593-15.535156-152-23.542969v-.167969c1.234376-2.59375 13.046876-10.664062 51.066407-17 6.664062 16.179688 23.082031 26.136719 40.511719 24.574219 17.425781-1.566406 31.808593-14.289062 35.488281-31.398437 13.460937-.421875 27.359375-.574219 40.796875-.304688v-.582031c6.882812 9.5 17.613281 15.472656 29.3125 16.320313 11.699218.84375 23.175781-3.523438 31.351562-11.9375 52.992188 5.878906 73.832032 16.175781 75.539063 19.65625-3.546875 8.75-57.378907 24.382812-152.066407 24.382812zm168 102.03125v-60.0625c10.535157 6.226562 16.710938 17.816406 16 30.03125.710938 12.21875-5.464843 23.808594-16 30.03125zm0 0"/><path d="m192.25 294.058594-16 64c-.601562 2.390625-.0625 4.921875 1.453125 6.863281 1.515625 1.945313 3.839844 3.078125 6.304687 3.078125.65625 0 1.308594-.082031 1.945313-.238281l32-8c2.789063-.679688 5.003906-2.800781 5.796875-5.558594.796875-2.761719.050781-5.734375-1.949219-7.792969-2.003906-2.058594-4.957031-2.886718-7.738281-2.167968l-19.054688 4.757812 12.761719-51.054688c.714844-2.78125-.109375-5.734374-2.167969-7.734374-2.0625-2.003907-5.035156-2.746094-7.792968-1.953126-2.761719.796876-4.882813 3.007813-5.558594 5.800782zm0 0"/><path d="m161.96875 272.257812c-4.28125-1.085937-8.632812 1.503907-9.71875 5.785157-.066406.261719-6.832031 25.957031-24.242188 25.957031-17.40625 0-24.175781-25.695312-24.238281-25.957031-1.078125-4.289063-5.425781-6.886719-9.714843-5.808594-4.285157 1.078125-6.882813 5.425781-5.804688 9.710937.390625 1.550782 9.855469 38.054688 39.757812 38.054688 29.90625 0 39.367188-36.503906 39.761719-38.054688 1.0625-4.277343-1.53125-8.605468-5.800781-9.6875zm0 0"/><path d="m272.007812 320c29.90625 0 39.367188-36.503906 39.761719-38.054688 1.078125-4.285156-1.523437-8.632812-5.808593-9.710937-4.285157-1.078125-8.632813 1.519531-9.710938 5.808594-.066406.261719-6.832031 25.957031-24.242188 25.957031-17.40625 0-24.175781-25.695312-24.238281-25.957031-1.078125-4.289063-5.425781-6.886719-9.714843-5.808594-4.285157 1.078125-6.882813 5.425781-5.804688 9.710937.390625 1.550782 9.855469 38.054688 39.757812 38.054688zm0 0"/></svg>