<svg height="480pt" viewBox="-40 0 480 480.01571" width="480pt" xmlns="http://www.w3.org/2000/svg"><path d="m344.007812 320h16c17.671876 0 32-17.910156 32-40s-14.328124-40-32-40h-16zm0 0" fill="#ccac9b"/><path d="m56.007812 320h-16c-17.671874 0-32-17.910156-32-40s14.328126-40 32-40h16zm0 0" fill="#ccac9b"/><path d="m40.007812 184h320v128c0 88.367188-71.632812 160-160 160-88.367187 0-160-71.632812-160-160zm0 0" fill="#f5d7ca"/><path d="m360.007812 184c0-17.671875-71.632812-32-160-32-88.367187 0-160 14.328125-160 32s71.632813 32 160 32c88.367188 0 160-14.328125 160-32zm0 0" fill="#b9a095"/><g fill="#a8887a"><path d="m184.007812 368c-2.460937 0-4.785156-1.136719-6.300781-3.074219-1.515625-1.941406-2.054687-4.472656-1.460937-6.863281l16-64c.640625-2.828125 2.757812-5.09375 5.542968-5.914062 2.785157-.824219 5.792969-.070313 7.867188 1.960937 2.070312 2.03125 2.878906 5.027344 2.113281 7.828125l-12.761719 51.070312 19.054688-4.800781c4.273438-1.035156 8.582031 1.566407 9.648438 5.832031 1.070312 4.261719-1.503907 8.589844-5.757813 9.6875l-32 8c-.636719.171876-1.289063.261719-1.945313.273438zm0 0"/><path d="m128.007812 320c-29.902343 0-39.367187-36.503906-39.761718-38.0625-1.074219-4.289062 1.527344-8.632812 5.8125-9.710938 4.285156-1.074218 8.632812 1.527344 9.710937 5.8125.0625.257813 6.832031 25.960938 24.238281 25.960938s24.175782-25.703125 24.238282-25.960938c1.078125-4.285156 5.425781-6.886718 9.710937-5.8125 4.285157 1.078126 6.886719 5.421876 5.8125 9.710938-.394531 1.558594-9.859375 38.0625-39.761719 38.0625zm0 0"/><path d="m272.007812 320c-29.902343 0-39.367187-36.503906-39.761718-38.0625-1.074219-4.289062 1.527344-8.632812 5.8125-9.710938 4.285156-1.074218 8.632812 1.527344 9.710937 5.8125.0625.257813 6.832031 25.960938 24.238281 25.960938s24.175782-25.703125 24.238282-25.960938c1.078125-4.285156 5.425781-6.886718 9.710937-5.8125 4.285157 1.078126 6.886719 5.421876 5.8125 9.710938-.394531 1.558594-9.859375 38.0625-39.761719 38.0625zm0 0"/></g><path d="m128.007812 360c0 13.253906-10.746093 24-24 24-13.253906 0-24-10.746094-24-24s10.746094-24 24-24c13.253907 0 24 10.746094 24 24zm0 0" fill="#fdb5a6"/><path d="m320.007812 360c0 13.253906-10.746093 24-24 24-13.253906 0-24-10.746094-24-24s10.746094-24 24-24c13.253907 0 24 10.746094 24 24zm0 0" fill="#fdb5a6"/><path d="m288.007812 96c0 48.601562-39.398437 88-88 88-48.601562 0-88-39.398438-88-88s39.398438-88 88-88c48.601563 0 88 39.398438 88 88zm0 0" fill="#cfedfe"/><path d="m271.207031 159.953125c33.035157-36.238281 33.035157-91.667969 0-127.90625-.128906-.253906-.273437-.503906-.429687-.742187-.648438-.710938-1.386719-1.328126-2.058594-2.023438-.503906-.519531-1.039062-1.023438-1.597656-1.539062-1.738282-1.710938-3.503906-3.375-5.351563-4.933594-.464843-.394532-.953125-.753906-1.425781-1.136719-1.953125-1.601563-3.929688-3.136719-5.992188-4.558594-.464843-.320312-.960937-.601562-1.433593-.921875-2.117188-1.40625-4.253907-2.792968-6.476563-4-.449218-.246094-.921875-.449218-1.371094-.6875-10.519531-5.664062-22.007812-9.3125-33.871093-10.75-.113281 0-.214844-.042968-.328125-.050781-3.039063-.351563-6.101563-.527344-9.175782-.582031-.160156 0-.3125 0-.472656 0-.414062-.058594-.796875-.121094-1.214844-.121094-.414062 0-.800781.0625-1.257812.0625-.15625 0-.308594 0-.46875 0-3.074219.058594-6.136719.234375-9.175781.585938-.113281 0-.21875 0-.328125.046874-11.863282 1.441407-23.351563 5.089844-33.875 10.753907-.445313.238281-.917969.4375-1.367188.6875-2.222656 1.230469-4.359375 2.617187-6.480468 4-.472657.320312-.96875.597656-1.429688.917969-2.066406 1.425781-4.042969 2.976562-5.992188 4.5625-.472656.382812-.960937.742187-1.425781 1.136718-1.847656 1.597656-3.613281 3.199219-5.351562 4.933594-.519531.511719-1.054688 1.015625-1.601563 1.535156-.671875.699219-1.40625 1.3125-2.054687 2.023438-.160157.242187-.304688.488281-.429688.746094-33.035156 36.234374-33.035156 91.667968 0 127.902343.125.257813.269531.507813.429688.746094.648437.710937 1.382812 1.328125 2.054687 2.023437.507813.519532 1.042969 1.023438 1.601563 1.535157 1.738281 1.710937 3.503906 3.375 5.351562 4.9375.464844.390625.953125.75 1.425781 1.136719 1.949219 1.597656 3.925782 3.132812 5.992188 4.558593.460938.320313.957031.601563 1.429688.921875 2.121093 1.40625 4.257812 2.789063 6.480468 4 .449219.246094.921875.445313 1.367188.6875 10.523437 5.664063 22.011718 9.308594 33.875 10.75.109375 0 .214844.039063.328125.046875 3.039062.355469 6.101562.53125 9.175781.585938h.46875.097656c.398438 0 .800782.0625 1.183594.0625s.800781-.054688 1.183594-.0625h.097656.472656c3.070313-.054688 6.132813-.230469 9.175782-.585938.109374 0 .214843 0 .328124-.046875 11.859376-1.441406 23.347657-5.085937 33.871094-10.75.449219-.242187.917969-.441406 1.367188-.6875 2.222656-1.234375 4.359375-2.617187 6.480468-4 .472657-.320312.96875-.601562 1.433594-.921875 2.0625-1.425781 4-2.976562 5.992188-4.558593.46875-.386719.957031-.746094 1.421875-1.136719 1.847656-1.601563 3.617187-3.199219 5.351562-4.9375.519531-.511719 1.058594-1.015625 1.601563-1.535157.671875-.695312 1.40625-1.3125 2.054687-2.023437.128907-.222656.242188-.453125.34375-.6875zm-8.078125-15.152344c-6.765625-3.960937-13.902344-7.242187-21.3125-9.792969 3.175782-10.0625 5.109375-20.476562 5.757813-31.007812h32c-1.519531 14.878906-7.222657 29.027344-16.445313 40.800781zm-94.703125-40.800781h63.199219c-.636719 9.082031-2.390625 18.050781-5.21875 26.703125-17.390625-3.605469-35.339844-3.605469-52.734375 0-2.839844-8.652344-4.601563-17.621094-5.246094-26.703125zm0-16c.566407-9.085938 2.242188-18.070312 4.980469-26.753906 8.75 1.832031 17.664062 2.753906 26.601562 2.753906s17.851563-.921875 26.601563-2.753906c2.738281 8.683594 4.414063 17.667968 4.984375 26.753906zm31.582031 56c6.710938.058594 13.402344.710938 20 1.945312-5.011718 9.960938-11.785156 18.929688-20 26.46875-8.214843-7.539062-14.988281-16.507812-20-26.46875 6.597657-1.234374 13.289063-1.886718 20-1.945312zm-21.761718 28.800781c-11.03125-3.175781-21.257813-8.683593-29.980469-16.144531 5.046875-2.652344 10.308594-4.882812 15.726563-6.671875 3.8125 8.152344 8.597656 15.8125 14.253906 22.816406zm43.523437 0c5.648438-6.992187 10.429688-14.644531 14.238281-22.785156 5.417969 1.789063 10.675782 4.019531 15.726563 6.671875-8.722656 7.449219-18.941406 12.945312-29.964844 16.113281zm41.4375-125.601562c9.195313 11.789062 14.875 25.929687 16.394531 40.800781h-32c-.601562-10.535156-2.503906-20.957031-5.664062-31.023438 7.394531-2.546874 14.519531-5.820312 21.269531-9.777343zm-37.871093-26.960938c.496093.167969 1 .3125 1.488281.488281 2.160156.773438 4.273437 1.640626 6.34375 2.59375l.414062.175782c6.582031 3.089844 12.71875 7.054687 18.242188 11.785156-5.046875 2.652344-10.304688 4.886719-15.71875 6.679688-3.851563-8.132813-8.664063-15.777344-14.335938-22.761719 1.191407.3125 2.390625.648437 3.566407 1.039062zm-25.328126-.652343c8.261719 7.515624 15.082032 16.480468 20.128907 26.445312-6.636719 1.253906-13.375 1.910156-20.128907 1.96875-6.753906-.058594-13.492187-.714844-20.128906-1.96875 5.046875-9.964844 11.867188-18.929688 20.128906-26.445312zm-33.601562 3.910156.417969-.175782c2.074219-.949218 4.1875-1.8125 6.34375-2.59375.488281-.175781.992187-.320312 1.488281-.488281 1.175781-.390625 2.398438-.726562 3.566406-1.070312-5.671875 6.996093-10.488281 14.648437-14.335937 22.792969-5.414063-1.792969-10.671875-4.027344-15.71875-6.679688 5.523437-4.730469 11.65625-8.695312 18.238281-11.785156zm-29.597656 23.703125c6.746094 3.960937 13.867187 7.242187 21.261718 9.792969-3.148437 10.0625-5.042968 20.480468-5.628906 31.007812h-32c1.507813-14.867188 7.183594-29.011719 16.367188-40.800781zm15.597656 56.800781c.652344 10.527344 2.585938 20.933594 5.761719 30.992188-7.398438 2.558593-14.527344 5.84375-21.28125 9.808593-9.234375-11.773437-14.945313-25.917969-16.472657-40.800781zm0 0" fill="#2d87a1"/><path d="m192.246094 294.0625-16 64c-.59375 2.390625-.054688 4.921875 1.460937 6.863281 1.515625 1.9375 3.839844 3.074219 6.300781 3.074219.65625 0 1.308594-.082031 1.945313-.238281l32-8c4.253906-1.101563 6.828125-5.425781 5.757813-9.691407-1.066407-4.265624-5.375-6.867187-9.648438-5.832031l-19.054688 4.800781 12.761719-51.070312c.765625-2.800781-.042969-5.792969-2.113281-7.828125-2.074219-2.03125-5.082031-2.78125-7.867188-1.960937-2.785156.820312-4.902343 3.085937-5.542968 5.917968zm0 0"/><path d="m161.96875 272.257812c-4.28125-1.085937-8.632812 1.5-9.722656 5.78125-.0625.257813-6.832032 25.960938-24.238282 25.960938s-24.175781-25.703125-24.238281-25.960938c-1.078125-4.285156-5.425781-6.886718-9.710937-5.8125-4.285156 1.078126-6.886719 5.421876-5.8125 9.710938.394531 1.558594 9.859375 38.0625 39.761718 38.0625 29.902344 0 39.367188-36.503906 39.761719-38.0625 1.058594-4.273438-1.535156-8.601562-5.800781-9.679688zm0 0"/><path d="m272.007812 320c29.902344 0 39.367188-36.503906 39.761719-38.0625 1.074219-4.289062-1.527343-8.632812-5.8125-9.710938-4.285156-1.074218-8.632812 1.527344-9.710937 5.8125-.0625.257813-6.832032 25.960938-24.238282 25.960938s-24.175781-25.703125-24.238281-25.960938c-1.078125-4.285156-5.425781-6.886718-9.710937-5.8125-4.285156 1.078126-6.886719 5.421876-5.8125 9.710938.394531 1.558594 9.859375 38.0625 39.761718 38.0625zm0 0"/><path d="m368.007812 232.96875v-48.96875c0-20.800781-44.550781-30.863281-87.59375-35.726562 8.382813-12.78125 13.5625-27.390626 15.105469-42.59375.652344-6.4375.652344-12.921876 0-19.359376-2.09375-20.433593-10.71875-39.644531-24.589843-54.792968-.058594-.0625-.066407-.160156-.128907-.222656-.226562-.242188-.480469-.449219-.703125-.6875-1.800781-1.9375-3.691406-3.785157-5.640625-5.601563-.464843-.421875-.914062-.847656-1.386719-1.253906-2.101562-1.839844-4.285156-3.578125-6.550781-5.234375-.34375-.246094-.671875-.511719-1.007812-.757813-2.527344-1.792969-5.140625-3.46875-7.839844-5.027343l-.265625-.15625c-14.003906-8.011719-29.816406-12.328126-45.949219-12.554688h-.183593c-.464844.0234375-.839844-.03125-1.265626-.03125-.425781 0-.839843.0546875-1.265624.0625h-.183594c-16.132813.226562-31.945313 4.542969-45.949219 12.554688l-.265625.160156c-2.699219 1.550781-5.3125 3.226562-7.839844 5.023437-.335937.246094-.664062.511719-1.007812.757813-2.265625 1.65625-4.449219 3.394531-6.550782 5.234375-.472656.40625-.921874.800781-1.386718 1.253906-1.949219 1.777344-3.839844 3.625-5.597656 5.601563-.226563.238281-.480469.449218-.707032.6875-.0625.0625-.070312.160156-.125.222656-13.875 15.148437-22.496094 34.359375-24.59375 54.792968-.648437 6.4375-.648437 12.921876 0 19.359376 1.542969 15.203124 6.722656 29.8125 15.105469 42.59375-43.082031 4.832031-87.632813 14.894531-87.632813 35.695312v48.96875c-18.230468 4.464844-31.9999995 23.832031-31.9999995 47.03125 0 23.503906 14.1601565 43.070312 32.8007815 47.199219 7.8125 86.535156 80.347656 152.816406 167.230468 152.816406 86.886719 0 159.421876-66.28125 167.234376-152.816406 18.574218-4.128907 32.734374-23.695313 32.734374-47.199219 0-23.199219-13.769531-42.566406-32-47.03125zm-336 77.0625c-10.535156-6.226562-16.710937-17.816406-16-30.03125-.710937-12.214844 5.464844-23.804688 16-30.03125zm231.199219-262.832031c7.589844 9.726562 12.816407 21.082031 15.273438 33.167969.136719.671874.199219 1.367187.3125 2.039062.328125 1.859375.648437 3.714844.800781 5.601562h-32c-.601562-10.535156-2.503906-20.957031-5.664062-31.023437 7.398437-2.546875 14.527343-5.824219 21.277343-9.785156zm-63.199219 80.800781c-8.9375 0-17.851562.921875-26.601562 2.753906-2.738281-8.683594-4.414062-17.667968-4.980469-26.753906h63.199219c-.570312 9.085938-2.246094 18.070312-4.984375 26.753906-8.757813-1.832031-17.683594-2.757812-26.632813-2.753906zm20.128907 17.960938c-5.042969 9.96875-11.867188 18.933593-20.128907 26.453124-8.261718-7.519531-15.085937-16.484374-20.128906-26.453124 13.292969-2.613282 26.964844-2.613282 40.257813 0zm-41.890625 26.839843c-1.191406-.34375-2.398438-.679687-3.566406-1.074219-.496094-.167968-1-.3125-1.488282-.488281-2.132812-.773437-4.246094-1.636719-6.34375-2.589843l-.414062-.175782c-6.582032-3.089844-12.71875-7.054687-18.242188-11.785156 5.046875-2.65625 10.304688-4.890625 15.71875-6.679688 3.851563 8.144532 8.664063 15.796876 14.335938 22.792969zm-9.820313-84.800781c.566407-9.085938 2.242188-18.070312 4.980469-26.753906 8.75 1.832031 17.664062 2.753906 26.601562 2.753906s17.851563-.921875 26.601563-2.753906c2.738281 8.683594 4.414063 17.667968 4.984375 26.753906zm67.679688 62.039062c5.414062 1.792969 10.671875 4.027344 15.71875 6.679688-5.523438 4.730469-11.660157 8.695312-18.242188 11.785156l-.414062.175782c-2.074219.949218-4.1875 1.8125-6.34375 2.59375-.488281.175781-.992188.320312-1.488281.488281-1.175782.390625-2.398438.726562-3.566407 1.070312 5.671875-6.996093 10.484375-14.648437 14.335938-22.792969zm5.804687-15.015624c3.164063-10.066407 5.066406-20.488282 5.664063-31.023438h32c-.191407 1.894531-.511719 3.753906-.796875 5.601562-.113282.671876-.175782 1.367188-.3125 2.039063-2.453125 12.082031-7.675782 23.433594-15.257813 33.160156-6.757812-3.957031-13.890625-7.234375-21.296875-9.777343zm-16.574218-114.785157c.496093.167969 1 .3125 1.488281.488281 2.160156.773438 4.273437 1.640626 6.34375 2.59375l.414062.175782c6.582031 3.089844 12.71875 7.054687 18.242188 11.785156-5.046875 2.652344-10.304688 4.886719-15.71875 6.679688-3.851563-8.132813-8.664063-15.777344-14.335938-22.761719 1.191407.3125 2.390625.648437 3.566407 1.039062zm-25.328126-.652343c8.261719 7.515624 15.082032 16.480468 20.128907 26.445312-6.636719 1.253906-13.375 1.910156-20.128907 1.96875-6.753906-.058594-13.492187-.714844-20.128906-1.96875 5.046875-9.964844 11.867188-18.929688 20.128906-26.445312zm-33.601562 3.910156.417969-.175782c2.074219-.949218 4.1875-1.8125 6.34375-2.59375.488281-.175781.992187-.320312 1.488281-.488281 1.175781-.390625 2.398438-.726562 3.566406-1.070312-5.671875 6.996093-10.488281 14.648437-14.335937 22.792969-5.414063-1.792969-10.671875-4.027344-15.71875-6.679688 5.523437-4.730469 11.65625-8.695312 18.238281-11.785156zm-45.152344 58.902344c.113282-.671876.179688-1.367188.3125-2.039063 2.449219-12.082031 7.667969-23.433594 15.242188-33.160156 6.746094 3.960937 13.867187 7.242187 21.261718 9.792969-3.148437 10.0625-5.042968 20.480468-5.628906 31.007812h-32c.167969-1.894531.488282-3.753906.8125-5.601562zm31.203125 21.601562c.597657 10.535156 2.5 20.957031 5.664063 31.023438-7.410156 2.542968-14.550782 5.820312-21.3125 9.777343-7.558594-9.730469-12.761719-21.078125-15.199219-33.152343-.136719-.671876-.203125-1.367188-.3125-2.039063-.328125-1.855469-.648437-3.714844-.839844-5.601563zm199.550781 208c0 83.949219-68.050781 152-152 152-83.945312 0-152-68.050781-152-152v-109.105469c40.871094 20.792969 146.472657 21.105469 152 21.105469 5.527344 0 111.128907-.3125 152-21.105469zm-152-104c-94.398437 0-148.183593-15.535156-152-23.542969v-.167969c2.097657-4.640624 25.152344-15.535156 83.496094-21.152343 1.304688 1.328125 2.6875 2.558593 4.054688 3.808593.464844.421876.914062.847657 1.386718 1.253907 2.101563 1.839843 4.285157 3.578125 6.550782 5.234375.34375.246094.671875.511718 1.007812.796875 2.527344 1.792969 5.140625 3.46875 7.839844 5.027343l.265625.15625c14.003906 8.011719 29.816406 12.328126 45.949219 12.554688h.21875c.414062 0 .796875.0625 1.230468.0625.433594 0 .800782-.054688 1.230469-.0625h.21875c16.132813-.226562 31.945313-4.542969 45.949219-12.554688l.265625-.15625c2.699219-1.554687 5.3125-3.226562 7.839844-5.027343.335937-.246094.664062-.511719 1.007812-.796875 2.265625-1.65625 4.449219-3.394532 6.550781-5.234375.472657-.40625.921876-.800781 1.386719-1.253907 1.367188-1.25 2.75-2.480468 4.054688-3.808593 58.703125 5.648437 81.695312 16.625 83.550781 20.480469-3.535156 8.75-57.367188 24.382812-152.054688 24.382812zm168 102.03125v-60.0625c10.535157 6.226562 16.710938 17.816406 16 30.03125.710938 12.214844-5.464843 23.804688-16 30.03125zm0 0"/></svg>