<svg height="480pt" viewBox="-40 0 480 480.01571" width="480pt" xmlns="http://www.w3.org/2000/svg"><path d="m344.007812 320h16c17.671876 0 32-17.910156 32-40s-14.328124-40-32-40h-16zm0 0" fill="#ccac9b"/><path d="m56.007812 320h-16c-17.671874 0-32-17.910156-32-40s14.328126-40 32-40h16zm0 0" fill="#ccac9b"/><path d="m40.007812 184h320v128c0 88.367188-71.632812 160-160 160-88.367187 0-160-71.632812-160-160zm0 0" fill="#f5d7ca"/><path d="m360.007812 184c0-17.671875-71.632812-32-160-32-88.367187 0-160 14.328125-160 32s71.632813 32 160 32c88.367188 0 160-14.328125 160-32zm0 0" fill="#b9a095"/><g fill="#a8887a"><path d="m184.007812 368c-2.460937 0-4.785156-1.136719-6.300781-3.074219-1.515625-1.941406-2.054687-4.472656-1.460937-6.863281l16-64c.640625-2.828125 2.757812-5.09375 5.542968-5.914062 2.785157-.824219 5.792969-.070313 7.867188 1.960937 2.070312 2.03125 2.878906 5.027344 2.113281 7.828125l-12.761719 51.070312 19.054688-4.800781c4.273438-1.035156 8.582031 1.566407 9.648438 5.832031 1.070312 4.261719-1.503907 8.589844-5.757813 9.6875l-32 8c-.636719.171876-1.289063.261719-1.945313.273438zm0 0"/><path d="m128.007812 320c-29.902343 0-39.367187-36.503906-39.761718-38.0625-1.074219-4.289062 1.527344-8.632812 5.8125-9.710938 4.285156-1.074218 8.632812 1.527344 9.710937 5.8125.0625.257813 6.832031 25.960938 24.238281 25.960938s24.175782-25.703125 24.238282-25.960938c1.078125-4.285156 5.425781-6.886718 9.710937-5.8125 4.285157 1.078126 6.886719 5.421876 5.8125 9.710938-.394531 1.558594-9.859375 38.0625-39.761719 38.0625zm0 0"/><path d="m272.007812 320c-29.902343 0-39.367187-36.503906-39.761718-38.0625-1.074219-4.289062 1.527344-8.632812 5.8125-9.710938 4.285156-1.074218 8.632812 1.527344 9.710937 5.8125.0625.257813 6.832031 25.960938 24.238281 25.960938s24.175782-25.703125 24.238282-25.960938c1.078125-4.285156 5.425781-6.886718 9.710937-5.8125 4.285157 1.078126 6.886719 5.421876 5.8125 9.710938-.394531 1.558594-9.859375 38.0625-39.761719 38.0625zm0 0"/></g><path d="m128.007812 360c0 13.253906-10.746093 24-24 24-13.253906 0-24-10.746094-24-24s10.746094-24 24-24c13.253907 0 24 10.746094 24 24zm0 0" fill="#fdb5a6"/><path d="m320.007812 360c0 13.253906-10.746093 24-24 24-13.253906 0-24-10.746094-24-24s10.746094-24 24-24c13.253907 0 24 10.746094 24 24zm0 0" fill="#fdb5a6"/><path d="m200.007812 8h48c0 24 32 48 32 48 0 112-80 128-80 128s-80-16-80-128c0 0 32-24 32-48zm0 0" fill="#81b7c7"/><path d="m200.007812 32c-13.253906 0-24 10.746094-24 24v16c0 4.417969 3.582032 8 8 8h8v-24c0-4.417969 3.582032-8 8-8 4.417969 0 8 3.582031 8 8v24h8c4.417969 0 8-3.582031 8-8v-16c0-13.253906-10.746093-24-24-24zm0 0" fill="#ffd946"/><path d="m168.007812 72h64v48h-64zm0 0" fill="#ffd946"/><path d="m192.246094 294.0625-16 64c-.675782 2.726562.121094 5.605469 2.109375 7.589844 1.984375 1.988281 4.863281 2.785156 7.589843 2.109375l32-8c2.828126-.640625 5.09375-2.757813 5.914063-5.542969.824219-2.785156.070313-5.792969-1.960937-7.867188-2.03125-2.070312-5.027344-2.878906-7.828126-2.113281l-19.070312 4.800781 12.800781-51.070312c.765625-2.800781-.042969-5.792969-2.113281-7.828125-2.070312-2.03125-5.082031-2.78125-7.867188-1.960937-2.78125.820312-4.902343 3.085937-5.539062 5.917968zm0 0"/><path d="m161.96875 272.257812c-4.28125-1.085937-8.632812 1.5-9.722656 5.78125-.0625.257813-6.832032 25.960938-24.238282 25.960938s-24.175781-25.703125-24.238281-25.960938c-1.078125-4.285156-5.425781-6.886718-9.710937-5.8125-4.285156 1.078126-6.886719 5.421876-5.8125 9.710938.386718 1.558594 9.859375 38.0625 39.761718 38.0625 29.902344 0 39.375-36.503906 39.761719-38.0625 1.058594-4.273438-1.535156-8.601562-5.800781-9.679688zm0 0"/><path d="m272.007812 320c29.902344 0 39.375-36.503906 39.761719-38.0625 1.074219-4.289062-1.527343-8.632812-5.8125-9.710938-4.285156-1.074218-8.632812 1.527344-9.710937 5.8125-.0625.257813-6.832032 25.960938-24.238282 25.960938s-24.175781-25.703125-24.238281-25.960938c-1.078125-4.285156-5.425781-6.886718-9.710937-5.8125-4.285156 1.078126-6.886719 5.421876-5.8125 9.710938.386718 1.558594 9.859375 38.0625 39.761718 38.0625zm0 0"/><path d="m168.007812 128h64c4.417969 0 8-3.582031 8-8v-48c0-4.417969-3.582031-8-8-8h-8v-8c0-13.253906-10.746093-24-24-24-13.253906 0-24 10.746094-24 24v8h-8c-4.417968 0-8 3.582031-8 8v48c0 4.417969 3.582032 8 8 8zm24-72c0-4.417969 3.582032-8 8-8 4.417969 0 8 3.582031 8 8v8h-16zm-16 24h48v32h-48zm0 0"/><path d="m208.007812 96c0 4.417969-3.582031 8-8 8-4.417968 0-8-3.582031-8-8s3.582032-8 8-8c4.417969 0 8 3.582031 8 8zm0 0"/><path d="m368.007812 232.96875v-48.96875c0-24.113281-59.679687-33.601562-104.238281-37.382812 17.015625-27.078126 25.464844-58.660157 24.238281-90.617188 0-2.519531-1.183593-4.890625-3.199218-6.398438-8-6.035156-28.800782-25.265624-28.800782-41.601562 0-4.417969-3.582031-8-8-8h-96c-4.417968 0-8 3.582031-8 8 0 16.335938-20.800781 35.566406-28.800781 41.601562-2.011719 1.507813-3.199219 3.878907-3.199219 6.398438 0 41.304688 10.640626 70.296875 24.441407 90.601562-44.585938 3.742188-104.441407 13.253907-104.441407 37.398438v48.96875c-18.230468 4.464844-31.9999995 23.832031-31.9999995 47.03125 0 23.503906 14.1601565 43.070312 32.8007815 47.199219 7.8125 86.535156 80.347656 152.816406 167.230468 152.816406 86.886719 0 159.421876-66.28125 167.234376-152.816406 18.574218-4.128907 32.734374-23.695313 32.734374-47.199219 0-23.199219-13.769531-42.566406-32-47.03125zm-336 77.0625c-10.535156-6.226562-16.710937-17.816406-16-30.03125-.710937-12.214844 5.464844-23.804688 16-30.03125zm96-250.191406c8-6.566406 26.839844-23.886719 31.128907-43.839844h81.742187c4.289063 19.953125 23.128906 37.273438 31.128906 43.839844-1.601562 93.105468-61.167968 113.082031-72 115.9375-10.855468-2.882813-70.398437-22.890625-72-115.9375zm224 252.160156c0 83.949219-68.050781 152-152 152-83.945312 0-152-68.050781-152-152v-109.105469c40.871094 20.792969 146.472657 21.105469 152 21.105469 5.527344 0 111.128907-.3125 152-21.105469zm-152-104c-94.398437 0-148.207031-15.542969-152-23.542969v-.152343c2.328126-5.214844 30.734376-17.800782 100.664063-22.578126 13.476563 14.441407 30.691406 24.867188 49.734375 30.113282 1.035156.214844 2.101562.214844 3.136719 0 16.355469-4.203125 31.402343-12.414063 43.785156-23.894532 2.070313-1.867187 4.183594-3.953124 6.304687-6.191406 70.03125 4.796875 98.3125 17.460938 100.398438 21.863282-3.503906 8.75-57.328125 24.382812-152.023438 24.382812zm168 102.03125v-60.0625c10.535157 6.226562 16.710938 17.816406 16 30.03125.710938 12.214844-5.464843 23.804688-16 30.03125zm0 0"/></svg>