<svg height="479pt" viewBox="-39 0 479 479.97948" width="479pt" xmlns="http://www.w3.org/2000/svg"><path d="m344.488281 319.964844h16c17.671875 0 32-17.914063 32-40 0-22.089844-14.328125-40-32-40h-16zm0 0" fill="#ccac9b"/><path d="m56.488281 319.964844h-16c-17.671875 0-32-17.914063-32-40 0-22.089844 14.328125-40 32-40h16zm0 0" fill="#ccac9b"/><path d="m40.488281 183.964844h320v128c0 88.363281-71.632812 160-160 160-88.363281 0-160-71.636719-160-160zm0 0" fill="#f5d7ca"/><path d="m360.488281 183.964844c0-17.675782-71.632812-32-160-32-88.363281 0-160 14.324218-160 32 0 17.671875 71.636719 32 160 32 88.367188 0 160-14.328125 160-32zm0 0" fill="#b9a095"/><g fill="#a8887a"><path d="m184.488281 367.964844c-2.460937 0-4.785156-1.136719-6.300781-3.078125-1.515625-1.9375-2.054688-4.46875-1.457031-6.859375l16-64c.636719-2.832032 2.757812-5.09375 5.539062-5.917969 2.785157-.820313 5.796875-.070313 7.867188 1.964844 2.070312 2.03125 2.878906 5.027343 2.113281 7.824219l-12.761719 51.074218 19.058594-4.800781c4.269531-1.039063 8.578125 1.566406 9.648437 5.828125 1.066407 4.265625-1.503906 8.59375-5.761718 9.691406l-32 8c-.632813.167969-1.289063.261719-1.945313.273438zm0 0"/><path d="m128.488281 319.964844c-29.902343 0-39.367187-36.503906-39.757812-38.066406-1.078125-4.285157 1.527343-8.628907 5.8125-9.707032 4.285156-1.074218 8.632812 1.527344 9.707031 5.8125.0625.257813 6.832031 25.960938 24.238281 25.960938 17.410157 0 24.175781-25.703125 24.242188-25.960938 1.074219-4.285156 5.421875-6.886718 9.707031-5.8125 4.285156 1.078125 6.886719 5.421875 5.8125 9.707032-.390625 1.5625-9.855469 38.066406-39.761719 38.066406zm0 0"/><path d="m272.488281 319.964844c-29.902343 0-39.367187-36.503906-39.757812-38.066406-1.078125-4.285157 1.527343-8.628907 5.8125-9.707032 4.285156-1.074218 8.632812 1.527344 9.707031 5.8125.0625.257813 6.832031 25.960938 24.238281 25.960938 17.410157 0 24.175781-25.703125 24.242188-25.960938 1.074219-4.285156 5.421875-6.886718 9.707031-5.8125 4.285156 1.078125 6.886719 5.421875 5.8125 9.707032-.390625 1.5625-9.855469 38.066406-39.761719 38.066406zm0 0"/></g><path d="m128.488281 359.964844c0 13.253906-10.742187 24-24 24-13.253906 0-24-10.746094-24-24 0-13.257813 10.746094-24 24-24 13.257813 0 24 10.742187 24 24zm0 0" fill="#fdb5a6"/><path d="m320.488281 359.964844c0 13.253906-10.742187 24-24 24-13.253906 0-24-10.746094-24-24 0-13.257813 10.746094-24 24-24 13.257813 0 24 10.742187 24 24zm0 0" fill="#fdb5a6"/><path d="m259.152344 183.964844h-117.328125l-29.335938-64h176zm0 0" fill="#2d87a1"/><path d="m200.488281 71.964844v-64l64 32zm0 0" fill="#dc2027"/><path d="m192.730469 294.027344-16 64c-.679688 2.726562.121093 5.605468 2.105469 7.589844 1.984374 1.984374 4.867187 2.785156 7.589843 2.105468l32-8c2.832031-.636718 5.097657-2.757812 5.917969-5.539062.820312-2.785156.070312-5.796875-1.964844-7.867188-2.03125-2.070312-5.027344-2.878906-7.824218-2.113281l-19.074219 4.800781 12.800781-51.070312c.769531-2.800782-.039062-5.796875-2.113281-7.828125-2.070313-2.03125-5.082031-2.785157-7.863281-1.960938-2.785157.820313-4.90625 3.082031-5.542969 5.914063zm0 0"/><path d="m162.449219 272.21875c-2.054688-.535156-4.242188-.222656-6.066407.863281-1.828124 1.085938-3.140624 2.859375-3.652343 4.921875-.066407.257813-6.832031 25.960938-24.242188 25.960938-17.40625 0-24.175781-25.703125-24.238281-25.960938-1.074219-4.285156-5.421875-6.886718-9.707031-5.8125-4.285157 1.078125-6.890625 5.421875-5.8125 9.707032.382812 1.5625 9.855469 38.066406 39.757812 38.066406 29.90625 0 39.378907-36.503906 39.761719-38.066406 1.058594-4.273438-1.53125-8.597657-5.800781-9.679688zm0 0"/><path d="m272.488281 319.964844c29.90625 0 39.378907-36.503906 39.761719-38.066406 1.074219-4.285157-1.527344-8.628907-5.8125-9.707032-4.285156-1.074218-8.632812 1.527344-9.707031 5.8125-.066407.257813-6.832031 25.960938-24.242188 25.960938-17.40625 0-24.175781-25.703125-24.238281-25.960938-1.074219-4.285156-5.421875-6.886718-9.707031-5.8125-4.285157 1.078125-6.890625 5.421875-5.8125 9.707032.382812 1.5625 9.855469 38.066406 39.757812 38.066406zm0 0"/><path d="m368.488281 232.933594v-48.96875c0-16.800782-28.375-28.6875-84.328125-35.351563l11.601563-25.3125c1.136719-2.476562.933593-5.363281-.539063-7.65625-1.46875-2.292969-4.007812-3.679687-6.734375-3.679687h-80v-35.058594l59.578125-29.742188c2.714844-1.355468 4.429688-4.125 4.429688-7.160156s-1.714844-5.808594-4.429688-7.160156l-64-32c-2.476562-1.238281-5.410156-1.105469-7.769531.34375-2.355469 1.449219-3.792969 4.011719-3.808594 6.777344v104h-80c-2.722656 0-5.261719 1.386718-6.734375 3.679687-1.46875 2.292969-1.671875 5.179688-.535156 7.65625l11.597656 25.3125c-55.949218 6.664063-84.328125 18.550781-84.328125 35.351563v48.96875c-18.230469 4.460937-32 23.832031-32 47.03125 0 23.503906 14.160157 43.070312 32.800781 47.199218 7.8125 86.53125 80.347657 152.816407 167.234376 152.816407 86.882812 0 159.417968-66.285157 167.230468-152.816407 18.574219-4.128906 32.734375-23.695312 32.734375-47.199218 0-23.199219-13.765625-42.570313-32-47.03125zm-160-212.027344 38.113281 19.058594-38.113281 19.054687zm-176 289.089844c-10.535156-6.226563-16.707031-17.816406-16-30.03125-.707031-12.21875 5.464844-23.808594 16-30.03125zm243.53125-182.03125-22 48h-107.058593l-22-48zm76.46875 184c0 83.945312-68.050781 152-152 152-83.945312 0-152-68.054688-152-152v-109.105469c40.875 20.792969 146.472657 21.105469 152 21.105469 5.53125 0 111.128907-.3125 152-21.105469zm-152-104c-94.398437 0-148.207031-15.546875-152-23.546875v-.15625c1.921875-4.273438 22.777344-14.472657 75.351563-20.320313l10.714844 23.359375c1.304687 2.839844 4.144531 4.664063 7.269531 4.664063h117.328125c3.128906 0 5.96875-1.824219 7.273437-4.664063l10.710938-23.359375c52.90625 5.878906 73.703125 16.160156 75.410156 19.636719-3.539063 8.753906-57.359375 24.386719-152.058594 24.386719zm168 102.03125v-60.0625c10.535157 6.222656 16.710938 17.8125 16 30.03125.710938 12.214844-5.464843 23.804687-16 30.03125zm0 0"/></svg>