<svg height="480pt" viewBox="-40 0 480 480.01571" width="480pt" xmlns="http://www.w3.org/2000/svg"><path d="m344.007812 320h16c17.671876 0 32-17.910156 32-40s-14.328124-40-32-40h-16zm0 0" fill="#ccac9b"/><path d="m56.007812 320h-16c-17.671874 0-32-17.910156-32-40s14.328126-40 32-40h16zm0 0" fill="#ccac9b"/><path d="m40.007812 184h320v128c0 88.367188-71.632812 160-160 160-88.367187 0-160-71.632812-160-160zm0 0" fill="#f5d7ca"/><path d="m360.007812 184c0-17.671875-71.632812-32-160-32-88.367187 0-160 14.328125-160 32s71.632813 32 160 32c88.367188 0 160-14.328125 160-32zm0 0" fill="#b9a095"/><g fill="#a8887a"><path d="m184.007812 368c-2.460937 0-4.785156-1.136719-6.300781-3.074219-1.515625-1.941406-2.054687-4.472656-1.460937-6.863281l16-64c.640625-2.828125 2.757812-5.09375 5.542968-5.914062 2.785157-.824219 5.792969-.070313 7.867188 1.960937 2.070312 2.03125 2.878906 5.027344 2.113281 7.828125l-12.761719 51.070312 19.054688-4.800781c4.273438-1.035156 8.582031 1.566407 9.648438 5.832031 1.070312 4.261719-1.503907 8.589844-5.757813 9.6875l-32 8c-.636719.171876-1.289063.261719-1.945313.273438zm0 0"/><path d="m128.007812 320c-29.902343 0-39.367187-36.503906-39.761718-38.0625-1.074219-4.289062 1.527344-8.632812 5.8125-9.710938 4.285156-1.074218 8.632812 1.527344 9.710937 5.8125.0625.257813 6.832031 25.960938 24.238281 25.960938s24.175782-25.703125 24.238282-25.960938c1.078125-4.285156 5.425781-6.886718 9.710937-5.8125 4.285157 1.078126 6.886719 5.421876 5.8125 9.710938-.394531 1.558594-9.859375 38.0625-39.761719 38.0625zm0 0"/><path d="m272.007812 320c-29.902343 0-39.367187-36.503906-39.761718-38.0625-1.074219-4.289062 1.527344-8.632812 5.8125-9.710938 4.285156-1.074218 8.632812 1.527344 9.710937 5.8125.0625.257813 6.832031 25.960938 24.238281 25.960938s24.175782-25.703125 24.238282-25.960938c1.078125-4.285156 5.425781-6.886718 9.710937-5.8125 4.285157 1.078126 6.886719 5.421876 5.8125 9.710938-.394531 1.558594-9.859375 38.0625-39.761719 38.0625zm0 0"/></g><path d="m128.007812 360c0 13.253906-10.746093 24-24 24-13.253906 0-24-10.746094-24-24s10.746094-24 24-24c13.253907 0 24 10.746094 24 24zm0 0" fill="#fdb5a6"/><path d="m320.007812 360c0 13.253906-10.746093 24-24 24-13.253906 0-24-10.746094-24-24s10.746094-24 24-24c13.253907 0 24 10.746094 24 24zm0 0" fill="#fdb5a6"/><path d="m200.007812 60.800781c0-29.160156-21.488281-52.800781-48-52.800781-26.511718 0-48 23.640625-48 52.800781 0 29.160157 69.488282 123.199219 96 123.199219 26.511719 0 96-94.039062 96-123.199219 0-29.160156-21.488281-52.800781-48-52.800781-26.511718 0-48 23.640625-48 52.800781" fill="#dc2027"/><path d="m192.246094 294.054688-16 64c-.597656 2.390624-.0625 4.925781 1.457031 6.867187 1.515625 1.941406 3.839844 3.078125 6.304687 3.078125.65625 0 1.308594-.082031 1.945313-.238281l32-8c2.789063-.679688 5.003906-2.800781 5.796875-5.5625.796875-2.757813.050781-5.730469-1.953125-7.789063-2-2.058594-4.953125-2.886718-7.734375-2.171875l-19.054688 4.761719 12.761719-51.054688c.714844-2.78125-.113281-5.734374-2.171875-7.734374-2.058594-2.003907-5.03125-2.75-7.789062-1.953126-2.761719.792969-4.882813 3.007813-5.5625 5.796876zm0 0"/><path d="m161.96875 272.257812c-4.28125-1.085937-8.632812 1.5-9.722656 5.78125-.0625.265626-6.832032 25.960938-24.238282 25.960938s-24.175781-25.695312-24.238281-25.960938c-1.078125-4.285156-5.429687-6.886718-9.714843-5.808593-4.285157 1.078125-6.886719 5.429687-5.808594 9.714843.394531 1.550782 9.859375 38.054688 39.761718 38.054688 29.902344 0 39.367188-36.503906 39.761719-38.054688 1.0625-4.277343-1.53125-8.609374-5.800781-9.6875zm0 0"/><path d="m272.007812 320c29.902344 0 39.367188-36.503906 39.761719-38.054688 1.078125-4.285156-1.523437-8.636718-5.808593-9.714843-4.285157-1.078125-8.636719 1.523437-9.714844 5.808593-.0625.265626-6.832032 25.960938-24.238282 25.960938s-24.175781-25.695312-24.238281-25.960938c-1.078125-4.285156-5.429687-6.886718-9.714843-5.808593-4.285157 1.078125-6.886719 5.429687-5.808594 9.714843.394531 1.550782 9.859375 38.054688 39.761718 38.054688zm0 0"/><path d="m368.007812 232.96875v-48.96875c0-25.359375-67.007812-34.550781-109.847656-37.839844 24.535156-30.113281 45.847656-67.175781 45.847656-85.359375 0-33.527343-25.121093-60.800781-56-60.800781-20.1875.335938-38.585937 11.648438-48 29.511719-9.414062-17.863281-27.8125-29.175781-48-29.511719-30.878906 0-56 27.273438-56 60.800781 0 18.183594 21.3125 55.246094 45.847657 85.359375-42.839844 3.289063-109.847657 12.480469-109.847657 37.839844v48.96875c-18.230468 4.464844-31.9999995 23.832031-31.9999995 47.03125 0 23.503906 14.1601565 43.070312 32.8007815 47.199219 7.8125 86.535156 80.347656 152.816406 167.230468 152.816406 86.886719 0 159.421876-66.28125 167.234376-152.816406 18.574218-4.128907 32.734374-23.695313 32.734374-47.199219 0-23.199219-13.769531-42.566406-32-47.03125zm-336 77.0625c-10.535156-6.226562-16.710937-17.816406-16-30.03125-.710937-12.214844 5.464844-23.804688 16-30.03125zm80-249.230469c0-24.703125 17.945313-44.800781 40-44.800781 22.054688 0 40 20.097656 40 44.800781 0 4.417969 3.582032 8 8 8 4.417969 0 8-3.582031 8-8 0-24.703125 17.945313-44.800781 40-44.800781 22.054688 0 40 20.097656 40 44.800781 0 26.910157-67.441406 115.199219-88 115.199219-20.558593 0-88-88.289062-88-115.199219zm240 251.199219c0 83.949219-68.050781 152-152 152-83.945312 0-152-68.050781-152-152v-109.105469c40.871094 20.792969 146.472657 21.105469 152 21.105469 5.527344 0 111.128907-.3125 152-21.105469zm-152-104c-94.398437 0-148.183593-15.535156-152-23.542969v-.160156c2.480469-5.542969 32.71875-18.609375 107.0625-22.976563 16.738282 17.878907 33.496094 30.679688 44.9375 30.679688 11.441407 0 28.199219-12.800781 44.9375-30.679688 74.703126 4.390626 104.902344 17.550782 107.117188 22.296876-3.535156 8.75-57.367188 24.382812-152.054688 24.382812zm168 102.03125v-60.0625c10.535157 6.226562 16.710938 17.816406 16 30.03125.710938 12.214844-5.464843 23.804688-16 30.03125zm0 0"/></svg>