<svg height="473pt" viewBox="-36 0 473 473.92452" width="473pt" xmlns="http://www.w3.org/2000/svg"><path d="m344.460938 313.910156h16c17.671874 0 32-17.914062 32-40 0-22.089844-14.328126-40-32-40h-16zm0 0" fill="#ccac9b"/><path d="m56.460938 313.910156h-16c-17.671876 0-32-17.914062-32-40 0-22.089844 14.328124-40 32-40h16zm0 0" fill="#ccac9b"/><path d="m40.460938 177.910156h320v128c0 88.363282-71.632813 160-160 160-88.363282 0-160-71.636718-160-160zm0 0" fill="#f5d7ca"/><path d="m360.460938 177.910156c0-17.675781-71.632813-32-160-32-88.363282 0-160 14.324219-160 32 0 17.671875 71.636718 32 160 32 88.367187 0 160-14.328125 160-32zm0 0" fill="#b9a095"/><g fill="#a8887a"><path d="m184.460938 361.910156c-2.460938-.003906-4.785157-1.136718-6.300782-3.078125-1.515625-1.941406-2.054687-4.46875-1.457031-6.859375l16-64c.636719-2.832031 2.757813-5.09375 5.539063-5.917968 2.785156-.820313 5.796874-.070313 7.867187 1.964843 2.070313 2.03125 2.878906 5.027344 2.113281 7.824219l-12.761718 51.074219 19.058593-4.800781c4.269531-1.039063 8.578125 1.566406 9.648438 5.828124 1.066406 4.265626-1.503907 8.59375-5.761719 9.691407l-32 8c-.632812.167969-1.289062.261719-1.945312.273437zm0 0"/><path d="m128.460938 313.910156c-29.902344 0-39.367188-36.503906-39.757813-38.066406-1.078125-4.285156 1.527344-8.632812 5.8125-9.707031s8.628906 1.527343 9.707031 5.8125c.0625.253906 6.832032 25.960937 24.238282 25.960937 17.410156 0 24.175781-25.707031 24.242187-25.960937 1.074219-4.285157 5.421875-6.886719 9.707031-5.8125s6.886719 5.421875 5.8125 9.707031c-.390625 1.5625-9.855468 38.066406-39.761718 38.066406zm0 0"/><path d="m272.460938 313.910156c-29.902344 0-39.367188-36.503906-39.757813-38.066406-1.078125-4.285156 1.527344-8.632812 5.8125-9.707031s8.628906 1.527343 9.707031 5.8125c.0625.253906 6.832032 25.960937 24.238282 25.960937 17.410156 0 24.175781-25.707031 24.242187-25.960937 1.074219-4.285157 5.421875-6.886719 9.707031-5.8125s6.886719 5.421875 5.8125 9.707031c-.390625 1.5625-9.855468 38.066406-39.761718 38.066406zm0 0"/></g><path d="m128.460938 353.910156c0 13.253906-10.742188 24-24 24-13.253907 0-24-10.746094-24-24 0-13.257812 10.746093-24 24-24 13.257812 0 24 10.742188 24 24zm0 0" fill="#fdb5a6"/><path d="m320.460938 353.910156c0 13.253906-10.742188 24-24 24-13.253907 0-24-10.746094-24-24 0-13.257812 10.746093-24 24-24 13.257812 0 24 10.742188 24 24zm0 0" fill="#fdb5a6"/><path d="m232.460938 7.996094v73.914062h-64v-73.914062c-39.425782 15.390625-62.308594 56.664062-54.480469 98.257812 7.832031 41.589844 44.160156 71.71875 86.480469 71.71875 42.324218 0 78.652343-30.128906 86.480468-71.71875 7.832032-41.59375-15.054687-82.867187-54.480468-98.257812zm0 0" fill="#2d87a1"/><path d="m192.703125 287.972656-16 64c-.679687 2.722656.121094 5.605469 2.105469 7.589844s4.867187 2.785156 7.589844 2.105469l32-8c2.832031-.636719 5.09375-2.757813 5.917968-5.539063.820313-2.785156.070313-5.796875-1.964844-7.867187-2.03125-2.070313-5.027343-2.878907-7.824218-2.113281l-19.074219 4.800781 12.800781-51.074219c.769532-2.796875-.039062-5.792969-2.113281-7.824219-2.070313-2.03125-5.082031-2.785156-7.863281-1.960937-2.785156.820312-4.90625 3.082031-5.542969 5.914062zm0 0"/><path d="m162.421875 266.164062c-4.28125-1.085937-8.632813 1.503907-9.71875 5.785157-.066406.253906-6.832031 25.960937-24.242187 25.960937-17.40625 0-24.175782-25.707031-24.238282-25.960937-1.078125-4.285157-5.421875-6.886719-9.707031-5.8125s-6.890625 5.421875-5.8125 9.707031c.382813 1.5625 9.855469 38.066406 39.757813 38.066406 29.90625 0 39.378906-36.503906 39.761718-38.066406 1.058594-4.273438-1.53125-8.597656-5.800781-9.679688zm0 0"/><path d="m272.460938 313.910156c29.90625 0 39.378906-36.503906 39.761718-38.066406 1.074219-4.285156-1.527344-8.632812-5.8125-9.707031s-8.632812 1.527343-9.707031 5.8125c-.066406.253906-6.832031 25.960937-24.242187 25.960937-17.40625 0-24.175782-25.707031-24.238282-25.960937-1.078125-4.285157-5.421875-6.886719-9.707031-5.8125s-6.890625 5.421875-5.8125 9.707031c.382813 1.5625 9.855469 38.066406 39.757813 38.066406zm0 0"/><path d="m368.460938 226.875v-48.964844c0-20.800781-44.550782-30.867187-87.589844-35.730468 15.777344-24.164063 19.816406-54.160157 10.984375-81.636719-8.828125-27.480469-29.578125-49.507813-56.480469-59.960938-2.457031-.960937-5.230469-.6484372-7.414062.835938-2.179688 1.484375-3.488282 3.949219-3.5 6.585937v65.90625h-48v-65.90625c.003906-2.644531-1.300782-5.117187-3.484376-6.609375-2.183593-1.4921872-4.964843-1.808593-7.425781-.847656-26.902343 10.453125-47.65625 32.484375-56.484375 59.964844-8.828125 27.476562-4.792968 57.46875 10.988282 81.636719-43.039063 4.894531-87.59375 14.960937-87.59375 35.761718v48.964844c-18.230469 4.464844-32 23.832031-32 47.035156 0 23.503906 14.160156 43.070313 32.800781 47.199219 7.8125 86.53125 80.347656 152.816406 167.234375 152.816406 86.882812 0 159.417968-66.285156 167.230468-152.816406 18.574219-4.128906 32.734376-23.695313 32.734376-47.199219 0-23.203125-13.765626-42.570312-32-47.035156zm-336 77.066406c-10.535157-6.226562-16.707032-17.816406-16-30.03125-.707032-12.21875 5.464843-23.808594 16-30.035156zm128-283.265625v61.234375c0 4.417969 3.582031 8 8 8h64c4.417968 0 8-3.582031 8-8v-61.234375c31.359374 18.105469 46.648437 55.015625 37.273437 89.988281-9.371094 34.976563-41.0625 59.292969-77.273437 59.292969-36.207032 0-67.902344-24.316406-77.273438-59.292969-9.371094-34.972656 5.917969-71.882812 37.273438-89.988281zm192 285.234375c0 83.945313-68.050782 152-152 152-83.945313 0-152-68.054687-152-152v-109.105468c40.875 20.792968 146.472656 21.105468 152 21.105468 5.53125 0 111.128906-.3125 152-21.105468zm-152-104c-94.398438 0-148.207032-15.546875-152-23.546875v-.160156c2.082031-4.636719 25.128906-15.542969 83.496093-21.160156 18.015625 18.460937 42.714844 28.867187 68.503907 28.867187 25.792968 0 50.492187-10.40625 68.503906-28.867187 58.707031 5.648437 81.699218 16.625 83.554687 20.480469-3.539062 8.753906-57.359375 24.386718-152.058593 24.386718zm168 102.03125v-60.066406c10.535156 6.226562 16.710937 17.816406 16 30.035156.710937 12.214844-5.464844 23.804688-16 30.03125zm0 0"/></svg>