<svg height="480pt" viewBox="-40 0 480 480.01571" width="480pt" xmlns="http://www.w3.org/2000/svg"><path d="m272.007812 80c-4.417968 0-8-3.582031-8-8v-33.753906l-25.945312-6.484375c-4.253906-1.101563-6.828125-5.425781-5.757812-9.691407 1.066406-4.265624 5.375-6.867187 9.648437-5.832031l32 8c3.558594.894531 6.054687 4.09375 6.054687 7.761719v40c0 4.417969-3.582031 8-8 8zm0 0" fill="#d0dad9"/><path d="m128.007812 80c-4.417968 0-8-3.582031-8-8v-40c0-3.667969 2.496094-6.867188 6.054688-7.761719l32-8c4.273438-1.035156 8.582031 1.566407 9.648438 5.832031 1.070312 4.265626-1.503907 8.589844-5.757813 9.691407l-25.945313 6.484375v33.753906c0 4.417969-3.582031 8-8 8zm0 0" fill="#d0dad9"/><path d="m344.007812 320h16c17.671876 0 32-17.910156 32-40s-14.328124-40-32-40h-16zm0 0" fill="#ccac9b"/><path d="m56.007812 320h-16c-17.671874 0-32-17.910156-32-40s14.328126-40 32-40h16zm0 0" fill="#ccac9b"/><path d="m40.007812 184h320v128c0 88.367188-71.632812 160-160 160-88.367187 0-160-71.632812-160-160zm0 0" fill="#f5d7ca"/><path d="m360.007812 184c0-17.671875-71.632812-32-160-32-88.367187 0-160 14.328125-160 32s71.632813 32 160 32c88.367188 0 160-14.328125 160-32zm0 0" fill="#b9a095"/><path d="m184.007812 368c-2.460937 0-4.785156-1.136719-6.300781-3.074219-1.515625-1.941406-2.054687-4.472656-1.460937-6.863281l16-64c.640625-2.828125 2.757812-5.09375 5.542968-5.914062 2.785157-.824219 5.792969-.070313 7.867188 1.960937 2.070312 2.03125 2.878906 5.027344 2.113281 7.828125l-12.761719 51.070312 19.054688-4.800781c4.273438-1.035156 8.582031 1.566407 9.648438 5.832031 1.070312 4.261719-1.503907 8.589844-5.757813 9.6875l-32 8c-.636719.171876-1.289063.261719-1.945313.273438zm0 0" fill="#a8887a"/><path d="m128.007812 320c-29.902343 0-39.367187-36.503906-39.761718-38.0625-1.074219-4.289062 1.527344-8.632812 5.8125-9.710938 4.285156-1.074218 8.632812 1.527344 9.710937 5.8125.0625.257813 6.832031 25.960938 24.238281 25.960938s24.175782-25.703125 24.238282-25.960938c1.078125-4.285156 5.425781-6.886718 9.710937-5.8125 4.285157 1.078126 6.886719 5.421876 5.8125 9.710938-.394531 1.558594-9.859375 38.0625-39.761719 38.0625zm0 0" fill="#a8887a"/><path d="m272.007812 320c-29.902343 0-39.367187-36.503906-39.761718-38.0625-1.074219-4.289062 1.527344-8.632812 5.8125-9.710938 4.285156-1.074218 8.632812 1.527344 9.710937 5.8125.0625.257813 6.832031 25.960938 24.238281 25.960938s24.175782-25.703125 24.238282-25.960938c1.078125-4.285156 5.425781-6.886718 9.710937-5.8125 4.285157 1.078126 6.886719 5.421876 5.8125 9.710938-.394531 1.558594-9.859375 38.0625-39.761719 38.0625zm0 0" fill="#a8887a"/><path d="m128.007812 360c0 13.253906-10.746093 24-24 24-13.253906 0-24-10.746094-24-24s10.746094-24 24-24c13.253907 0 24 10.746094 24 24zm0 0" fill="#fdb5a6"/><path d="m320.007812 360c0 13.253906-10.746093 24-24 24-13.253906 0-24-10.746094-24-24s10.746094-24 24-24c13.253907 0 24 10.746094 24 24zm0 0" fill="#fdb5a6"/><path d="m264.007812 184h-128l-24-112h176zm0 0" fill="#f286a5"/><g fill="#d0dad9"><path d="m200.007812 152c-4.417968 0-8-3.582031-8-8v-32c0-4.417969 3.582032-8 8-8 4.417969 0 8 3.582031 8 8v32c0 4.417969-3.582031 8-8 8zm0 0"/><path d="m168.007812 152c-3.667968-.003906-6.863281-2.503906-7.753906-6.0625l-8-32c-.765625-2.800781.042969-5.796875 2.113282-7.828125 2.074218-2.03125 5.082031-2.785156 7.867187-1.960937 2.785156.820312 4.90625 3.085937 5.542969 5.914062l8 32c1.066406 4.285156-1.535156 8.625-5.816406 9.699219-.640626.15625-1.296876.238281-1.953126.238281zm0 0"/><path d="m232.007812 152c-.65625 0-1.3125-.082031-1.953124-.238281-4.28125-1.074219-6.882813-5.414063-5.816407-9.699219l8-32c.640625-2.828125 2.757813-5.09375 5.542969-5.914062 2.785156-.824219 5.792969-.070313 7.867188 1.960937 2.070312 2.03125 2.878906 5.027344 2.113281 7.828125l-8 32c-.890625 3.558594-4.085938 6.058594-7.753907 6.0625zm0 0"/></g><path d="m160.007812 8h80v32h-80zm0 0" fill="#798d8b"/><path d="m192.246094 294.0625-16 64c-.59375 2.390625-.054688 4.921875 1.460937 6.863281 1.515625 1.9375 3.839844 3.074219 6.300781 3.074219.65625 0 1.308594-.082031 1.945313-.238281l32-8c4.253906-1.101563 6.828125-5.425781 5.757813-9.691407-1.066407-4.265624-5.375-6.867187-9.648438-5.832031l-19.054688 4.800781 12.761719-51.070312c.765625-2.800781-.042969-5.792969-2.113281-7.828125-2.074219-2.03125-5.082031-2.78125-7.867188-1.960937-2.785156.820312-4.902343 3.085937-5.542968 5.917968zm0 0"/><path d="m161.96875 272.257812c-4.28125-1.085937-8.632812 1.5-9.722656 5.78125-.0625.257813-6.832032 25.960938-24.238282 25.960938s-24.175781-25.703125-24.238281-25.960938c-1.078125-4.285156-5.425781-6.886718-9.710937-5.8125-4.285156 1.078126-6.886719 5.421876-5.8125 9.710938.394531 1.558594 9.859375 38.0625 39.761718 38.0625 29.902344 0 39.367188-36.503906 39.761719-38.0625 1.058594-4.273438-1.535156-8.601562-5.800781-9.679688zm0 0"/><path d="m272.007812 320c29.902344 0 39.367188-36.503906 39.761719-38.0625 1.074219-4.289062-1.527343-8.632812-5.8125-9.710938-4.285156-1.074218-8.632812 1.527344-9.710937 5.8125-.0625.257813-6.832032 25.960938-24.238282 25.960938s-24.175781-25.703125-24.238281-25.960938c-1.078125-4.285156-5.425781-6.886718-9.710937-5.8125-4.285156 1.078126-6.886719 5.421876-5.8125 9.710938.394531 1.558594 9.859375 38.0625 39.761718 38.0625zm0 0"/><path d="m200.007812 152c4.417969 0 8-3.582031 8-8v-32c0-4.417969-3.582031-8-8-8-4.417968 0-8 3.582031-8 8v32c0 4.417969 3.582032 8 8 8zm0 0"/><path d="m160.246094 145.9375c.890625 3.5625 4.089844 6.0625 7.761718 6.0625.65625 0 1.3125-.082031 1.953126-.238281 4.28125-1.074219 6.882812-5.414063 5.816406-9.699219l-8-32c-.636719-2.828125-2.757813-5.09375-5.542969-5.914062-2.785156-.824219-5.792969-.070313-7.867187 1.960937-2.070313 2.03125-2.878907 5.027344-2.113282 7.828125zm0 0"/><path d="m230.0625 151.761719c.636719.15625 1.289062.234375 1.945312.238281 3.667969-.003906 6.863282-2.503906 7.753907-6.0625l8-32c.765625-2.800781-.042969-5.796875-2.113281-7.828125-2.074219-2.03125-5.082032-2.785156-7.867188-1.960937-2.785156.820312-4.902344 3.085937-5.542969 5.914062l-8 32c-1.066406 4.285156 1.539063 8.628906 5.824219 9.699219zm0 0"/><path d="m368.007812 232.96875v-48.96875c0-17.183594-29.703124-29.191406-88.152343-35.769531l16-74.550781c.507812-2.367188-.082031-4.835938-1.605469-6.71875-1.527344-1.878907-3.820312-2.96875-6.242188-2.960938h-8v-32c0-3.667969-2.496093-6.867188-6.054687-7.761719l-25.945313-6.476562v-9.761719c0-4.417969-3.582031-8-8-8h-80c-4.417968 0-8 3.582031-8 8v9.761719l-25.945312 6.476562c-3.558594.894531-6.054688 4.09375-6.054688 7.761719v32h-8c-2.417968 0-4.703124 1.089844-6.222656 2.972656-1.519531 1.878906-2.109375 4.34375-1.601562 6.707032l16 74.550781c-58.472656 6.578125-88.175782 18.585937-88.175782 35.769531v48.96875c-18.230468 4.464844-31.9999995 23.832031-31.9999995 47.03125 0 23.503906 14.1601565 43.070312 32.8007815 47.199219 7.8125 86.535156 80.347656 152.816406 167.230468 152.816406 86.886719 0 159.421876-66.28125 167.234376-152.816406 18.574218-4.128907 32.734374-23.695313 32.734374-47.199219 0-23.199219-13.769531-42.566406-32-47.03125zm-336 77.0625c-10.535156-6.226562-16.710937-17.816406-16-30.03125-.710937-12.214844 5.464844-23.804688 16-30.03125zm136-294.03125h64v16h-64zm-32 22.246094 16-4v5.753906c0 4.417969 3.582032 8 8 8h80c4.417969 0 8-3.582031 8-8v-5.753906l16 4v25.753906h-128zm142.105469 41.753906-20.578125 96h-115.054687l-20.578125-96zm73.894531 232c0 83.949219-68.050781 152-152 152-83.945312 0-152-68.050781-152-152v-109.105469c40.871094 20.792969 146.472657 21.105469 152 21.105469 5.527344 0 111.128907-.3125 152-21.105469zm-152-104c-94.398437 0-148.183593-15.535156-152-23.542969v-.167969c1.945313-4.273437 22.847657-14.488281 75.519532-20.328124l4.65625 21.71875c.792968 3.6875 4.050781 6.320312 7.824218 6.320312h128c3.773438 0 7.03125-2.632812 7.824219-6.320312l4.65625-21.679688c53.023438 5.878906 73.871094 16.167969 75.574219 19.65625-3.535156 8.710938-57.367188 24.34375-152.054688 24.34375zm168 102.03125v-60.0625c10.535157 6.226562 16.710938 17.816406 16 30.03125.710938 12.214844-5.464843 23.804688-16 30.03125zm0 0"/></svg>