<svg height="480pt" viewBox="-40 0 480 480.01571" width="480pt" xmlns="http://www.w3.org/2000/svg"><path d="m264.007812 80h-16c-4.417968 0-8 3.582031-8 8v8h24c4.417969 0 8 3.582031 8 8s-3.582031 8-8 8h-24v8c0 4.417969 3.582032 8 8 8h16c13.253907 0 24-10.746094 24-24s-10.746093-24-24-24zm0 0" fill="#f6aa54"/><path d="m344.007812 320h16c17.671876 0 32-17.910156 32-40s-14.328124-40-32-40h-16zm0 0" fill="#ccac9b"/><path d="m56.007812 320h-16c-17.671874 0-32-17.910156-32-40s14.328126-40 32-40h16zm0 0" fill="#ccac9b"/><path d="m40.007812 184h320v128c0 88.367188-71.632812 160-160 160-88.367187 0-160-71.632812-160-160zm0 0" fill="#f5d7ca"/><path d="m360.007812 184c0-17.671875-71.632812-32-160-32-88.367187 0-160 14.328125-160 32s71.632813 32 160 32c88.367188 0 160-14.328125 160-32zm0 0" fill="#b9a095"/><g fill="#a8887a"><path d="m184.007812 368c-2.460937 0-4.785156-1.136719-6.300781-3.074219-1.515625-1.941406-2.054687-4.472656-1.460937-6.863281l16-64c.640625-2.828125 2.757812-5.09375 5.542968-5.914062 2.785157-.824219 5.792969-.070313 7.867188 1.960937 2.070312 2.03125 2.878906 5.027344 2.113281 7.828125l-12.761719 51.070312 19.054688-4.800781c4.273438-1.035156 8.582031 1.566407 9.648438 5.832031 1.070312 4.261719-1.503907 8.589844-5.757813 9.6875l-32 8c-.636719.171876-1.289063.261719-1.945313.273438zm0 0"/><path d="m128.007812 320c-29.902343 0-39.367187-36.503906-39.761718-38.0625-1.074219-4.289062 1.527344-8.632812 5.8125-9.710938 4.285156-1.074218 8.632812 1.527344 9.710937 5.8125.0625.257813 6.832031 25.960938 24.238281 25.960938s24.175782-25.703125 24.238282-25.960938c1.078125-4.285156 5.425781-6.886718 9.710937-5.8125 4.285157 1.078126 6.886719 5.421876 5.8125 9.710938-.394531 1.558594-9.859375 38.0625-39.761719 38.0625zm0 0"/><path d="m272.007812 320c-29.902343 0-39.367187-36.503906-39.761718-38.0625-1.074219-4.289062 1.527344-8.632812 5.8125-9.710938 4.285156-1.074218 8.632812 1.527344 9.710937 5.8125.0625.257813 6.832031 25.960938 24.238281 25.960938s24.175782-25.703125 24.238282-25.960938c1.078125-4.285156 5.425781-6.886718 9.710937-5.8125 4.285157 1.078126 6.886719 5.421876 5.8125 9.710938-.394531 1.558594-9.859375 38.0625-39.761719 38.0625zm0 0"/></g><path d="m128.007812 360c0 13.253906-10.746093 24-24 24-13.253906 0-24-10.746094-24-24s10.746094-24 24-24c13.253907 0 24 10.746094 24 24zm0 0" fill="#fdb5a6"/><path d="m320.007812 360c0 13.253906-10.746093 24-24 24-13.253906 0-24-10.746094-24-24s10.746094-24 24-24c13.253907 0 24 10.746094 24 24zm0 0" fill="#fdb5a6"/><path d="m120.007812 72h128v48c0 35.347656-28.652343 64-64 64-35.347656 0-64-28.652344-64-64zm0 0" fill="#ffd946"/><path d="m192.246094 294.0625-16 64c-.675782 2.726562.121094 5.605469 2.109375 7.589844 1.984375 1.988281 4.863281 2.785156 7.589843 2.109375l32-8c2.828126-.640625 5.09375-2.757813 5.914063-5.542969.824219-2.785156.070313-5.792969-1.960937-7.867188-2.03125-2.070312-5.027344-2.878906-7.828126-2.113281l-19.070312 4.800781 12.800781-51.070312c.765625-2.800781-.042969-5.792969-2.113281-7.828125-2.070312-2.03125-5.082031-2.78125-7.867188-1.960937-2.78125.820312-4.902343 3.085937-5.539062 5.917968zm0 0"/><path d="m161.96875 272.257812c-2.058594-.535156-4.242188-.226562-6.070312.859376-1.824219 1.085937-3.140626 2.859374-3.652344 4.921874-.0625.257813-6.832032 25.960938-24.238282 25.960938s-24.175781-25.703125-24.238281-25.960938c-1.078125-4.285156-5.425781-6.886718-9.710937-5.8125-4.285156 1.078126-6.886719 5.421876-5.8125 9.710938.386718 1.558594 9.859375 38.0625 39.761718 38.0625 29.902344 0 39.375-36.503906 39.761719-38.0625 1.058594-4.273438-1.535156-8.601562-5.800781-9.679688zm0 0"/><path d="m272.007812 320c29.902344 0 39.375-36.503906 39.761719-38.0625 1.074219-4.289062-1.527343-8.632812-5.8125-9.710938-4.285156-1.074218-8.632812 1.527344-9.710937 5.8125-.0625.257813-6.832032 25.960938-24.238282 25.960938s-24.175781-25.703125-24.238281-25.960938c-1.078125-4.285156-5.425781-6.886718-9.710937-5.8125-4.285156 1.078126-6.886719 5.421876-5.8125 9.710938.386718 1.558594 9.859375 38.0625 39.761718 38.0625zm0 0"/><path d="m240.007812 40v-32c0-4.417969-3.582031-8-8-8-4.417968 0-8 3.582031-8 8v32c0 4.417969 3.582032 8 8 8 4.417969 0 8-3.582031 8-8zm0 0"/><path d="m192.007812 40v-32c0-4.417969-3.582031-8-8-8-4.417968 0-8 3.582031-8 8v32c0 4.417969 3.582032 8 8 8 4.417969 0 8-3.582031 8-8zm0 0"/><path d="m144.007812 40v-32c0-4.417969-3.582031-8-8-8-4.417968 0-8 3.582031-8 8v32c0 4.417969 3.582032 8 8 8 4.417969 0 8-3.582031 8-8zm0 0"/><path d="m368.007812 232.96875v-48.96875c0-26.777344-74.726562-35.535156-116.800781-38.34375 2.191407-5.675781 3.644531-11.609375 4.328125-17.65625h8.472656c13.253907 0 24-10.746094 24-24s-10.746093-24-24-24h-8v-8c0-4.417969-3.582031-8-8-8h-128c-4.417968 0-8 3.582031-8 8v48c0 9.796875 2.003907 19.488281 5.894532 28.480469-56.964844 6.625-85.894532 18.558593-85.894532 35.519531v48.96875c-18.230468 4.464844-31.9999995 23.832031-31.9999995 47.03125 0 23.503906 14.1601565 43.070312 32.8007815 47.199219 7.8125 86.535156 80.347656 152.816406 167.230468 152.816406 86.886719 0 159.421876-66.28125 167.234376-152.816406 18.574218-4.128907 32.734374-23.695313 32.734374-47.199219 0-23.199219-13.769531-42.566406-32-47.03125zm-112-136.96875h8c4.417969 0 8 3.582031 8 8s-3.582031 8-8 8h-8zm-224 214.03125c-10.535156-6.226562-16.710937-17.816406-16-30.03125-.710937-12.214844 5.464844-23.804688 16-30.03125zm96-230.03125h112v40c0 30.929688-25.070312 56-56 56-30.929687 0-56-25.070312-56-56zm224 232c0 83.949219-68.050781 152-152 152-83.945312 0-152-68.050781-152-152v-109.105469c40.871094 20.792969 146.472657 21.105469 152 21.105469 5.527344 0 111.128907-.3125 152-21.105469zm-152-104c-94.398437 0-148.207031-15.542969-152-23.542969v-.160156c1.96875-4.359375 23.664063-14.929687 78.832032-20.703125 13.886718 18.308594 35.699218 28.859375 58.675781 28.386719 22.972656-.476563 44.332031-11.921875 57.453125-30.789063 76.183594 4.273438 106.863281 17.601563 109.09375 22.402344-3.535156 8.773438-57.359375 24.40625-152.054688 24.40625zm168 102.03125v-60.0625c10.535157 6.226562 16.710938 17.816406 16 30.03125.710938 12.214844-5.464843 23.804688-16 30.03125zm0 0"/></svg>