<svg height="480pt" viewBox="-40 0 480 480.55359" width="480pt" xmlns="http://www.w3.org/2000/svg"><path d="m344.277344 320.59375h16c17.597656 0 32-17.597656 32-40 0-22.398438-14.402344-40-32-40h-16zm0 0" fill="#ccac9b"/><path d="m56.277344 320.59375h-16c-17.601563 0-32-17.597656-32-40 0-22.398438 14.398437-40 32-40h16zm0 0" fill="#ccac9b"/><path d="m40.277344 184.59375h320v128c0 88-72 160-160 160s-160-72-160-160zm0 0" fill="#f5d7ca"/><path d="m360.277344 184.59375c0-17.671875-71.636719-32-160-32-88.367188 0-160 14.328125-160 32 0 17.675781 71.632812 32 160 32 88.363281 0 160-14.324219 160-32zm0 0" fill="#b9a095"/><g fill="#a8887a"><path d="m184.277344 368.59375c-4.800782 0-8-3.199219-8-8 0-.800781 0-1.597656 0-1.597656l16-64c.800781-4 5.597656-7.203125 9.597656-6.402344s7.203125 5.601562 6.402344 9.601562l-12.800782 51.199219 19.199219-4.800781c4-.800781 8.800781 1.601562 9.601563 5.601562.800781 4-1.601563 8.800782-5.601563 9.597657l-32 8c-.800781.800781-1.597656.800781-2.398437.800781zm0 0"/><path d="m128.277344 320.59375c-29.601563 0-39.199219-36.800781-40-38.398438-.800782-4 1.597656-8.800781 5.597656-9.601562s8.800781 1.601562 9.601562 5.601562c0 0 7.199219 25.597657 24 25.597657 16.800782 0 24-25.597657 24-25.597657.800782-4 5.601563-7.199218 9.601563-5.601562 4 .800781 7.199219 5.601562 5.597656 9.601562.800781 1.597657-8.800781 38.398438-38.398437 38.398438zm0 0"/><path d="m272.277344 320.59375c-29.601563 0-39.199219-36.800781-40-38.398438-.800782-4 1.597656-8.800781 5.597656-9.601562s8.800781 1.601562 9.601562 5.601562c0 0 7.199219 25.597657 24 25.597657 16.800782 0 24-25.597657 24-25.597657.800782-4 5.601563-7.199218 9.601563-5.601562 4 .800781 7.199219 5.601562 5.597656 9.601562.800781 1.597657-8.800781 38.398438-38.398437 38.398438zm0 0"/></g><path d="m128.277344 360.59375c0 13.257812-10.746094 24-24 24s-24-10.742188-24-24c0-13.253906 10.746094-24 24-24s24 10.746094 24 24zm0 0" fill="#fdb5a6"/><path d="m320.277344 360.59375c0 13.257812-10.746094 24-24 24s-24-10.742188-24-24c0-13.253906 10.746094-24 24-24s24 10.746094 24 24zm0 0" fill="#fdb5a6"/><path d="m256.277344 64.59375c0 30.929688-25.074219 56-56 56-30.929688 0-56-25.070312-56-56 0-30.925781 25.070312-56 56-56 30.925781 0 56 25.074219 56 56zm0 0" fill="#3cb4d7"/><path d="m224.277344 128.59375c0 30.929688-25.074219 56-56 56-30.929688 0-56-25.070312-56-56 0-30.925781 25.070312-56 56-56 30.925781 0 56 25.074219 56 56zm0 0" fill="#f286a5"/><path d="m224.277344 128.59375c0 30.929688-25.074219 56-56 56-30.929688 0-56-25.070312-56-56 0-30.925781 25.070312-56 56-56 30.925781 0 56 25.074219 56 56zm0 0" fill="#f286a5"/><path d="m224.277344 128.59375c0 30.929688-25.074219 56-56 56-30.929688 0-56-25.070312-56-56 0-30.925781 25.070312-56 56-56 30.925781 0 56 25.074219 56 56zm0 0" fill="#f286a5"/><path d="m145.875 77.394531c7.203125 30.398438 36.800781 48.800781 67.203125 41.601563 3.199219-.800782 6.398437-1.601563 9.597656-3.203125-7.199219-30.398438-36.800781-48.796875-67.199219-41.597657-3.199218.800782-6.398437 1.597657-9.601562 3.199219zm0 0" fill="#9877b5"/><path d="m288.277344 128.59375c0 30.929688-25.074219 56-56 56-30.929688 0-56-25.070312-56-56 0-30.925781 25.070312-56 56-56 30.925781 0 56 25.074219 56 56zm0 0" fill="#ffd946"/><path d="m224.277344 128.59375c0-25.183594-10.746094-45.597656-24-45.597656s-24 20.414062-24 45.597656 10.746094 45.601562 24 45.601562 24-20.417968 24-45.601562zm0 0" fill="#f6aa54"/><path d="m177.875 115.792969c28 12.800781 61.601562 0 73.601562-28.796875 1.601563-3.203125 2.398438-6.402344 3.199219-9.601563-28-12.800781-61.597656 0-73.597656 28.800781-1.601563 3.199219-2.402344 6.398438-3.203125 9.597657zm0 0" fill="#75ab7d"/><path d="m200.277344 82.996094c-11.199219 8-19.199219 20-22.402344 32.796875 14.402344 6.402343 30.402344 6.402343 44.800781 0-3.199219-13.597657-11.199219-25.597657-22.398437-32.796875zm0 0" fill="#bfb2b7"/><path d="m192.277344 294.996094-16 64c-.800782 4 1.597656 8.796875 5.597656 9.597656h1.601562 1.601563l32-8c4-.800781 7.199219-5.597656 5.597656-9.597656-.800781-4-5.597656-7.203125-9.597656-5.601563l-19.203125 4.800781 12.800781-51.199218c.800781-4-1.597656-8.800782-5.597656-9.601563-3.203125-1.601562-7.203125.800781-8.800781 5.601563 0-.800782 0-.800782 0 0zm0 0"/><path d="m161.875 272.59375c-4-.800781-8.796875 1.601562-9.597656 5.601562 0 0-7.199219 25.597657-24 25.597657-16.800782 0-24-25.597657-24-25.597657-.800782-4-5.601563-7.199218-9.601563-5.601562-4 .800781-7.199219 5.601562-5.597656 9.601562 0 1.597657 9.597656 38.398438 40 38.398438 30.398437 0 39.199219-36.800781 40-38.398438 0-4-2.402344-8-7.203125-9.601562zm0 0"/><path d="m272.277344 320.59375c29.597656 0 39.199218-36.800781 40-38.398438.800781-4-1.601563-8.800781-5.601563-9.601562s-8.800781 1.601562-9.597656 5.601562c0 0-7.203125 25.597657-24 25.597657-16.800781 0-24-25.597657-24-25.597657-.800781-4-5.601563-7.199218-9.601563-5.601562-4 .800781-7.199218 5.601562-5.601562 9.601562-.796875 1.597657 8.800781 38.398438 38.402344 38.398438zm0 0"/><path d="m368.277344 233.394531v-48.800781c0-16-25.601563-27.199219-76-34.398438 10.398437-29.601562-1.601563-62.402343-28.800782-77.601562 4.800782-35.199219-20-67.199219-54.398437-72-34.402344-4.800781-67.203125 20-72 54.402344-.800781 5.597656-.800781 12 0 17.597656-27.203125 15.199219-39.203125 48-28.800781 77.601562-50.402344 7.199219-76 18.398438-76 34.398438v48.800781c-18.402344 4.800781-32 24-32 47.199219s14.398437 43.199219 32.800781 47.199219c8 92 89.597656 160.800781 182.398437 152 80.800782-7.199219 144.800782-71.199219 152-152 18.398438-4 32.800782-24 32.800782-47.199219s-13.601563-42.398438-32-47.199219zm-336 77.601563c-10.402344-6.402344-16.800782-18.402344-16-30.402344-.800782-12 5.597656-24 16-30.398438zm224-216c.800781-1.601563 1.597656-3.203125 2.398437-4.800782 0-.800781.800781-.800781.800781-1.601562 21.601563 15.199219 27.199219 44.800781 12 67.199219-12.800781 18.402343-36.800781 25.601562-57.601562 16.800781 0-.800781.800781-.800781.800781-1.597656 0-.800782.800781-.800782 1.601563-1.601563 1.597656-1.601562 2.398437-3.199219 4-4.800781v-.800781c1.597656-2.398438 2.398437-4 4-6.398438 0 0 0-.800781.800781-.800781.796875-1.597656 1.597656-4 2.398437-5.597656 0-.800782.800782-.800782.800782-1.601563.800781-1.601562.800781-3.199219 1.597656-4.800781 0-.800781 0-1.597656.800781-1.597656.800781-1.601563.800781-3.203125.800781-5.601563 0-.800781 0-1.601562 0-1.601562.800782-4.796875.800782-9.597657 0-14.398438v-.800781c10.398438-6.398438 19.199219-14.398438 24.800782-25.597656zm-72 32c.800781 0 1.597656 0 2.398437.796875h.800781.800782c1.597656 0 3.199218.800781 4.800781.800781h.796875.800781 6.402344 6.398437.800782.800781c1.597656 0 3.199219 0 4.796875-.800781h.800781.800781c.800782 0 1.601563 0 2.398438-.796875v1.597656 4.800781.800781c0 1.597657 0 3.199219-.796875 4v.800782c0 1.597656-.800781 2.398437-.800781 4v.796875c-.800782 1.601562-.800782 2.402343-1.601563 4 0 0 0 .800781-.800781.800781-.796875.800781-.796875 2.402344-1.597656 3.199219 0 0-.800782.800781-.800782.800781-.800781.800781-1.601562 2.402344-1.601562 3.199219 0 .800781-.796875.800781-.796875 1.601562-.800781.800781-1.601563 1.601563-2.402344 2.398438 0 .800781-.800781.800781-.800781 1.601562-.796875.800781-1.597656 1.601563-2.398438 2.398438l-3.199218.800781-.800782-.800781c-.800781-.796875-1.601562-1.597657-2.398437-2.398438 0 0-.800781-.800781-.800781-1.601562-.800782-.796875-1.601563-1.597657-2.402344-2.398438 0 0-.796875-.800781-.796875-.800781-.800781-.800781-1.601563-1.597656-1.601563-3.199219 0 0-.800781-.800781-.800781-.800781-.800781-.800781-1.597656-2.398438-1.597656-3.199219 0 0 0-.800781-.800781-.800781-.800782-1.597656-.800782-2.398438-1.601563-4v-.800781c-.800781-1.597657-.800781-2.398438-.800781-4v-.796875c0-1.601563-.796875-3.203125-.796875-4v-.800782c0-1.601562 0-3.199218 0-4.800781-.800781-1.601562-.800781-2.398437-.800781-2.398437zm-8-29.601563c0 .800781 0 .800781 0 0-.800782 1.601563-1.601563 3.199219-2.402344 4.800781 0 .800782 0 .800782-.796875 1.597657-.800781-.796875-1.601563-.796875-1.601563-1.597657-.800781-.800781-1.601562-.800781-2.398437-1.601562-.800781-.800781-1.601563-1.597656-2.402344-2.398438-.800781-.800781-2.398437-2.402343-3.199219-3.199218-.800781-.800782-.800781-1.601563-1.601562-2.402344-.796875-.800781-1.597656-2.398438-2.398438-4 0-.800781-.800781-.800781-.800781-1.597656-.800781-1.601563-2.398437-4-3.199219-5.601563h.800782c1.597656 0 3.199218-.800781 4-.800781h1.597656c1.601562 0 4 0 5.601562-.800781 2.398438 0 4 0 6.398438.800781h1.601562c1.601563 0 4 .800781 5.601563 1.601562.796875 0 1.597656.800782 1.597656.800782.800781 0 1.601563.796875 2.402344.796875-2.402344 4.800781-6.402344 8.800781-8.800781 13.601562zm11.199218 13.601563s.800782-.800782 0 0c.800782-2.402344 1.601563-4 2.398438-5.601563.800781-.800781.800781-1.601562 1.601562-2.398437.800782-.800782.800782-1.601563 1.601563-2.402344.796875-.800781.796875-1.597656 1.597656-2.398438 0 0 .800781-.800781.800781-.800781.800782-.800781.800782-.800781 1.601563-1.601562.796875-.796875 1.597656-1.597657 2.398437-2.398438l.800782-.800781.800781.800781c.796875.800781 1.597656 1.601563 2.398437 2.398438.800782.800781.800782.800781 1.601563 1.601562 0 0 .796875.800781.796875.800781.800781.800782.800781 1.597657 1.601562 2.398438.800782.800781.800782 1.601562 1.601563 2.402344.796875.796875.796875 1.597656 1.597656 2.398437.800781 1.601563 1.601563 3.199219 2.402344 4.800781v.800782c-.800781 0-1.601563.796875-2.402344.796875s-1.597656.800781-2.398437.800781h-.800782c-4 .800781-8.800781.800781-12.800781 0h-.800781c-.796875 0-1.597656 0-2.398438-.800781-.800781-.796875-3.199218-.796875-4-.796875zm27.199219-27.203125c.800781 0 1.601563-.796875 2.402344-.796875.796875 0 1.597656-.800782 1.597656-.800782 1.601563-.800781 4-.800781 5.601563-1.601562h1.597656c2.402344 0 4-.800781 6.402344-.800781h5.597656 1.601562c1.601563 0 3.199219.800781 4 .800781h.800782c-.800782 2.402344-1.601563 4-3.199219 5.601562 0 .800782-.800781.800782-.800781 1.597657-.800782 1.601562-1.601563 2.402343-2.402344 4-.796875.800781-.796875 1.601562-1.597656 2.402343-.800782.800782-2.402344 2.398438-3.199219 3.199219-.800781.800781-1.601563 1.601563-2.402344 2.398438-.800781.800781-1.597656 1.601562-2.398437 1.601562-.800782.800781-1.601563.800781-1.601563 1.601563 0-.800782 0-.800782-.800781-1.601563-.796875-1.601562-1.597656-3.199219-2.398438-4.800781 0 0 0 0 0-.800781-1.601562-3.199219-5.601562-7.199219-8.800781-12zm-14.398437-67.199219c26.398437 0 48 21.601562 48 48v2.402344c-.800782 0-1.601563-.800782-2.402344-.800782h-.796875c-1.601563 0-4-.800781-5.601563-.800781h-.800781c-2.398437 0-4 0-6.398437 0-2.402344 0-4 0-6.402344 0-.796875 0-.796875 0-1.597656 0-1.601563 0-3.199219.800781-4.800782.800781-.800781 0-.800781 0-1.601562 0-1.597656 0-3.199219.800782-4.796875 1.597657h-.800781c-4 1.601562-8.800782 3.203125-12.800782 5.601562-4-2.398437-8-4-12.800781-5.601562h-.800781c-1.597656-.796875-3.199219-.796875-4.796875-1.597657-.800781 0-.800781 0-1.601563 0-1.601562 0-3.199218-.800781-4.800781-.800781-.800781 0-.800781 0-1.597656 0-2.402344 0-4 0-6.402344 0-2.398437 0-4.800781 0-6.398437 0h-.800782c-1.601562 0-4 .800781-5.601562.800781h-.796875c-.800781 0-1.601563 0-2.402344.800782 0-.800782 0-1.601563 0-2.402344 1.601563-26.398438 23.199219-48 49.601563-48zm-59.199219 72.800781c0 .800781.796875.800781.796875 1.601563.800781 1.597656 1.601562 3.199218 2.402344 4.796875v.800781c5.597656 10.402344 14.398437 19.199219 24.800781 24.800781v.800781c-.800781 4.800782-.800781 9.597657 0 14.398438v1.601562c0 1.597657.796875 3.199219.796875 5.597657 0 .800781 0 1.601562.800781 1.601562.800781 1.601563.800781 3.199219 1.601563 4.800781 0 .800782 0 .800782.800781 1.597657.796875 1.601562 1.597656 4 2.398437 5.601562 0 0 0 .800781.800782.800781.800781 2.398438 2.398437 4 4 6.398438v.800781c1.597656 1.601563 2.398437 3.199219 4 4.800781.800781.800782.800781.800782 1.597656 1.597657.800781.800781.800781.800781.800781 1.601562-24.800781 9.601563-52.800781-2.398437-62.398437-26.398437-8.800782-21.601563-1.601563-45.601563 16.800781-57.601563zm211.199219 223.199219c0 84-68 152-152 152s-152-68-152-152v-108.800781c40.800781 20.800781 146.398437 20.800781 152 20.800781 5.597656 0 111.199218 0 152-20.800781zm-152-104c-94.402344 0-148-15.199219-152-23.199219 1.597656-3.199219 16.800781-12.800781 68-19.199219 19.199218 27.199219 56 35.199219 84 18.398438 28.800781 16.800781 65.597656 8.800781 84-18.398438 51.199218 6.398438 66.398437 16 68 18.398438-3.199219 8-57.601563 24-152 24zm168 102.402344v-60c10.398437 6.398437 16.800781 17.597656 16 30.398437.800781 11.199219-5.601563 23.199219-16 29.601563zm0 0"/></svg>