<svg height="480pt" viewBox="-40 0 480 480.01571" width="480pt" xmlns="http://www.w3.org/2000/svg"><path d="m344.007812 320h16c17.671876 0 32-17.910156 32-40s-14.328124-40-32-40h-16zm0 0" fill="#ccac9b"/><path d="m56.007812 320h-16c-17.671874 0-32-17.910156-32-40s14.328126-40 32-40h16zm0 0" fill="#ccac9b"/><path d="m40.007812 184h320v128c0 88.367188-71.632812 160-160 160-88.367187 0-160-71.632812-160-160zm0 0" fill="#f5d7ca"/><path d="m360.007812 184c0-17.671875-71.632812-32-160-32-88.367187 0-160 14.328125-160 32s71.632813 32 160 32c88.367188 0 160-14.328125 160-32zm0 0" fill="#b9a095"/><g fill="#a8887a"><path d="m184.007812 368c-2.460937 0-4.785156-1.136719-6.300781-3.074219-1.515625-1.941406-2.054687-4.472656-1.460937-6.863281l16-64c.640625-2.828125 2.757812-5.09375 5.542968-5.914062 2.785157-.824219 5.792969-.070313 7.867188 1.960937 2.070312 2.03125 2.878906 5.027344 2.113281 7.828125l-12.761719 51.070312 19.054688-4.800781c4.273438-1.035156 8.582031 1.566407 9.648438 5.832031 1.070312 4.261719-1.503907 8.589844-5.757813 9.6875l-32 8c-.636719.171876-1.289063.261719-1.945313.273438zm0 0"/><path d="m128.007812 320c-29.902343 0-39.367187-36.503906-39.761718-38.0625-1.074219-4.289062 1.527344-8.632812 5.8125-9.710938 4.285156-1.074218 8.632812 1.527344 9.710937 5.8125.0625.257813 6.832031 25.960938 24.238281 25.960938s24.175782-25.703125 24.238282-25.960938c1.078125-4.285156 5.425781-6.886718 9.710937-5.8125 4.285157 1.078126 6.886719 5.421876 5.8125 9.710938-.394531 1.558594-9.859375 38.0625-39.761719 38.0625zm0 0"/><path d="m272.007812 320c-29.902343 0-39.367187-36.503906-39.761718-38.0625-1.074219-4.289062 1.527344-8.632812 5.8125-9.710938 4.285156-1.074218 8.632812 1.527344 9.710937 5.8125.0625.257813 6.832031 25.960938 24.238281 25.960938s24.175782-25.703125 24.238282-25.960938c1.078125-4.285156 5.425781-6.886718 9.710937-5.8125 4.285157 1.078126 6.886719 5.421876 5.8125 9.710938-.394531 1.558594-9.859375 38.0625-39.761719 38.0625zm0 0"/></g><path d="m128.007812 360c0 13.253906-10.746093 24-24 24-13.253906 0-24-10.746094-24-24s10.746094-24 24-24c13.253907 0 24 10.746094 24 24zm0 0" fill="#fdb5a6"/><path d="m320.007812 360c0 13.253906-10.746093 24-24 24-13.253906 0-24-10.746094-24-24s10.746094-24 24-24c13.253907 0 24 10.746094 24 24zm0 0" fill="#fdb5a6"/><path d="m232.007812 56-32 32-32-32v-48h64zm0 0" fill="#dc2027"/><path d="m248.007812 136c0 26.507812-21.492187 48-48 48-26.507812 0-48-21.492188-48-48s21.492188-48 48-48c26.507813 0 48 21.492188 48 48zm0 0" fill="#f6aa54"/><path d="m200.007812 160c-4.417968 0-8-3.582031-8-8s3.582032-8 8-8c4.417969 0 8-3.582031 8-8s3.582032-8 8-8c4.417969 0 8 3.582031 8 8 0 13.253906-10.746093 24-24 24zm0 0" fill="#ffc796"/><path d="m192.007812 48c0 4.417969 3.582032 8 8 8 4.417969 0 8-3.582031 8-8v-40h-16zm0 0" fill="#f6aa54"/><path d="m192.246094 294.0625-16 64c-.675782 2.726562.121094 5.605469 2.109375 7.589844 1.984375 1.988281 4.863281 2.785156 7.589843 2.109375l32-8c2.828126-.640625 5.09375-2.757813 5.914063-5.542969.824219-2.785156.070313-5.792969-1.960937-7.867188-2.03125-2.070312-5.027344-2.878906-7.828126-2.113281l-19.070312 4.800781 12.800781-51.070312c.765625-2.800781-.042969-5.792969-2.113281-7.828125-2.070312-2.03125-5.082031-2.78125-7.867188-1.960937-2.78125.820312-4.902343 3.085937-5.539062 5.917968zm0 0"/><path d="m161.96875 272.257812c-2.058594-.535156-4.242188-.226562-6.070312.859376-1.824219 1.085937-3.140626 2.859374-3.652344 4.921874-.0625.257813-6.832032 25.960938-24.238282 25.960938s-24.175781-25.703125-24.238281-25.960938c-1.078125-4.285156-5.425781-6.886718-9.710937-5.8125-4.285156 1.078126-6.886719 5.421876-5.8125 9.710938.386718 1.558594 9.859375 38.0625 39.761718 38.0625 29.902344 0 39.375-36.503906 39.761719-38.0625 1.058594-4.273438-1.535156-8.601562-5.800781-9.679688zm0 0"/><path d="m272.007812 320c29.902344 0 39.375-36.503906 39.761719-38.0625 1.074219-4.289062-1.527343-8.632812-5.8125-9.710938-4.285156-1.074218-8.632812 1.527344-9.710937 5.8125-.0625.257813-6.832032 25.960938-24.238282 25.960938s-24.175781-25.703125-24.238281-25.960938c-1.078125-4.285156-5.425781-6.886718-9.710937-5.8125-4.285156 1.078126-6.886719 5.421876-5.8125 9.710938.386718 1.558594 9.859375 38.0625 39.761718 38.0625zm0 0"/><path d="m200.007812 160c13.253907 0 24-10.746094 24-24 0-4.417969-3.582031-8-8-8-4.417968 0-8 3.582031-8 8s-3.582031 8-8 8c-4.417968 0-8 3.582031-8 8s3.582032 8 8 8zm0 0"/><path d="m368.007812 232.96875v-48.96875c0-25.71875-67.910156-34.839844-112.9375-38.0625 5.160157-27.785156-11.308593-55.03125-38.308593-63.371094l20.902343-20.910156c1.5-1.5 2.34375-3.535156 2.34375-5.65625v-48c0-4.417969-3.582031-8-8-8h-64c-4.417968 0-8 3.582031-8 8v48c0 2.121094.84375 4.15625 2.34375 5.65625l20.902344 20.910156c-26.996094 8.339844-43.46875 35.578125-38.308594 63.363282-42.625 3.078124-112.9375 12.101562-112.9375 38.070312v48.96875c-18.230468 4.464844-31.9999995 23.832031-31.9999995 47.03125 0 23.503906 14.1601565 43.070312 32.8007815 47.199219 7.8125 86.535156 80.347656 152.816406 167.230468 152.816406 86.886719 0 159.421876-66.28125 167.234376-152.816406 18.574218-4.128907 32.734374-23.695313 32.734374-47.199219 0-23.199219-13.769531-42.566406-32-47.03125zm-336 77.0625c-10.535156-6.226562-16.710937-17.816406-16-30.03125-.710937-12.214844 5.464844-23.804688 16-30.03125zm144-257.34375v-36.6875h16v32c0 4.417969 3.582032 8 8 8 4.417969 0 8-3.582031 8-8v-32h16v36.6875l-24 24zm24 43.3125c22.089844 0 40 17.910156 40 40s-17.910156 40-40 40c-22.089843 0-40-17.910156-40-40 .027344-22.082031 17.917969-39.972656 40-40zm152 216c0 83.949219-68.050781 152-152 152-83.945312 0-152-68.050781-152-152v-109.105469c40.871094 20.792969 146.472657 21.105469 152 21.105469 5.527344 0 111.128907-.3125 152-21.105469zm-152-104c-94.398437 0-148.207031-15.542969-152-23.542969v-.152343c2.398438-5.417969 31.375-18.039063 102.265626-22.679688 9.570312 18.648438 28.769531 30.375 49.734374 30.375 20.964844 0 40.164063-11.726562 49.734376-30.375 71.464843 4.710938 100.21875 17.558594 102.320312 22-3.535156 8.742188-57.359375 24.375-152.054688 24.375zm168 102.03125v-60.0625c10.535157 6.226562 16.710938 17.816406 16 30.03125.710938 12.214844-5.464843 23.804688-16 30.03125zm0 0"/></svg>