<svg height="480pt" viewBox="-40 0 480 480.01571" width="480pt" xmlns="http://www.w3.org/2000/svg"><path d="m208.007812 104v-52l32-20-48-24v96zm0 0" fill="#dc2027"/><path d="m344.007812 320h16c17.671876 0 32-17.910156 32-40s-14.328124-40-32-40h-16zm0 0" fill="#ccac9b"/><path d="m56.007812 320h-16c-17.671874 0-32-17.910156-32-40s14.328126-40 32-40h16zm0 0" fill="#ccac9b"/><path d="m40.007812 184h320v128c0 88.367188-71.632812 160-160 160-88.367187 0-160-71.632812-160-160zm0 0" fill="#f5d7ca"/><path d="m360.007812 184c0-17.671875-71.632812-32-160-32-88.367187 0-160 14.328125-160 32s71.632813 32 160 32c88.367188 0 160-14.328125 160-32zm0 0" fill="#b9a095"/><g fill="#a8887a"><path d="m184.007812 368c-2.460937 0-4.785156-1.136719-6.300781-3.074219-1.515625-1.941406-2.054687-4.472656-1.460937-6.863281l16-64c.640625-2.828125 2.757812-5.09375 5.542968-5.914062 2.785157-.824219 5.792969-.070313 7.867188 1.960937 2.070312 2.03125 2.878906 5.027344 2.113281 7.828125l-12.761719 51.070312 19.054688-4.800781c4.273438-1.035156 8.582031 1.566407 9.648438 5.832031 1.070312 4.261719-1.503907 8.589844-5.757813 9.6875l-32 8c-.636719.171876-1.289063.261719-1.945313.273438zm0 0"/><path d="m128.007812 320c-29.902343 0-39.367187-36.503906-39.761718-38.0625-1.074219-4.289062 1.527344-8.632812 5.8125-9.710938 4.285156-1.074218 8.632812 1.527344 9.710937 5.8125.0625.257813 6.832031 25.960938 24.238281 25.960938s24.175782-25.703125 24.238282-25.960938c1.078125-4.285156 5.425781-6.886718 9.710937-5.8125 4.285157 1.078126 6.886719 5.421876 5.8125 9.710938-.394531 1.558594-9.859375 38.0625-39.761719 38.0625zm0 0"/><path d="m272.007812 320c-29.902343 0-39.367187-36.503906-39.761718-38.0625-1.074219-4.289062 1.527344-8.632812 5.8125-9.710938 4.285156-1.074218 8.632812 1.527344 9.710937 5.8125.0625.257813 6.832031 25.960938 24.238281 25.960938s24.175782-25.703125 24.238282-25.960938c1.078125-4.285156 5.425781-6.886718 9.710937-5.8125 4.285157 1.078126 6.886719 5.421876 5.8125 9.710938-.394531 1.558594-9.859375 38.0625-39.761719 38.0625zm0 0"/></g><path d="m128.007812 360c0 13.253906-10.746093 24-24 24-13.253906 0-24-10.746094-24-24s10.746094-24 24-24c13.253907 0 24 10.746094 24 24zm0 0" fill="#fdb5a6"/><path d="m320.007812 360c0 13.253906-10.746093 24-24 24-13.253906 0-24-10.746094-24-24s10.746094-24 24-24c13.253907 0 24 10.746094 24 24zm0 0" fill="#fdb5a6"/><path d="m176.007812 104h48v80h-48zm0 0" fill="#ffd946"/><path d="m224.007812 120h48v64h-48zm0 0" fill="#f286a5"/><path d="m128.007812 120h48v64h-48zm0 0" fill="#3cb4d7"/><path d="m192.246094 294.054688-16 64c-.597656 2.390624-.0625 4.925781 1.457031 6.867187 1.515625 1.941406 3.839844 3.078125 6.304687 3.078125.65625 0 1.308594-.082031 1.945313-.238281l32-8c2.789063-.679688 5.003906-2.800781 5.796875-5.5625.796875-2.757813.050781-5.730469-1.953125-7.789063-2-2.058594-4.953125-2.886718-7.734375-2.171875l-19.054688 4.761719 12.761719-51.054688c.714844-2.78125-.113281-5.734374-2.171875-7.734374-2.058594-2.003907-5.03125-2.75-7.789062-1.953126-2.761719.792969-4.882813 3.007813-5.5625 5.796876zm0 0"/><path d="m161.96875 272.257812c-4.28125-1.085937-8.632812 1.5-9.722656 5.78125-.0625.265626-6.832032 25.960938-24.238282 25.960938s-24.175781-25.695312-24.238281-25.960938c-1.078125-4.285156-5.429687-6.886718-9.714843-5.808593-4.285157 1.078125-6.886719 5.429687-5.808594 9.714843.394531 1.550782 9.859375 38.054688 39.761718 38.054688 29.902344 0 39.367188-36.503906 39.761719-38.054688 1.0625-4.277343-1.53125-8.609374-5.800781-9.6875zm0 0"/><path d="m272.007812 320c29.902344 0 39.367188-36.503906 39.761719-38.054688 1.078125-4.285156-1.523437-8.636718-5.808593-9.714843-4.285157-1.078125-8.636719 1.523437-9.714844 5.808593-.0625.265626-6.832032 25.960938-24.238282 25.960938s-24.175781-25.695312-24.238281-25.960938c-1.078125-4.285156-5.429687-6.886718-9.714843-5.808593-4.285157 1.078125-6.886719 5.429687-5.808594 9.714843.394531 1.550782 9.859375 38.054688 39.761718 38.054688zm0 0"/><path d="m368.007812 232.96875v-48.96875c0-17.175781-29.648437-29.183594-88-35.753906v-28.246094c0-4.417969-3.582031-8-8-8h-40v-8c0-4.417969-3.582031-8-8-8h-16v-35.054688l43.574219-21.746093c2.71875-1.351563 4.433594-4.125 4.433594-7.160157 0-3.03125-1.714844-5.804687-4.433594-7.160156l-48-24c-.09375-.046875-.199219-.054687-.292969-.101562-.097656-.050782-.351562-.113282-.539062-.183594-.769531-.289062-1.578125-.453125-2.398438-.488281-.136718-.042969-.230468-.105469-.34375-.105469-.113281 0-.089843 0-.136718 0-.917969.0234375-1.828125.210938-2.6875.542969-.214844.089843-.40625.183593-.617188.28125-.207031.097656-.519531.199219-.796875.34375-.445312.296875-.859375.636719-1.242187 1.007812-.078125.082031-.175782.128907-.253906.207031-.621094.652344-1.125 1.40625-1.496094 2.226563-.089844.199219-.160156.390625-.242188.597656-.34375.890625-.519531 1.839844-.527344 2.792969v88h-16c-4.417968 0-8 3.582031-8 8v8h-40c-4.417968 0-8 3.582031-8 8v28.246094c-58.351562 6.570312-88 18.578125-88 35.753906v48.96875c-18.230468 4.464844-31.9999995 23.832031-31.9999995 47.03125 0 23.503906 14.1601565 43.070312 32.8007815 47.199219 7.8125 86.535156 80.347656 152.816406 167.230468 152.816406 86.886719 0 159.421876-66.28125 167.234376-152.816406 18.574218-4.128907 32.734374-23.695313 32.734374-47.199219 0-23.199219-13.769531-42.566406-32-47.03125zm-160-212.023438 22.113282 11.054688-22.113282 11.054688zm-176 289.085938c-10.535156-6.226562-16.710937-17.816406-16-30.03125-.710937-12.214844 5.464844-23.804688 16-30.03125zm200-182.03125h32v48h-32zm-48-8v-8h32v64h-32zm-48 8h32v48h-32zm216 184c0 83.949219-68.050781 152-152 152-83.945312 0-152-68.050781-152-152v-109.105469c40.871094 20.792969 146.472657 21.105469 152 21.105469 5.527344 0 111.128907-.3125 152-21.105469zm-152-104c-94.398437 0-148.183593-15.535156-152-23.542969v-.167969c1.902344-4.183593 21.878907-14.050781 72-19.945312v19.65625c0 4.417969 3.582032 8 8 8h144c4.417969 0 8-3.582031 8-8v-19.65625c50.464844 5.9375 70.398438 15.863281 72.054688 19.273438-3.535156 8.75-57.367188 24.382812-152.054688 24.382812zm168 102.03125v-60.0625c10.535157 6.226562 16.710938 17.816406 16 30.03125.710938 12.214844-5.464843 23.804688-16 30.03125zm0 0"/></svg>